<svg width="24" height="24" viewBox="0 0 24 24" fill="none" xmlns="http://www.w3.org/2000/svg">
<path d="M6.70358 17.9656C6.70358 17.0271 9.98833 11.9994 16.0886 11.9994C16.1556 11.9994 16.1556 11.9994 16.2227 11.9994V2.8155L13.5412 0H1.80997C0.804429 0 0 0.871465 0 1.877V18.9711C0 20.0437 0.804429 20.8481 1.80997 20.8481H8.64761C7.37393 19.6415 6.70358 18.4348 6.70358 17.9656Z" fill="#333333"/>
<path d="M17.6304 17.5634C17.4293 17.5634 17.2282 17.6304 16.9601 17.6974C16.759 17.7645 16.4908 17.8315 16.3567 17.8315H16.2897C16.2227 17.6974 16.3567 17.2952 16.4238 17.0941C16.5578 16.6919 16.6249 16.3567 16.4238 16.1556C16.3567 16.0886 16.2897 16.0215 16.2227 16.0215C16.1556 16.0215 16.1556 16.0215 16.0886 16.0215C15.016 16.0215 14.1446 16.893 14.1446 18.0326C14.1446 19.1052 14.949 19.9096 15.9545 20.0437C16.0216 20.0437 16.0216 20.0437 16.0886 20.0437C17.1612 20.0437 18.0326 19.1722 18.0326 18.0326C18.0326 17.7645 17.9656 17.5634 17.6304 17.5634Z" fill="#666666"/>
<path d="M16.2227 12.9379C16.1556 12.9379 16.1556 12.9379 16.0886 12.9379C10.9268 12.9379 8.11133 17.1611 8.11133 18.0326C8.11133 18.4348 8.84872 19.7755 10.1894 20.9152C11.5302 22.0548 13.4742 23.0603 16.0215 23.0603C21.1833 23.0603 23.9988 18.837 23.9988 17.9656C24.0658 17.1611 21.3174 13.0049 16.2227 12.9379ZM16.1556 21.7866C15.2171 21.7866 14.3457 21.4514 13.6753 20.8481C12.8709 20.1778 12.3346 19.1052 12.3346 17.9656C12.3346 15.8875 14.0775 14.1445 16.1556 14.1445C16.2227 14.1445 16.2227 14.1445 16.2897 14.1445C18.3008 14.2116 19.9767 15.8875 19.9767 17.9656C19.9096 20.1107 18.2337 21.7866 16.1556 21.7866Z" fill="#666666"/>
<path d="M10.1894 8.31244C10.4576 8.17837 10.7257 8.11133 10.8598 7.91022C11.0609 7.64208 10.9939 7.17283 11.1279 6.90469C11.262 6.56951 11.5302 6.30137 11.5302 5.89915C11.5302 5.56397 11.195 5.22879 11.1279 4.89362C10.9939 4.55844 11.0609 4.15622 10.8598 3.88808C10.6587 3.61994 10.2565 3.5529 9.9213 3.35179C9.65316 3.15069 9.45205 2.74847 9.11687 2.68144C8.84873 2.48033 8.44651 2.68144 8.11133 2.68144C7.77615 2.68144 7.37394 2.48033 7.03876 2.6144C6.70358 2.68144 6.50247 3.08365 6.23433 3.28476C5.96619 3.48587 5.49694 3.5529 5.29583 3.82104C5.09472 4.15622 5.16176 4.55844 5.02769 4.89362C4.96065 5.22879 4.62547 5.49694 4.62547 5.89915C4.62547 6.23433 4.96065 6.56951 5.02769 6.90469C5.16176 7.23987 5.09472 7.64208 5.29583 7.91022C5.4299 8.11133 5.69805 8.17837 5.96619 8.31244L4.35733 11.7983L6.30137 10.7928L6.70358 12.9379L8.0443 9.98833L9.38501 12.9379L9.72019 10.7928L11.7313 11.8653L10.1894 8.31244ZM8.11133 7.3069C7.3069 7.3069 6.63655 6.63655 6.63655 5.83212C6.63655 5.02769 7.3069 4.35733 8.11133 4.35733C8.91576 4.35733 9.58612 5.02769 9.58612 5.83212C9.58612 6.63655 8.91576 7.3069 8.11133 7.3069Z" fill="white"/>
</svg>
