<svg width="20" height="20" viewBox="0 0 20 20" fill="none" xmlns="http://www.w3.org/2000/svg">
<path d="M12.3333 10L19.5 2.83333C20.1667 2.16667 20.1667 1.16667 19.5 0.5C18.8333 -0.166667 17.8333 -0.166667 17.1667 0.5L10 7.66667L2.83333 0.5C2.16667 -0.166667 1.16667 -0.166667 0.5 0.5C-0.166667 1.16667 -0.166667 2.16667 0.5 2.83333L7.66667 10L0.5 17.1667C-0.166667 17.8333 -0.166667 18.8333 0.5 19.5C1.16667 20.1667 2.16667 20.1667 2.83333 19.5L10 12.3333L17.1667 19.5C17.8333 20.1667 18.8333 20.1667 19.5 19.5C20.1667 18.8333 20.1667 17.8333 19.5 17.1667L12.3333 10Z" fill="#333333"/>
</svg>
