<svg width="24" height="24" viewBox="0 0 24 24" fill="none" xmlns="http://www.w3.org/2000/svg">
<path d="M12 18.8806C4.95786 18.8806 1.19992 13.1195 1.19992 12C1.19992 10.8806 4.95786 5.11945 12 5.11945C19.0421 5.11945 22.8 10.8806 22.8 12C22.8 13.1195 19.0421 18.8806 12 18.8806ZM12.0216 7.61238C9.59014 7.61238 7.61233 9.5808 7.61233 12C7.61233 14.4192 9.59061 16.3876 12.0216 16.3876C14.429 16.3876 16.3871 14.4192 16.3871 12C16.3871 9.5808 14.429 7.61238 12.0216 7.61238ZM12.0211 14.724C10.5424 14.724 9.33939 13.5022 9.33939 12C9.33939 10.4979 10.5424 9.27605 12.0211 9.27605C12.2028 9.27605 12.3592 9.3493 12.4615 9.48172C12.6869 9.77473 12.5705 10.2152 12.4226 10.773C12.3498 11.0496 12.1986 11.6211 12.2737 11.7582C12.2826 11.7587 12.3437 11.7615 12.3437 11.7615C12.5409 11.7615 12.8466 11.6854 13.1424 11.6117C13.4702 11.53 13.7801 11.453 14.0285 11.453C14.4962 11.453 14.6615 11.7474 14.6615 11.9995C14.661 13.5022 13.4767 14.724 12.0211 14.724Z" fill="#5C707D"/>
</svg>
