<svg width="24" height="24" viewBox="0 0 24 24" fill="none" xmlns="http://www.w3.org/2000/svg">
<path d="M8.08913 7.2869C8.89136 7.2869 9.55988 6.61838 9.55988 5.81615C9.55988 5.01392 8.89136 4.3454 8.08913 4.3454C7.2869 4.3454 6.61838 5.01392 6.61838 5.81615C6.61838 6.61838 7.2869 7.2869 8.08913 7.2869Z" fill="#333333"/>
<path d="M16.0446 11.9666C16.1114 11.9666 16.1114 11.9666 16.1783 11.9666V2.8078L13.5042 0H1.80501C0.802228 0 0 0.869081 0 1.87187V18.9192C0 19.9889 0.802228 20.7911 1.80501 20.7911H8.62395C7.35376 19.5877 6.68524 18.3844 6.68524 17.9164C6.68524 16.9805 9.961 11.9666 16.0446 11.9666ZM4.41226 11.766L6.01671 8.28969C5.7493 8.15599 5.48189 8.08914 5.34819 7.88858C5.14763 7.62117 5.21448 7.1532 5.08078 6.88579C4.94707 6.48468 4.67967 6.21727 4.67967 5.88301C4.67967 5.54875 5.01393 5.21448 5.08078 4.88022C5.21448 4.54596 5.14763 4.14485 5.34819 3.81058C5.54875 3.54318 5.94986 3.47632 6.28412 3.27577C6.55153 3.07521 6.75209 2.67409 7.08635 2.60724C7.35376 2.47354 7.75487 2.67409 8.08914 2.67409C8.4234 2.67409 8.82451 2.47354 9.15877 2.60724C9.49304 2.74095 9.69359 3.07521 9.961 3.27577C10.2284 3.47632 10.6964 3.54318 10.8969 3.81058C11.0975 4.07799 11.0306 4.54596 11.1643 4.81337C11.298 5.14763 11.5655 5.41504 11.5655 5.81616C11.5655 6.21727 11.2312 6.48468 11.1643 6.81894C11.0306 7.1532 11.0975 7.55432 10.8969 7.82173C10.7632 8.02228 10.4958 8.08914 10.2284 8.22284L11.8329 11.6992L9.8273 10.6295L9.49304 12.7688L8.15599 9.8273L6.81894 12.7688L6.41783 10.6295L4.41226 11.766Z" fill="#333333"/>
<path d="M16.1114 21.1922C14.3064 21.1922 12.9025 19.7214 12.9025 17.9833C12.9025 17.8496 12.9025 17.7159 12.9025 17.5822L10.3621 15.0418C8.95822 16.2451 8.22284 17.5822 8.22284 17.9833C8.22284 18.7855 10.9638 23.0641 16.1783 23.0641C16.9136 23.0641 17.5822 22.9972 18.1838 22.8635L16.5794 21.259C16.3788 21.1922 16.2451 21.1922 16.1114 21.1922Z" fill="#666666"/>
<path d="M16.1114 12.9025C15.3761 12.9025 14.7075 12.9694 14.1059 13.1031L15.7103 14.7075C15.844 14.7075 15.9777 14.7075 16.1114 14.7075C17.8496 14.7075 19.3203 16.1783 19.3203 17.9164C19.3203 18.0501 19.3203 18.1838 19.3203 18.3176L21.8607 20.8579C23.2646 19.6546 24 18.3176 24 17.9164C24 17.1142 21.2591 12.9025 16.1114 12.9025Z" fill="#666666"/>
<path d="M13.3705 13.9053C13.3036 13.8384 13.1699 13.7716 13.0362 13.7047C12.9025 13.6379 12.7688 13.6379 12.702 13.6379C12.5014 13.6379 12.3677 13.7047 12.1671 13.7716C12.0334 13.9053 11.8997 14.039 11.8329 14.1727C11.766 14.3733 11.766 14.507 11.766 14.7075C11.8329 14.9081 11.8997 15.0418 12.0334 15.1755L18.8524 22.0613C19.0529 22.2618 19.2535 22.3287 19.5209 22.3287C19.7883 22.3287 19.9889 22.195 20.1894 22.0613C20.39 21.8607 20.4568 21.6602 20.4568 21.3928C20.4568 21.1253 20.39 20.9248 20.1894 20.7242L13.3705 13.9053Z" fill="#666666"/>
</svg>
