<svg width="24" height="24" viewBox="0 0 24 24" fill="none" xmlns="http://www.w3.org/2000/svg">
<path d="M12 23.5C5.659 23.5 0.5 18.341 0.5 12C0.5 5.659 5.659 0.5 12 0.5C18.341 0.5 23.5 5.659 23.5 12C23.5 18.341 18.341 23.5 12 23.5Z" fill="white"/>
<path d="M12 1C18.065 1 23 5.935 23 12C23 18.065 18.065 23 12 23C5.935 23 1 18.065 1 12C1 5.935 5.935 1 12 1ZM12 0C5.373 0 0 5.373 0 12C0 18.627 5.373 24 12 24C18.627 24 24 18.627 24 12C24 5.373 18.627 0 12 0Z" fill="#333333"/>
<path d="M6.654 11.346C6.07 10.76 6.07 9.80901 6.654 9.22501C6.937 8.94201 7.314 8.78601 7.715 8.78601C8.116 8.78601 8.493 8.94201 8.777 9.22601L12 12.451L15.226 9.22501C15.509 8.94201 15.886 8.78601 16.287 8.78601C16.689 8.78601 17.066 8.94301 17.35 9.22701C17.631 9.50801 17.788 9.88401 17.788 10.285C17.788 10.686 17.632 11.063 17.349 11.347L12 16.693L6.654 11.346Z" fill="#333333"/>
</svg>
