<svg width="25" height="24" viewBox="0 0 25 24" fill="none" xmlns="http://www.w3.org/2000/svg">
<path fill-rule="evenodd" clip-rule="evenodd" d="M5.33088 14C6.57235 14 7.57876 12.9926 7.57876 11.75C7.57876 10.5074 6.57235 9.5 5.33088 9.5C4.08942 9.5 3.08301 10.5074 3.08301 11.75C3.08301 12.9926 4.08942 14 5.33088 14ZM12.0745 14C13.316 14 14.3224 12.9926 14.3224 11.75C14.3224 10.5074 13.316 9.5 12.0745 9.5C10.833 9.5 9.82664 10.5074 9.82664 11.75C9.82664 12.9926 10.833 14 12.0745 14ZM21.066 11.75C21.066 12.9926 20.0596 14 18.8181 14C17.5767 14 16.5703 12.9926 16.5703 11.75C16.5703 10.5074 17.5767 9.5 18.8181 9.5C20.0596 9.5 21.066 10.5074 21.066 11.75Z" fill="#333333"/>
</svg>
