<svg width="24" height="24" viewBox="0 0 24 24" fill="none" xmlns="http://www.w3.org/2000/svg">
<path d="M20.9995 13.4992H16.4998C15.7041 13.4992 14.9411 13.8153 14.3785 14.3779C13.816 14.9405 13.4999 15.7035 13.4999 16.4991V20.9988C13.4999 21.7944 13.816 22.5575 14.3785 23.12C14.9411 23.6826 15.7041 23.9987 16.4998 23.9987H20.9995C21.7951 23.9987 22.5581 23.6826 23.1207 23.12C23.6833 22.5575 23.9993 21.7944 23.9993 20.9988V16.4991C23.9993 15.7035 23.6833 14.9405 23.1207 14.3779C22.5581 13.8153 21.7951 13.4992 20.9995 13.4992ZM10.5427 22.4321C10.5069 22.5998 10.4147 22.7502 10.2816 22.8584C10.1484 22.9666 9.98232 23.026 9.81079 23.0267C9.75786 23.027 9.70507 23.0212 9.65346 23.0094C7.81398 22.6162 6.10304 21.7664 4.67826 20.5383C3.25348 19.3101 2.1607 17.7432 1.50058 15.9818V18.755C1.50485 18.8561 1.48861 18.9571 1.45284 19.0518C1.41708 19.1465 1.36252 19.233 1.29246 19.3061C1.2224 19.3791 1.13828 19.4373 1.04517 19.477C0.952051 19.5167 0.851861 19.5372 0.750625 19.5372C0.649389 19.5372 0.549199 19.5167 0.456082 19.477C0.362965 19.4373 0.278847 19.3791 0.208786 19.3061C0.138726 19.233 0.0841716 19.1465 0.0484056 19.0518C0.0126396 18.9571 -0.00359899 18.8561 0.000666664 18.755V14.2485C0.000666664 14.0498 0.0796097 13.8592 0.220129 13.7187C0.360649 13.5782 0.551234 13.4992 0.749958 13.4992H5.25104C5.44447 13.5074 5.62727 13.59 5.76125 13.7297C5.89524 13.8695 5.97004 14.0556 5.97004 14.2492C5.97004 14.4428 5.89524 14.6289 5.76125 14.7687C5.62727 14.9084 5.44447 14.991 5.25104 14.9992H2.73518C3.25867 16.6279 4.20274 18.0897 5.47203 19.2368C6.74131 20.3839 8.29085 21.1756 9.96411 21.5321C10.0604 21.5524 10.1518 21.5915 10.233 21.6471C10.3142 21.7027 10.3836 21.7738 10.4374 21.8562C10.4911 21.9387 10.5281 22.0309 10.5462 22.1277C10.5642 22.2244 10.5631 22.3238 10.5427 22.4201V22.4321ZM3.0005 10.4994H7.50025C8.29586 10.4994 9.05888 10.1834 9.62145 9.62079C10.184 9.05821 10.5001 8.29519 10.5001 7.49958V2.99983C10.5001 2.20423 10.184 1.44121 9.62145 0.878631C9.05888 0.316053 8.29586 0 7.50025 0L3.0005 0C2.20489 0 1.44188 0.316053 0.879298 0.878631C0.31672 1.44121 0.000666664 2.20423 0.000666664 2.99983V7.49958C0.000666664 8.29519 0.31672 9.05821 0.879298 9.62079C1.44188 10.1834 2.20489 10.4994 3.0005 10.4994V10.4994ZM13.4573 1.57325C13.4931 1.40551 13.5853 1.25508 13.7184 1.14693C13.8516 1.03877 14.0177 0.979378 14.1892 0.978612C14.2421 0.978365 14.2949 0.98418 14.3465 0.995945C16.186 1.38914 17.897 2.23895 19.3217 3.46708C20.7465 4.6952 21.8393 6.26215 22.4994 8.02355V5.25037C22.4952 5.14923 22.5114 5.04826 22.5472 4.95356C22.5829 4.85885 22.6375 4.77235 22.7075 4.69928C22.7776 4.6262 22.8617 4.56805 22.9548 4.52832C23.048 4.4886 23.1481 4.46812 23.2494 4.46812C23.3506 4.46812 23.4508 4.4886 23.5439 4.52832C23.637 4.56805 23.7212 4.6262 23.7912 4.69928C23.8613 4.77235 23.9158 4.85885 23.9516 4.95356C23.9874 5.04826 24.0036 5.14923 23.9993 5.25037V9.75012C23.9993 9.84852 23.98 9.94596 23.9423 10.0369C23.9046 10.1278 23.8495 10.2104 23.7799 10.28C23.7103 10.3495 23.6277 10.4047 23.5368 10.4424C23.4459 10.48 23.3484 10.4994 23.25 10.4994H18.749C18.5555 10.4913 18.3727 10.4087 18.2387 10.2689C18.1048 10.1292 18.03 9.94306 18.03 9.74946C18.03 9.55586 18.1048 9.36974 18.2387 9.22999C18.3727 9.09024 18.5555 9.00766 18.749 8.9995H21.2648C20.7413 7.37074 19.7973 5.90899 18.528 4.7619C17.2587 3.61481 15.7091 2.82303 14.0359 2.46653C13.9396 2.44624 13.8482 2.40717 13.767 2.35156C13.6858 2.29595 13.6164 2.22488 13.5626 2.14242C13.5089 2.05997 13.4719 1.96773 13.4538 1.87098C13.4358 1.77424 13.4369 1.67488 13.4573 1.57858V1.57325Z" fill="#333333"/>
</svg>
