<svg width="24" height="24" viewBox="0 0 24 24" fill="none" xmlns="http://www.w3.org/2000/svg">
<path fill-rule="evenodd" clip-rule="evenodd" d="M18.9609 9.06541C18.6468 9.02229 18.326 9 18 9C14.134 9 11 12.134 11 16C11 16.4599 11.0443 16.9093 11.129 17.3444H9.849L7.29468 19.8672C6.86423 20.2924 6.22052 20.4173 5.6623 20.184C5.10408 19.9508 4.74063 19.405 4.74063 18.8V17.1281C2.58597 16.4904 1 14.5141 1 12.15V9.19444C1 6.30813 3.36394 4 6.24063 4H13.7219C16.5556 4 18.8917 6.23964 18.9609 9.06541Z" fill="#333333"/>
<path opacity="0.75" fill-rule="evenodd" clip-rule="evenodd" d="M18 22C21.3137 22 24 19.3137 24 16C24 12.6863 21.3137 10 18 10C14.6863 10 12 12.6863 12 16C12 19.3137 14.6863 22 18 22ZM21.2498 15.25C21.664 15.25 21.9998 15.5858 21.9998 16C21.9998 16.4142 21.664 16.75 21.2498 16.75H18.75V19.25C18.75 19.6642 18.4142 20 18 20C17.5858 20 17.25 19.6642 17.25 19.25V16.75H14.7498C14.3355 16.75 13.9998 16.4142 13.9998 16C13.9998 15.5858 14.3355 15.25 14.7498 15.25H17.25V12.75C17.25 12.3358 17.5858 12 18 12C18.4142 12 18.75 12.3358 18.75 12.75V15.25H21.2498Z" fill="#333333"/>
</svg>
