<svg id="Layer_1" data-name="Layer 1" xmlns="http://www.w3.org/2000/svg" viewBox="0 0 36 36"><defs><style>.cls-1{fill:#8cc53e;}.cls-2{fill:#fff;}</style></defs><title>title_reports</title><circle class="cls-1" cx="18" cy="18" r="18"/><path class="cls-2" d="M25,28H11c-.4,0-.6-.1-.6-.5s.2-.5.6-.5H25c.4,0,.6.1.6.5S25.3,28,25,28Z"/><path class="cls-2" d="M25,24H23a.47.47,0,0,1-.5-.5v-10A.47.47,0,0,1,23,13h2a.47.47,0,0,1,.5.5v10A.47.47,0,0,1,25,24Z"/><path class="cls-2" d="M13,24H11a.47.47,0,0,1-.5-.5v-12A.47.47,0,0,1,11,11h2a.47.47,0,0,1,.5.5v12A.47.47,0,0,1,13,24Z"/><path class="cls-2" d="M19,24H17a.47.47,0,0,1-.5-.5V7.5A.47.47,0,0,1,17,7h2a.47.47,0,0,1,.5.5v16A.47.47,0,0,1,19,24Z"/></svg>