<?xml version="1.0" encoding="utf-8"?>
<!-- Generator: Adobe Illustrator 21.1.0, SVG Export Plug-In . SVG Version: 6.00 Build 0)  -->
<svg version="1.1" id="Layer_1" xmlns="http://www.w3.org/2000/svg" xmlns:xlink="http://www.w3.org/1999/xlink" x="0px" y="0px"
	 viewBox="0 0 36 36" style="enable-background:new 0 0 36 36;" xml:space="preserve">
<style type="text/css">
	.st0{fill:#F3794E;}
	.st1{fill:#FFFFFF;}
	.st2{fill:none;stroke:#FFFFFF;stroke-linecap:round;stroke-miterlimit:10;}
</style>
<title>title_reports</title>
<g>
	<path class="st0" d="M18,35.5C8.4,35.5,0.5,27.6,0.5,18S8.4,0.5,18,0.5S35.5,8.4,35.5,18S27.6,35.5,18,35.5z"/>
	<path class="st1" d="M18,1c9.4,0,17,7.6,17,17s-7.6,17-17,17S1,27.4,1,18S8.6,1,18,1 M18,0C8.1,0,0,8.1,0,18s8.1,18,18,18
		s18-8.1,18-18S27.9,0,18,0L18,0z"/>
</g>
<g>
	<path class="st2" d="M13.5,18.3c1.1-2.5,4-3.7,6.5-2.6c1.1,0.5,2,1.4,2.6,2.5"/>
	<polyline class="st2" points="16.1,18.4 13,19.2 12.4,16.2 	"/>
</g>
<g>
	<path class="st2" d="M22.6,22.2c-1,2.5-4,3.7-6.5,2.6c-1-0.5-1.9-1.3-2.5-2.3"/>
	<polyline class="st2" points="23.6,24.7 23,21.6 20.1,22.2 	"/>
</g>
<path class="st1" d="M21.8,7h-9.5c-1.9,0-3.4,1.5-3.4,3.4v15.2c0,1.9,1.5,3.4,3.4,3.4h11.4c1.9,0,3.4-1.5,3.4-3.4V12.1L21.8,7z
	 M26,25.6c0,1.3-1,2.3-2.3,2.3H12.3c-1.3,0-2.3-1-2.3-2.3V10.4c0-1.3,1-2.3,2.3-2.3h8.3v5.1H26L26,25.6L26,25.6z"/>
</svg>
