<?xml version="1.0" encoding="utf-8"?>
<!-- Generator: Adobe Illustrator 21.1.0, SVG Export Plug-In . SVG Version: 6.00 Build 0)  -->
<svg version="1.1" id="Layer_1" xmlns="http://www.w3.org/2000/svg" xmlns:xlink="http://www.w3.org/1999/xlink" x="0px" y="0px"
	 viewBox="0 0 36 36" style="enable-background:new 0 0 36 36;" xml:space="preserve">
<style type="text/css">
	.st0{fill:#DF3324;}
	.st1{fill:none;stroke:#FFFFFF;stroke-linecap:round;stroke-miterlimit:10;}
	.st2{fill:#FFFFFF;}
</style>
<title>title_reports</title>
<circle class="st0" cx="18" cy="18" r="18"/>
<line class="st1" x1="14" y1="16.2" x2="22" y2="24.2"/>
<line class="st1" x1="22" y1="16.2" x2="14" y2="24.2"/>
<path class="st2" d="M21.8,7h-9.5c-1.9,0-3.4,1.5-3.4,3.4v15.2c0,1.9,1.5,3.4,3.4,3.4h11.4c1.9,0,3.4-1.5,3.4-3.4V12.1L21.8,7z
	 M26,25.6c0,1.3-1,2.3-2.3,2.3H12.3c-1.3,0-2.3-1-2.3-2.3V10.4c0-1.3,1-2.3,2.3-2.3h8.3v5.1H26L26,25.6L26,25.6z"/>
</svg>
