<?xml version="1.0" encoding="utf-8"?>
<!-- Generator: Adobe Illustrator 21.1.0, SVG Export Plug-In . SVG Version: 6.00 Build 0)  -->
<svg version="1.1" id="Layer_1" xmlns="http://www.w3.org/2000/svg" xmlns:xlink="http://www.w3.org/1999/xlink" x="0px" y="0px"
	 viewBox="0 0 36 36" style="enable-background:new 0 0 36 36;" xml:space="preserve">
<style type="text/css">
	.st0{fill:#3391AD;}
	.st1{fill:#FFFFFF;}
	.st2{fill:none;stroke:#FFFFFF;stroke-linecap:round;stroke-miterlimit:10;}
</style>
<title>title_reports</title>
<g>
	<path class="st0" d="M18,35.5C8.4,35.5,0.5,27.6,0.5,18S8.4,0.5,18,0.5S35.5,8.4,35.5,18S27.6,35.5,18,35.5z"/>
	<path class="st1" d="M18,1c9.4,0,17,7.6,17,17s-7.6,17-17,17S1,27.4,1,18S8.6,1,18,1 M18,0C8.1,0,0,8.1,0,18s8.1,18,18,18
		s18-8.1,18-18S27.9,0,18,0L18,0z"/>
</g>
<path class="st1" d="M24.6,8.5v7.4v0.5c0,4.1-2.9,7.5-6.6,7.5h-0.5c-3.6,0-6.6-3.4-6.6-7.5v-0.5V8.5H24.6z"/>
<line class="st2" x1="14.1" y1="28.6" x2="21.6" y2="28.6"/>
<rect x="16.6" y="22.1" class="st1" width="2.4" height="6.6"/>
<g>
	<path class="st1" d="M27.2,12.3c-0.3,2.6-1.7,4.6-3.3,4.6s-3-2-3.3-4.6H27.2 M28.3,11.3L28.3,11.3L28.3,11.3z M28.3,11.3h-8.7
		c0,3.6,1.9,6.6,4.3,6.6S28.3,15,28.3,11.3L28.3,11.3z"/>
</g>
<g>
	<path class="st1" d="M15.1,12.3c-0.3,2.6-1.7,4.6-3.3,4.6s-3-2-3.3-4.6H15.1 M16.2,11.3L16.2,11.3L16.2,11.3z M16.2,11.3H7.5
		c0,3.6,1.9,6.6,4.3,6.6S16.2,15,16.2,11.3L16.2,11.3z"/>
</g>
<line class="st2" x1="15.5" y1="27.6" x2="20.2" y2="27.6"/>
<g>
	<polygon class="st0" points="17.8,10.6 19.3,13.7 22.7,14.2 20.3,16.5 20.8,19.9 17.8,18.3 14.8,19.9 15.4,16.5 13,14.2 16.3,13.7 
			"/>
</g>
</svg>
