<?xml version="1.0" encoding="utf-8"?>
<!-- Generator: Adobe Illustrator 19.1.0, SVG Export Plug-In . SVG Version: 6.00 Build 0)  -->
<!DOCTYPE svg PUBLIC "-//W3C//DTD SVG 1.1//EN" "http://www.w3.org/Graphics/SVG/1.1/DTD/svg11.dtd">
<svg version="1.1" id="Layer_1" xmlns="http://www.w3.org/2000/svg" xmlns:xlink="http://www.w3.org/1999/xlink" x="0px" y="0px"
	 viewBox="0 0 32 32" enable-background="new 0 0 32 32" xml:space="preserve">
<path fill="#333333" d="M30,25c0.552,0,1-0.448,1-1s-0.448-1-1-1h-5v-5c0-0.552-0.448-1-1-1s-1,0.448-1,1v5h-5c-0.552,0-1,0.448-1,1
	s0.448,1,1,1h5v5c0,0.552,0.448,1,1,1s1-0.448,1-1v-5H30z"/>
<path fill="none" d="M30,23h-5v-5c0-0.552-0.448-1-1-1s-1,0.448-1,1v5h-5c-0.552,0-1,0.448-1,1s0.448,1,1,1h5v5c0,0.552,0.448,1,1,1
	s1-0.448,1-1v-5h5c0.552,0,1-0.448,1-1S30.552,23,30,23z"/>
<path fill="#627783" d="M21.5,26.5H18c-1.381,0-2.5-1.119-2.5-2.5s1.119-2.5,2.5-2.5h3.5v-1.749
	c-0.372-0.082-0.735-0.196-1.087-0.342c-0.393-0.177-0.741-0.441-1.017-0.773c-0.157-0.19-0.293-0.397-0.406-0.616l-0.19-0.359
	l0.312-0.256c0.485-0.402,0.902-0.88,1.235-1.415c0.518-0.857,0.882-1.799,1.075-2.782l0.062-0.294l0.289-0.082
	c0.175-0.071,0.323-0.196,0.421-0.357c0.203-0.303,0.34-0.646,0.4-1.006c0.106-0.464,0.056-0.95-0.141-1.383l-0.1-0.176l0.049-0.2
	c0.02-0.078,0.039-0.158,0.055-0.241c0.109-0.607,0.143-1.226,0.1-1.842c-0.04-0.738-0.147-1.471-0.32-2.19
	c-0.338-1.083-1.041-2.015-1.989-2.637C19.004,1.931,17.517,1.476,16,1.5c-1.517-0.022-3.002,0.433-4.246,1.3
	c-0.948,0.623-1.652,1.556-1.99,2.639c-0.175,0.722-0.284,1.458-0.326,2.2c-0.043,0.616-0.009,1.234,0.1,1.842
	C9.56,9.555,9.578,9.633,9.6,9.711l0.049,0.2l-0.1,0.175c-0.2,0.432-0.252,0.918-0.149,1.383c0.06,0.361,0.196,0.706,0.4,1.01
	c0.099,0.16,0.246,0.284,0.421,0.354l0.292,0.08l0.063,0.3c0.193,0.983,0.557,1.925,1.076,2.783
	c0.334,0.537,0.754,1.016,1.241,1.419l0.307,0.254l-0.189,0.359c-0.111,0.216-0.245,0.42-0.4,0.608
	c-0.276,0.332-0.624,0.597-1.018,0.773c-0.789,0.297-1.608,0.51-2.442,0.634c-1.106,0.167-2.189,0.461-3.228,0.876
	c-0.946,0.363-1.675,1.135-1.984,2.1c-0.334,1.064-0.524,2.167-0.565,3.281c-0.045,0.193-0.07,0.389-0.075,0.587v1.329
	c0.016,1.255,1.029,2.268,2.284,2.284h15.968C21.517,30.335,21.5,30.168,21.5,30V26.5z"/>
<path fill="#627783" d="M26.5,30c0,0.168-0.017,0.335-0.05,0.5c1.247-0.019,2.249-1.035,2.25-2.282v-1.329
	c-0.003-0.131-0.017-0.261-0.042-0.389H26.5V30z"/>
</svg>
