<?xml version="1.0" encoding="utf-8"?>
<!-- Generator: Adobe Illustrator 19.1.0, SVG Export Plug-In . SVG Version: 6.00 Build 0)  -->
<!DOCTYPE svg PUBLIC "-//W3C//DTD SVG 1.1//EN" "http://www.w3.org/Graphics/SVG/1.1/DTD/svg11.dtd">
<svg version="1.1" id="Layer_1" xmlns="http://www.w3.org/2000/svg" xmlns:xlink="http://www.w3.org/1999/xlink" x="0px" y="0px"
	 viewBox="0 0 24 24" enable-background="new 0 0 24 24" xml:space="preserve">
<g>
	<path fill="#333333" d="M0,0v24h24V0H0z M23,1v15.355L18.345,9.57L1,22.433V1H23z M2.634,23L18,11.565l5,7.294V23H2.634z"/>
	<g>
		<path fill="#333333" d="M6.182,9.551c-1.596,0-2.895-1.299-2.895-2.895c0-1.596,1.299-2.894,2.895-2.894S9.076,5.06,9.076,6.656
			C9.076,8.252,7.778,9.551,6.182,9.551z M6.182,5.174c-0.818,0-1.483,0.665-1.483,1.482s0.665,1.483,1.483,1.483
			s1.482-0.665,1.482-1.483S7,5.174,6.182,5.174z"/>
	</g>
</g>
</svg>
