<svg width="24" height="24" viewBox="0 0 24 24" fill="none" xmlns="http://www.w3.org/2000/svg">
<path d="M17.44 11.874C16.016 11.874 14.593 12.417 13.506 13.503C11.334 15.675 11.334 19.198 13.506 21.37C14.593 22.457 16.016 23 17.44 23C18.864 23 20.287 22.457 21.374 21.371C23.546 19.199 23.546 15.676 21.374 13.504C20.287 12.417 18.864 11.874 17.44 11.874Z" fill="#333333"/>
<path d="M12.7989 12.796C14.0389 11.556 15.6869 10.874 17.4399 10.874C17.6569 10.874 17.8719 10.885 18.0849 10.905V9.41501V5.82201L13.3629 1.10001H2.97494C1.93594 1.10001 1.08594 1.95001 1.08594 2.98901V19.989C1.08594 21.028 1.93594 21.878 2.97494 21.878H9.01294H10.1579H12.6189C10.2489 19.307 10.3049 15.291 12.7989 12.796Z" fill="#6D6F71"/>
<path d="M20.141 16.537H16.541H15.869H14.742C14.202 16.537 13.842 16.897 13.842 17.438C13.842 17.978 14.202 18.338 14.742 18.338H16.541L18.336 18.342L18.304 18.31L18.342 18.337H20.141C20.681 18.337 21.042 17.977 21.042 17.437C21.042 16.897 20.681 16.537 20.141 16.537Z" fill="white"/>
<path d="M18.3445 20.1385L18.3445 16.5385L18.3445 15.8665L18.3445 14.7395C18.3445 14.1995 17.9845 13.8395 17.4435 13.8395C16.9035 13.8395 16.5435 14.1995 16.5435 14.7395L16.5435 16.5385L16.5395 18.3335L16.5715 18.3015L16.5445 18.3395L16.5445 20.1385C16.5445 20.6785 16.9045 21.0395 17.4445 21.0395C17.9845 21.0395 18.3445 20.6785 18.3445 20.1385Z" fill="white"/>
<path d="M13.3841 7.27146L7.85409 12.8415L5.71409 10.6915C5.62085 10.5982 5.51016 10.5243 5.38834 10.4738C5.26652 10.4233 5.13595 10.3974 5.00409 10.3974C4.87223 10.3974 4.74166 10.4233 4.61984 10.4738C4.49802 10.5243 4.38733 10.5982 4.29409 10.6915C4.20085 10.7847 4.12689 10.8954 4.07643 11.0172C4.02597 11.139 4 11.2696 4 11.4015C4 11.5333 4.02597 11.6639 4.07643 11.7857C4.12689 11.9075 4.20085 12.0182 4.29409 12.1115L7.81409 15.6315L14.7541 8.69146C14.8478 8.59849 14.9222 8.48789 14.973 8.36603C15.0238 8.24417 15.0499 8.11347 15.0499 7.98146C15.0499 7.84945 15.0238 7.71874 14.973 7.59688C14.9222 7.47502 14.8478 7.36442 14.7541 7.27146C14.5686 7.09708 14.3237 7 14.0691 7C13.8145 7 13.5696 7.09708 13.3841 7.27146V7.27146Z" fill="white"/>
</svg>
