<svg width="24" height="24" viewBox="0 0 24 24" fill="none" xmlns="http://www.w3.org/2000/svg">
<path d="M17.44 11.874C16.016 11.874 14.593 12.417 13.506 13.503C11.334 15.675 11.334 19.198 13.506 21.37C14.593 22.457 16.016 23 17.44 23C18.864 23 20.287 22.457 21.374 21.371C23.546 19.199 23.546 15.676 21.374 13.504C20.287 12.417 18.864 11.874 17.44 11.874Z" fill="#333333"/>
<path d="M12.7989 12.796C14.0389 11.556 15.6869 10.874 17.4399 10.874C17.6569 10.874 17.8719 10.885 18.0849 10.905V9.41501V5.82201L13.3629 1.10001H2.97494C1.93594 1.10001 1.08594 1.95001 1.08594 2.98901V19.989C1.08594 21.028 1.93594 21.878 2.97494 21.878H9.01294H10.1579H12.6189C10.2489 19.307 10.3049 15.291 12.7989 12.796Z" fill="#6D6F71"/>
<path d="M20.141 16.537H16.541H15.869H14.742C14.202 16.537 13.842 16.897 13.842 17.438C13.842 17.978 14.202 18.338 14.742 18.338H16.541L18.336 18.342L18.304 18.31L18.342 18.337H20.141C20.681 18.337 21.042 17.977 21.042 17.437C21.042 16.897 20.681 16.537 20.141 16.537Z" fill="white"/>
<path d="M18.3445 20.1385L18.3445 16.5385L18.3445 15.8665L18.3445 14.7395C18.3445 14.1995 17.9845 13.8395 17.4435 13.8395C16.9035 13.8395 16.5435 14.1995 16.5435 14.7395L16.5435 16.5385L16.5395 18.3335L16.5715 18.3015L16.5445 18.3395L16.5445 20.1385C16.5445 20.6785 16.9045 21.0395 17.4445 21.0395C17.9845 21.0395 18.3445 20.6785 18.3445 20.1385Z" fill="white"/>
<path d="M3.90095 6.80499L7.50095 6.80499L8.17295 6.80499L9.29995 6.80499C9.83995 6.80499 10.2 6.44499 10.2 5.90399C10.2 5.36399 9.83995 5.00399 9.29995 5.00399L7.50095 5.00399L5.70595 4.99999L5.73795 5.03199L5.69995 5.00499L3.90095 5.00499C3.36095 5.00499 2.99995 5.36499 2.99995 5.90499C2.99995 6.44499 3.36095 6.80499 3.90095 6.80499Z" fill="white"/>
<path d="M3.89975 10.805L7.49975 10.805L8.17175 10.805L13.6 10.805C14.14 10.805 14.5 10.445 14.5 9.90399C14.5 9.36399 14.14 9.00399 13.6 9.00399L7.49975 9.00399L5.70475 8.99999L5.73675 9.03199L5.69875 9.00499L3.89975 9.00499C3.35975 9.00499 2.99875 9.36499 2.99875 9.90499C2.99875 10.445 3.35975 10.805 3.89975 10.805Z" fill="white"/>
<path d="M3.8995 14.8049L7.49951 14.8049L8.17151 14.8049L9.31422 14.8049C9.85422 14.8049 10.2142 14.4449 10.2142 13.9039C10.2142 13.3639 9.85422 13.0039 9.31422 13.0039L7.49951 13.0039L5.7045 12.9999L5.7365 13.0319L5.69851 13.0049L3.8995 13.0049C3.3595 13.0049 2.99851 13.3649 2.99851 13.9049C2.99851 14.4449 3.3595 14.8049 3.8995 14.8049Z" fill="white"/>
</svg>
