<svg width="33" height="33" viewBox="0 0 33 33" fill="none" xmlns="http://www.w3.org/2000/svg">
<path d="M32.5 16.5C32.5 25.3774 25.3774 32.5 16.5 32.5C7.62258 32.5 0.5 25.3774 0.5 16.5C0.5 7.62258 7.62258 0.5 16.5 0.5C25.3774 0.5 32.5 7.62258 32.5 16.5Z" stroke="white"/>
<path d="M32.5 16.5C32.5 25.3774 25.3774 32.5 16.5 32.5C7.62258 32.5 0.5 25.3774 0.5 16.5C0.5 7.62258 7.62258 0.5 16.5 0.5C25.3774 0.5 32.5 7.62258 32.5 16.5Z" stroke="white"/>
<path d="M20.629 7.20968H12.3709C11.2354 7.20968 10.3064 8.13871 10.3064 9.27419V10.8226C13.1967 11.1323 15.4677 13.5065 15.4677 16.5C15.4677 19.4935 13.1967 21.8677 10.3064 22.1774V23.7258C10.3064 24.8613 11.2354 25.7903 12.3709 25.7903H22.6935C23.829 25.7903 24.758 24.8613 24.758 23.7258V11.3387L20.629 7.20968Z" fill="white"/>
<path d="M9.79042 11.8548C7.20978 11.8548 5.14526 13.9194 5.14526 16.5C5.14526 19.0806 7.20978 21.1452 9.79042 21.1452C12.3711 21.1452 14.4356 19.0806 14.4356 16.5C14.4356 13.9194 12.3711 11.8548 9.79042 11.8548ZM10.3066 18.8742C10.1001 19.0806 9.89365 19.0806 9.6872 18.8742C9.48075 18.6677 9.48075 18.4613 9.6872 18.3581L11.1324 16.9129H7.93236C7.72591 16.9129 7.51946 16.8097 7.51946 16.5C7.51946 16.1903 7.72591 16.0871 7.93236 16.0871H11.1324L9.6872 14.6419C9.48075 14.4355 9.48075 14.229 9.6872 14.1258C9.89365 13.9194 10.1001 13.9194 10.3066 14.1258L12.6807 16.5L10.3066 18.8742Z" fill="white"/>
</svg>
