<svg width="32" height="32" viewBox="0 0 32 32" fill="none" xmlns="http://www.w3.org/2000/svg">
<path d="M16 0.888889C24.3556 0.888889 31.1111 7.64444 31.1111 16C31.1111 24.3556 24.3556 31.1111 16 31.1111C7.64444 31.1111 0.888889 24.3556 0.888889 16C0.888889 7.64444 7.64444 0.888889 16 0.888889ZM16 0C7.2 0 0 7.2 0 16C0 24.8 7.2 32 16 32C24.8 32 32 24.8 32 16C32 7.2 24.8 0 16 0Z" fill="white"/>
<path d="M16 27.1111C11.3778 27.1111 7.28887 24.2667 5.59998 19.9111C5.51109 19.6444 5.59998 19.4667 5.86665 19.3778C6.13332 19.2889 6.31109 19.3778 6.48887 19.6444C7.99998 23.6444 11.8222 26.2222 16.0889 26.2222C21.7778 26.2222 26.3111 21.6889 26.3111 16C26.3111 10.3111 21.6889 5.77778 16 5.77778C15.7333 5.77778 15.5555 5.6 15.5555 5.33333C15.5555 5.06667 15.7333 4.88889 16 4.88889C22.1333 4.88889 27.1111 9.86667 27.1111 16C27.1111 22.1333 22.1333 27.1111 16 27.1111Z" fill="white" stroke="white" stroke-width="0.75"/>
<path d="M10.2223 20.8889L5.77789 16L3.55566 22.2222L10.2223 20.8889Z" fill="white"/>
<path d="M23.2001 10.6667C22.6667 10.7556 22.1334 10.9333 21.7778 11.2C20.6223 12.0889 19.289 12.6222 17.8667 12.8C16.9778 12.7111 16.1778 12.2667 15.4667 11.7333C15.1112 11.5556 15.1112 11.4667 15.289 11.4667C15.6445 11.4667 16.8001 11.7333 17.6001 11.7333C17.9556 11.7333 18.3112 11.6444 18.3112 11.4667C18.6667 10.5778 17.4223 10.3111 16.089 9.77778C15.1112 9.33333 14.0445 9.15555 12.889 9.06667C12.4445 9.06667 12.0001 9.15555 11.5556 9.24444C10.4001 9.6 9.42229 9.86667 8.71118 10.0444V14.9333C9.15563 14.7556 9.60007 14.6667 10.0445 14.6667C11.0223 14.6667 14.7556 15.9111 16.9778 15.9111C17.2445 15.9111 17.5112 15.9111 17.7778 15.8222C19.6445 15.3778 22.7556 12.8 23.6445 11.9111C23.9112 11.6444 23.9112 11.2 23.6445 10.8444C23.6445 10.7556 23.4667 10.6667 23.2001 10.6667Z" fill="white"/>
<path d="M7.99992 14.4V14.5778C7.99992 14.8444 7.82215 15.1111 7.55548 15.1111H6.84437C6.5777 15.1111 6.31104 14.8444 6.31104 14.5778V10.3111C6.31104 10.0444 6.48881 9.77778 6.75548 9.77778H7.46659C7.82215 9.77778 7.99992 10.0444 7.99992 10.3111V14.4Z" fill="white"/>
</svg>
