<svg width="32" height="32" viewBox="0 0 32 32" fill="none" xmlns="http://www.w3.org/2000/svg">
<path d="M24.025 23.125L20.2 19.375C21.325 18.1 22 16.375 22 14.5C22 10.375 18.625 7 14.5 7C10.375 7 7 10.375 7 14.5C7 18.625 10.375 22 14.5 22C16.225 22 17.8 21.4 19.075 20.425L22.975 24.25C23.125 24.4 23.275 24.475 23.5 24.475C23.725 24.475 23.875 24.4 24.025 24.25C24.325 23.875 24.325 23.425 24.025 23.125ZM14.5 20.5C11.2 20.5 8.5 17.8 8.5 14.5C8.5 11.2 11.2 8.5 14.5 8.5C17.8 8.5 20.5 11.2 20.5 14.5C20.5 17.8 17.8 20.5 14.5 20.5Z" fill="white"/>
<path d="M16 0.888889C24.3556 0.888889 31.1111 7.64444 31.1111 16C31.1111 24.3556 24.3556 31.1111 16 31.1111C7.64444 31.1111 0.888889 24.3556 0.888889 16C0.888889 7.64444 7.64444 0.888889 16 0.888889ZM16 0C7.2 0 0 7.2 0 16C0 24.8 7.2 32 16 32C24.8 32 32 24.8 32 16C32 7.2 24.8 0 16 0Z" fill="white"/>
</svg>
