<svg width="32" height="32" viewBox="0 0 32 32" fill="none" xmlns="http://www.w3.org/2000/svg">
<path d="M31.5 16C31.5 24.6 24.6 31.5 16 31.5C7.4 31.5 0.5 24.6 0.5 16C0.5 7.4 7.4 0.5 16 0.5C24.6 0.5 31.5 7.4 31.5 16Z" stroke="white"/>
<path d="M24.6999 9.80001L20.1999 5.30001L19.7999 5.10001H19.3999H10.4999C8.4999 5.10001 6.8999 6.70001 6.8999 8.70001V23.1C6.8999 25.1 8.4999 26.7 10.4999 26.7H21.2999C23.2999 26.7 24.8999 25.1 24.8999 23.1V10.6V10.2L24.6999 9.80001ZM21.4999 22.2H14.7999C14.5999 22.1 14.2999 21.9 14.3999 21.2V21.1C14.2999 21.2 14.0999 21.3 13.9999 21.6L13.7999 22C13.5999 22.3 13.3999 22.5 13.1999 22.8C13.0999 22.9 12.7999 23.1 12.5999 23.1H12.4999C12.0999 23.1 11.6999 22.7 11.5999 22.4C11.3999 21.8 11.5999 21.2 11.6999 20.6C11.7999 20.4 11.7999 20.2 11.8999 20C11.6999 20 11.4999 20.1 11.3999 20.3C10.9999 20.7 10.8999 21.1 10.6999 21.6C10.4999 22 10.3999 22.4 10.1999 22.8C10.0999 23 9.7999 23.1 9.5999 22.9C9.3999 22.7 9.2999 22.5 9.4999 22.3C9.6999 22 9.7999 21.7 9.8999 21.3C10.0999 20.7 10.2999 20.1 10.8999 19.6C11.2999 19.2 11.7999 19.1 12.1999 19.2C12.3999 19.2 12.5999 19.3 12.5999 19.5C12.7999 19.7 12.7999 19.9 12.6999 20C12.6999 20.4 12.5999 20.6 12.4999 21C12.3999 21.4 12.1999 22 12.3999 22.3C12.3999 22.4 12.4999 22.4 12.4999 22.4C12.4999 22.4 12.4999 22.4 12.5999 22.3C12.7999 22.1 12.9999 21.9 13.0999 21.7C13.1999 21.6 13.1999 21.5 13.2999 21.4C13.6999 20.8 14.0999 20.5 14.4999 20.4C14.6999 20.4 14.8999 20.4 15.0999 20.6C15.4999 20.9 15.3999 21.3 15.3999 21.5H21.6999C21.9999 21.5 22.0999 21.7 22.0999 21.9C21.9999 22 21.7999 22.2 21.4999 22.2ZM21.8999 16.1H9.8999C9.5999 16.1 9.4999 15.9 9.4999 15.7C9.4999 15.4 9.6999 15.3 9.8999 15.3H21.8999C22.1999 15.3 22.2999 15.5 22.2999 15.7C22.2999 15.9 22.0999 16.1 21.8999 16.1ZM22.1999 11.6H10.1999C9.8999 11.6 9.7999 11.4 9.7999 11.2C9.7999 10.9 9.9999 10.8 10.1999 10.8H22.1999C22.4999 10.8 22.5999 11 22.5999 11.2C22.6999 11.4 22.4999 11.6 22.1999 11.6Z" fill="white"/>
</svg>
