<svg width="32" height="32" viewBox="0 0 32 32" fill="none" xmlns="http://www.w3.org/2000/svg">
<path d="M16 0.888889C24.3556 0.888889 31.1111 7.64444 31.1111 16C31.1111 24.3556 24.3556 31.1111 16 31.1111C7.64444 31.1111 0.888889 24.3556 0.888889 16C0.888889 7.64444 7.64444 0.888889 16 0.888889ZM16 0C7.2 0 0 7.2 0 16C0 24.8 7.2 32 16 32C24.8 32 32 24.8 32 16C32 7.2 24.8 0 16 0Z" fill="white"/>
<path d="M20.7413 5.29271L16.3355 7.05637L18.0941 11.4617C18.2862 11.9601 18.8327 12.1861 19.3312 11.9933C19.479 11.9377 19.6225 11.8439 19.7236 11.7165C19.9257 11.4617 20.0006 11.1059 19.8472 10.7765L19.2283 9.24761C21.6863 10.5057 23.3451 13.0327 23.4018 15.8802C23.4859 19.303 21.2805 22.4318 18.0014 23.4286C17.4985 23.5832 17.2128 24.1177 17.3668 24.6206C17.5209 25.1234 18.0549 25.4087 18.5578 25.254C20.4382 24.6699 22.0247 23.5412 23.2039 22.0548C24.5683 20.3348 25.3557 18.1223 25.284 15.8165C25.1868 12.2795 23.1494 9.14067 20.1149 7.56365L21.3864 7.05001C21.8848 6.8573 22.1113 6.3104 21.9192 5.81197C21.7695 5.34721 21.2398 5.09999 20.7413 5.29271Z" fill="white"/>
<path d="M11.9531 20.3249C11.4972 20.5514 11.292 21.1151 11.5009 21.5921L12.0677 22.8372C9.7035 21.5505 8.10894 19.0755 8.03984 16.288C7.9558 12.866 10.1606 9.73684 13.4385 8.73856C13.9412 8.58369 14.2268 8.04919 14.0728 7.54656C13.9188 7.04393 13.385 6.759 12.8823 6.91387C8.80606 8.17853 6.03312 12.0678 6.15828 16.3526C6.24293 19.948 8.38565 23.1691 11.55 24.7097L10.123 25.3769C9.64594 25.5867 9.44073 26.1504 9.64964 26.6273C9.85854 27.1043 10.4217 27.3087 10.8988 27.099L15.2008 25.114L13.2234 20.8133C12.9933 20.3195 12.4302 20.1151 11.9531 20.3249Z" fill="white"/>
</svg>
