<svg width="15" height="14" viewBox="0 0 15 14" fill="none" xmlns="http://www.w3.org/2000/svg">
<path d="M14 2H13V1C13 0.45 12.55 0 12 0C11.45 0 11 0.45 11 1V2H4V1C4 0.45 3.55 0 3 0C2.45 0 2 0.45 2 1V2H1C0.448 2 0 2.448 0 3V13C0 13.552 0.448 14 1 14H14C14.552 14 15 13.552 15 13V3C15 2.448 14.552 2 14 2Z" fill="#565656"/>
<path d="M4 4H2V6H4V4Z" fill="white"/>
<path d="M7 4H5V6H7V4Z" fill="white"/>
<path d="M10 4H8V6H10V4Z" fill="white"/>
<path d="M13 4H11V6H13V4Z" fill="white"/>
<path d="M4 7H2V9H4V7Z" fill="white"/>
<path d="M7 7H5V9H7V7Z" fill="white"/>
<path d="M10 7H8V9H10V7Z" fill="white"/>
<path d="M13 7H11V9H13V7Z" fill="white"/>
<path d="M4 10H2V12H4V10Z" fill="white"/>
<path d="M7 10H5V12H7V10Z" fill="white"/>
<path d="M10 10H8V12H10V10Z" fill="white"/>
</svg>
