<svg width="16" height="16" viewBox="0 0 16 16" fill="none" xmlns="http://www.w3.org/2000/svg">
<path d="M5.2192 13.5703L0.293203 8.64529C0.105562 8.45778 9.38418e-05 8.20341 7.36205e-08 7.93814C-4.63557e-05 7.80679 0.0257787 7.67672 0.0760006 7.55535C0.126223 7.43399 0.199858 7.3237 0.292703 7.23079C0.385547 7.13788 0.495783 7.06416 0.617115 7.01386C0.738447 6.96355 0.868501 6.93763 0.999849 6.93759C1.26512 6.93749 1.51956 7.04278 1.7072 7.23029L5.2192 10.7423L13.6552 2.30529C13.7474 2.20978 13.8578 2.1336 13.9798 2.08119C14.1018 2.02878 14.233 2.00119 14.3658 2.00004C14.4986 1.99888 14.6303 2.02419 14.7532 2.07447C14.8761 2.12475 14.9877 2.199 15.0816 2.29289C15.1755 2.38679 15.2497 2.49844 15.3 2.62133C15.3503 2.74423 15.3756 2.87591 15.3745 3.00869C15.3733 3.14147 15.3457 3.27269 15.2933 3.39469C15.2409 3.5167 15.1647 3.62704 15.0692 3.71929L5.2192 13.5703Z" fill="#333333"/>
</svg>
