<svg width="32" height="32" viewBox="0 0 32 32" fill="none" xmlns="http://www.w3.org/2000/svg">
<path fill-rule="evenodd" clip-rule="evenodd" d="M20.93 8.85768C20.93 10.4294 17.64 11.7154 14 11.7154C10.36 11.7154 7.07 10.4294 7.07 8.85768C7.07 7.28596 10.36 6 14 6C17.64 6 20.93 7.28596 20.93 8.85768ZM7 13.268V10.5532C7 10.5532 8.26 12.6965 14 12.6965C19.74 12.6965 21 10.5532 21 10.5532V13.268C21 13.268 20.9401 13.3759 20.7824 13.5432C20.5255 13.5147 20.2645 13.5 20 13.5C18.155 13.5 16.4767 14.2138 15.2262 15.3804C14.863 15.4005 14.478 15.4113 14.07 15.4113C8.33 15.4113 7 13.268 7 13.268ZM14.2621 16.4893C14.1758 16.4903 14.0884 16.4909 14 16.4909C8.26 16.4909 7 14.3476 7 14.3476V17.0624C7 17.0624 8.18149 18.9663 13.1233 19.1852C13.311 18.1974 13.7063 17.283 14.2621 16.4893ZM13.004 20.2625C8.11174 20.033 7 18.1419 7 18.1419V20.8567C7 20.8567 8.23428 22.8458 13.4564 22.9916C13.1615 22.2175 13 21.3776 13 20.5C13 20.4205 13.0013 20.3413 13.004 20.2625Z" fill="#333333"/>
<path d="M24.0634 24.4141H23.1681C24.3189 23.464 24.9996 22.0189 24.9996 20.5004C24.9996 17.966 23.1574 15.8184 20.7154 15.505C20.6917 15.5017 20.6681 15.5 20.6436 15.5C20.3791 15.5 20.1547 15.7042 20.1212 15.9759C20.0853 16.2726 20.2918 16.5451 20.5832 16.5826C22.4947 16.8276 23.9361 18.5119 23.9361 20.5004C23.9361 21.8597 23.2848 23.0881 22.187 23.8157V22.4981C22.187 22.1989 21.9487 21.9547 21.6548 21.9547C21.3618 21.9547 21.1235 22.1981 21.1235 22.4981V25.4183V25.5H21.2035H24.0634C24.3564 25.5 24.5948 25.2566 24.5948 24.9575C24.5956 24.6574 24.3572 24.4141 24.0634 24.4141Z" fill="#333333"/>
<path d="M19.4175 24.4181C17.5051 24.1731 16.0637 22.4888 16.0637 20.5003C16.0637 19.141 16.7151 17.9126 17.8128 17.185V18.5026C17.8128 18.8018 18.0512 19.0452 18.345 19.0452C18.638 19.0452 18.8772 18.8018 18.8772 18.5026V15.5824V15.5007H18.7964H15.9364C15.6434 15.5007 15.4043 15.7441 15.4043 16.0441C15.4043 16.3433 15.6426 16.5867 15.9364 16.5867H16.8318C15.6809 17.5367 15.0002 18.9819 15.0002 20.5003C15.0002 23.0347 16.8424 25.1824 19.2844 25.4957C19.3073 25.4982 19.3293 25.4999 19.3514 25.4999C19.6183 25.4999 19.8452 25.2957 19.8786 25.0249C19.9154 24.7273 19.708 24.4556 19.4175 24.4181Z" fill="#333333"/>
</svg>
