<svg width="16" height="16" viewBox="0 0 16 16" fill="none" xmlns="http://www.w3.org/2000/svg">
<path d="M14.8504 9.14965C15.4853 9.14965 16 8.63493 16 8C16 7.36507 15.4853 6.85035 14.8504 6.85035H13.6218C13.4677 6.12301 13.1772 5.44702 12.7764 4.84997L13.6566 3.96973C14.1056 3.5208 14.1057 2.79297 13.6568 2.34394C13.2079 1.89475 12.4797 1.89467 12.0307 2.34374L11.1385 3.23587C10.5422 2.84652 9.87162 2.56218 9.14965 2.41502V1.14964C9.14965 0.514713 8.63493 0 8 0C7.36507 0 6.85035 0.514714 6.85035 1.14965V2.41502C6.12838 2.56141 5.45775 2.84576 4.86147 3.23587L3.96905 2.34345C3.5201 1.89451 2.79222 1.89451 2.34327 2.34345C1.89439 2.79233 1.89431 3.52007 2.34308 3.96905L3.22361 4.84997C2.82353 5.44702 2.53305 6.12301 2.37823 6.85035H1.14964C0.514713 6.85035 0 7.36507 0 8C0 8.63493 0.514714 9.14965 1.14965 9.14965H2.35984C2.50393 9.88925 2.78981 10.5775 3.18758 11.1868L2.34336 12.031C1.89446 12.4799 1.89446 13.2077 2.34336 13.6566C2.79226 14.1055 3.52006 14.1055 3.96896 13.6566L4.80169 12.8239C5.41177 13.2332 6.10462 13.529 6.85035 13.6808V14.8504C6.85035 15.4853 7.36507 16 8 16C8.63493 16 9.14965 15.4853 9.14965 14.8504V13.6808C9.89538 13.529 10.5882 13.2332 11.1983 12.8239L12.031 13.6566C12.4799 14.1055 13.2077 14.1055 13.6566 13.6566C14.1055 13.2077 14.1055 12.4799 13.6566 12.031L12.8124 11.1868C13.2102 10.5775 13.4968 9.89002 13.6402 9.14965H14.8504ZM8 11.4965C6.09849 11.4965 4.55106 9.94903 4.55106 8.04752C4.55106 6.14601 6.09849 4.59858 8 4.59858C9.90151 4.59858 11.4489 6.14601 11.4489 8.04752C11.4489 9.94903 9.90151 11.4965 8 11.4965Z" fill="#333333"/>
</svg>
