<svg width="24" height="24" viewBox="0 0 24 24" fill="none" xmlns="http://www.w3.org/2000/svg">
<g clip-path="url(#clip0)">
<path d="M11.9999 3C14.3526 2.99942 16.612 3.92013 18.2942 5.56494C19.9764 7.20975 20.9477 9.44788 20.9999 11.8L22.5999 10.3C22.7659 10.1544 22.9792 10.0742 23.1999 10.0742C23.4207 10.0742 23.634 10.1544 23.7999 10.3C23.9453 10.4462 24.0269 10.6439 24.0269 10.85C24.0269 11.0561 23.9453 11.2538 23.7999 11.4L19.9999 15.1L16.2999 11.4C16.2123 11.3252 16.1406 11.2335 16.089 11.1305C16.0375 11.0274 16.0072 10.915 15.9999 10.8C16.0207 10.5875 16.089 10.3824 16.1999 10.2C16.3461 10.0547 16.5438 9.97308 16.7499 9.97308C16.9561 9.97308 17.1538 10.0547 17.2999 10.2L18.9999 11.9C18.9559 10.0666 18.2012 8.32202 16.8951 7.03459C15.589 5.74717 13.8338 5.01763 11.9999 5C10.1434 5 8.36294 5.7375 7.05019 7.05025C5.73743 8.36301 4.99994 10.1435 4.99994 12C4.99994 13.8565 5.73743 15.637 7.05019 16.9497C8.36294 18.2625 10.1434 19 11.9999 19C13.7104 19.0287 15.3632 18.3819 16.5999 17.2C16.8125 17.0749 17.0534 17.0061 17.2999 17C17.4335 16.9912 17.5675 17.011 17.6928 17.0581C17.8182 17.1052 17.932 17.1786 18.0267 17.2733C18.1214 17.368 18.1947 17.4818 18.2418 17.6071C18.289 17.7324 18.3088 17.8664 18.2999 18C18.3139 18.1326 18.2937 18.2666 18.2412 18.3891C18.1887 18.5117 18.1056 18.6187 17.9999 18.7C16.3603 20.1939 14.218 21.0151 11.9999 21C9.61299 21 7.3238 20.0518 5.63598 18.364C3.94815 16.6761 2.99994 14.3869 2.99994 12C2.99994 9.61305 3.94815 7.32387 5.63598 5.63604C7.3238 3.94821 9.61299 3 11.9999 3Z" fill="#666666"/>
</g>
<defs>
<clipPath id="clip0">
<rect width="24" height="24" fill="white" transform="matrix(-1 0 0 1 24 0)"/>
</clipPath>
</defs>
</svg>
