<svg width="24" height="24" viewBox="0 0 24 24" fill="none" xmlns="http://www.w3.org/2000/svg">
<path d="M12 0.5C5.659 0.5 0.5 5.659 0.5 12C0.5 18.341 5.659 23.5 12 23.5C18.341 23.5 23.5 18.341 23.5 12C23.5 5.659 18.341 0.5 12 0.5Z" fill="white"/>
<path d="M12 23C5.935 23 1 18.065 1 12C1 5.935 5.935 1 12 1C18.065 1 23 5.935 23 12C23 18.065 18.065 23 12 23ZM12 24C18.627 24 24 18.627 24 12C24 5.373 18.627 0 12 0C5.373 0 0 5.373 0 12C0 18.627 5.373 24 12 24Z" fill="#333333"/>
<path d="M16.286 15.214C15.887 15.214 15.511 15.059 15.227 14.777L12 11.549L8.77499 14.775C8.49099 15.058 8.11499 15.213 7.71399 15.213C7.31499 15.213 6.93799 15.058 6.65499 14.776C6.06799 14.187 6.06899 13.236 6.65499 12.652L12 7.30701L17.347 12.655C17.629 12.936 17.785 13.312 17.786 13.714C17.787 14.116 17.631 14.492 17.347 14.777C17.063 15.059 16.688 15.214 16.286 15.214Z" fill="#333333"/>
</svg>
