<svg width="24" height="24" viewBox="0 0 24 24" fill="none" xmlns="http://www.w3.org/2000/svg">
<path fill-rule="evenodd" clip-rule="evenodd" d="M8.70262 16.6512C8.21447 17.1163 7.42303 17.1163 6.93489 16.6512L2 11.9499L6.82969 7.34878C7.31784 6.88374 8.10928 6.88374 8.59742 7.34878C9.08557 7.81382 9.08557 8.56781 8.59742 9.03285L5.53546 11.9499L8.70262 14.9672C9.19076 15.4322 9.19076 16.1862 8.70262 16.6512Z" fill="#333333"/>
<path fill-rule="evenodd" clip-rule="evenodd" d="M15.2974 16.6512C15.7855 17.1163 16.577 17.1163 17.0651 16.6512L22 11.9499L17.1703 7.34878C16.6822 6.88374 15.8907 6.88374 15.4026 7.34878C14.9144 7.81382 14.9144 8.56781 15.4026 9.03285L18.4645 11.9499L15.2974 14.9672C14.8092 15.4322 14.8092 16.1862 15.2974 16.6512Z" fill="#333333"/>
<path fill-rule="evenodd" clip-rule="evenodd" d="M18.2488 10.9724H5.74902V9.18616H18.2488V10.9724Z" fill="#333333"/>
<path fill-rule="evenodd" clip-rule="evenodd" d="M18.2488 14.5448H5.74902V12.7585H18.2488V14.5448Z" fill="#333333"/>
</svg>
