<svg width="19" height="24" viewBox="0 0 19 24" fill="none" xmlns="http://www.w3.org/2000/svg">
<path d="M8.21985 3.84042C7.41134 3.84042 6.73758 4.51418 6.73758 5.32269C6.73758 6.1312 7.41134 6.80496 8.21985 6.80496C9.02836 6.80496 9.70212 6.1312 9.70212 5.32269C9.70212 4.51418 9.02836 3.84042 8.21985 3.84042Z" fill="#666666"/>
<path d="M13.6099 0H1.81915C0.808511 0 0 0.875886 0 1.88652V19.0674C0 20.1454 0.808511 20.9539 1.81915 20.9539H8.48936C7.95035 20.0106 7.61347 19 7.61347 17.8546C7.61347 14.4858 10.3759 11.7908 13.6773 11.7908C14.6206 11.7908 15.4965 11.9929 16.305 12.3972V2.82979L13.6099 0ZM9.97163 10.1738L9.63475 12.3298L8.28723 9.36525L6.93972 12.3298L6.53546 10.1738L4.58156 11.1844L6.19858 7.68085C5.92908 7.5461 5.65957 7.47872 5.52482 7.2766C5.32269 7.00709 5.39007 6.53546 5.25532 6.26596C5.05319 5.99645 4.78369 5.72695 4.78369 5.3227C4.78369 4.91844 5.12057 4.64894 5.18794 4.31206C5.32269 4.04255 5.25532 3.57092 5.45745 3.30142C5.65957 3.03191 6.06383 2.96454 6.33333 2.76241C6.60284 2.56028 6.80496 2.15603 7.14184 2.08865C7.47872 1.9539 7.88298 2.15603 8.21986 2.15603C8.55674 2.15603 8.96099 1.9539 9.29787 2.08865C9.63475 2.2234 9.83688 2.56028 10.1064 2.76241C10.3759 2.96454 10.8475 3.03191 11.0496 3.30142C11.2518 3.57092 11.1844 4.04255 11.3191 4.31206C11.4539 4.64894 11.7234 4.91844 11.7234 5.3227C11.7234 5.65957 11.3865 5.99645 11.3191 6.33333C11.1844 6.67021 11.2518 7.07447 11.0496 7.34397C10.9149 7.5461 10.6454 7.61348 10.3759 7.74823L11.9929 11.2518L9.97163 10.1738Z" fill="#666666"/>
<path d="M13.6773 12.5319C10.7128 12.5319 8.35461 14.9575 8.35461 17.8546C8.35461 20.7518 10.7801 23.1773 13.6773 23.1773C16.6418 23.1773 19 20.7518 19 17.8546C19 14.9575 16.6418 12.5319 13.6773 12.5319ZM13.6773 21.9645C13.2731 21.9645 13.0036 21.6277 13.0036 21.2908C13.0036 20.8865 13.3404 20.617 13.6773 20.617C14.0816 20.617 14.3511 20.9539 14.3511 21.2908C14.4184 21.6277 14.0816 21.9645 13.6773 21.9645ZM14.4184 18.7979C14.4184 19.1348 14.0816 19.4043 13.7447 19.4043C13.4078 19.4043 13.0709 19.1348 13.0709 18.7979V14.4858C13.0709 14.1489 13.4078 13.8794 13.7447 13.8794C14.0816 13.8794 14.4184 14.1489 14.4184 14.4858V18.7979Z" fill="#949494"/>
</svg>
