<svg width="28" height="24" viewBox="0 0 28 24" fill="none" xmlns="http://www.w3.org/2000/svg">
<path d="M19.1 0.700024C19.1 0.700024 10.3 0.400024 8.69997 0.400024C7.09997 0.400024 6.39997 2.00002 6.19997 2.90002C5.99997 3.80002 6.19997 20.5 6.19997 20.5L7.99997 21.9L21.9 21.8L23.4 20.1L23.5 4.60002L19.1 0.700024Z" fill="white"/>
<path d="M21 22.2H8.5C7 22.2 5.5 21 5.5 19.4V2.8C5.5 1.2 7 0 8.5 0H19.4L24 4.6V19.4C24 20.9 22.5 22.2 21 22.2ZM8.5 0.9C7.4 0.9 6.4 1.6 6.4 2.7V19.3C6.4 20.4 7.3 21.1 8.5 21.1H21C22.1 21.1 23.1 20.4 23.1 19.3V4.6L19.4 0.9H8.5V0.9Z" fill="#5C707D"/>
<path opacity="0.5" d="M19.4 0.900024V4.60002H23.1L19.4 0.900024Z" fill="#5C707D"/>
<path d="M11.1 2.79999H8.29999V3.69999H11.1V2.79999Z" fill="#5C707D"/>
<path d="M13.8 4.59998H8.29999V5.49998H13.8V4.59998Z" fill="#5C707D"/>
<path d="M18.3879 17.9957H21.1879V17.0957H18.3879V17.9957Z" fill="#333333"/>
<path d="M15.7171 19.89H21.2171V18.99H15.7171V19.89Z" fill="#5C707D"/>
<path d="M21.2 7.90002H8.29999V8.80002H21.2V7.90002Z" fill="#5C707D"/>
<path d="M21.2 9.70001H8.29999V10.6H21.2V9.70001Z" fill="#5C707D"/>
<path d="M21.2 11.5H8.29999V12.4H21.2V11.5Z" fill="#5C707D"/>
<path d="M11.1 15.8C10.4 15.8 9.79999 16.4 9.79999 17.1C9.79999 17.8 10.4 18.4 11.1 18.4C11.8 18.4 12.4 17.8 12.4 17.1C12.5 16.4 11.9 15.8 11.1 15.8Z" fill="#5C707D"/>
<path d="M13.8 16.3C13.7 16 13.4 15.9 13.2 15.7C13 15.4 13 15 12.8 14.9C12.6 14.7 12.2 14.8 11.9 14.7C11.6 14.6 11.4 14.3 11.1 14.3C10.8 14.3 10.6 14.6 10.3 14.7C10 14.8 9.70001 14.7 9.40001 14.9C9.20001 15 9.20001 15.4 9.00001 15.6C8.80001 15.8 8.50001 16 8.40001 16.2C8.30001 16.5 8.50001 16.8 8.50001 17.1C8.50001 17.4 8.30001 17.7 8.40001 18C8.50001 18.3 8.80001 18.4 9.00001 18.6C9.20001 18.8 9.20001 19.2 9.40001 19.4C9.60001 19.6 10 19.5 10.3 19.6C10.6 19.7 10.8 20 11.1 20C11.4 20 11.6 19.7 11.9 19.6C12.2 19.5 12.5 19.6 12.8 19.4C13 19.2 13 18.8 13.2 18.6C13.4 18.4 13.7 18.2 13.8 18C13.9 17.7 13.7 17.4 13.7 17.1C13.7 16.9 13.9 16.5 13.8 16.3ZM11.1 19.2C10 19.2 9.10001 18.3 9.10001 17.2C9.10001 16.1 10 15.2 11.1 15.2C12.2 15.2 13.1 16.1 13.1 17.2C13.2 18.3 12.3 19.2 11.1 19.2Z" fill="#5C707D"/>
<path d="M0 2.79998H3.6V1.89998C3.6 0.899976 2.7 0.0999756 1.8 0.0999756C0.9 0.0999756 0 0.999976 0 1.89998V2.79998Z" fill="#5C707D"/>
<path d="M3.6 4.40002L0 4.50002V19.6L1.8 22.2L3.6 19.6V4.40002Z" fill="#5C707D"/>
<path d="M22.2 23C19.2 23 16.8 20.6 16.8 17.6C16.8 14.6 19.2 12.2 22.2 12.2C25.2 12.2 27.6 14.6 27.6 17.6C27.6 20.6 25.2 23 22.2 23Z" fill="#5C707D"/>
<path d="M22.2 12.6C25 12.6 27.2 14.9 27.2 17.6C27.2 20.3 24.9 22.6 22.2 22.6C19.5 22.6 17.2 20.3 17.2 17.6C17.2 14.9 19.5 12.6 22.2 12.6ZM22.2 11.9C19 11.9 16.4 14.5 16.4 17.7C16.4 20.9 19 23.5 22.2 23.5C25.4 23.5 28 20.9 28 17.7C28 14.5 25.4 11.9 22.2 11.9Z" fill="white"/>
<path d="M22.8 17.7L24.6 15.9C24.8 15.7 24.8 15.5 24.6 15.3C24.4 15.1 24.2 15.1 24 15.3L22.2 17.1L20.4 15.3C20.2 15.1 20 15.1 19.8 15.3C19.6 15.5 19.6 15.7 19.8 15.9L21.6 17.7L19.8 19.5C19.6 19.7 19.6 19.9 19.8 20.1C20 20.3 20.2 20.3 20.4 20.1L22.2 18.3L24 20C24.2 20.2 24.4 20.2 24.6 20C24.8 19.8 24.8 19.6 24.6 19.4L22.8 17.7Z" fill="white"/>
</svg>
