<svg width="25" height="21" viewBox="0 0 25 21" fill="none" xmlns="http://www.w3.org/2000/svg">
<path d="M21.9 0H7.5C6 0 4.8 1 4.5 2.4H18.5C20.7 2.4 22.6 4.2 22.6 6.5V16C24 15.7 25 14.5 25 13V3.1C25 1.4 23.6 0 21.9 0Z" fill="#333333"/>
<path d="M14.5 10.4H12.4V8.3C12.4 7.7 12 7.2 11.3 7.2C10.6 7.2 10.2 7.6 10.2 8.3V10.4H8.1C7.5 10.4 7 10.8 7 11.5C7 12.2 7.4 12.6 8.1 12.6H10.2V14.7C10.2 15.3 10.6 15.8 11.3 15.8C12 15.8 12.4 15.4 12.4 14.7V12.6H14.5C15.1 12.6 15.6 12.2 15.6 11.5C15.6 10.8 15.1 10.4 14.5 10.4Z" fill="white"/>
<path d="M4.1 20C2.1 20 0.5 18.4 0.5 16.4V6.49999C0.5 4.49999 2.1 2.89999 4.1 2.89999H18.5C20.5 2.89999 22.1 4.49999 22.1 6.49999V16.4C22.1 18.4 20.5 20 18.5 20H4.1Z" fill="#333333"/>
<path d="M18.5 3.39999C20.2 3.39999 21.6 4.79999 21.6 6.49999V16.4C21.6 18.1 20.2 19.5 18.5 19.5H4.1C2.4 19.5 1 18.1 1 16.4V6.49999C1 4.79999 2.4 3.39999 4.1 3.39999H18.5ZM18.5 2.39999H4.1C1.8 2.39999 0 4.29999 0 6.49999V16.4C0 18.6 1.8 20.5 4.1 20.5H18.5C20.7 20.5 22.6 18.7 22.6 16.4V6.49999C22.6 4.29999 20.7 2.39999 18.5 2.39999Z" fill="white"/>
<path d="M14.5 10.4H12.4V8.3C12.4 7.7 12 7.2 11.3 7.2C10.6 7.2 10.2 7.6 10.2 8.3V10.4H8.1C7.5 10.4 7 10.8 7 11.5C7 12.2 7.4 12.6 8.1 12.6H10.2V14.7C10.2 15.3 10.6 15.8 11.3 15.8C12 15.8 12.4 15.4 12.4 14.7V12.6H14.5C15.1 12.6 15.6 12.2 15.6 11.5C15.6 10.8 15.1 10.4 14.5 10.4Z" fill="white"/>
</svg>
