<svg width="101" height="77" viewBox="0 0 101 77" fill="none" xmlns="http://www.w3.org/2000/svg">
<path d="M23.968 15.18C23.92 15.612 23.812 16.016 23.644 16.392C23.476 16.76 23.248 17.08 22.96 17.352C22.672 17.624 22.32 17.836 21.904 17.988C21.496 18.14 21.02 18.216 20.476 18.216C19.884 18.216 19.352 18.116 18.88 17.916C18.408 17.716 18.008 17.424 17.68 17.04C17.352 16.656 17.096 16.188 16.912 15.636C16.736 15.076 16.648 14.44 16.648 13.728C16.648 13.008 16.744 12.368 16.936 11.808C17.128 11.248 17.396 10.776 17.74 10.392C18.084 10.008 18.488 9.716 18.952 9.516C19.424 9.316 19.932 9.216 20.476 9.216C21.004 9.216 21.46 9.284 21.844 9.42C22.228 9.556 22.552 9.748 22.816 9.996C23.088 10.244 23.304 10.54 23.464 10.884C23.632 11.228 23.76 11.608 23.848 12.024L22.768 12.204C22.696 11.892 22.6 11.612 22.48 11.364C22.368 11.108 22.22 10.892 22.036 10.716C21.86 10.54 21.644 10.408 21.388 10.32C21.14 10.224 20.836 10.176 20.476 10.176C20.052 10.176 19.672 10.264 19.336 10.44C19.008 10.608 18.728 10.848 18.496 11.16C18.272 11.464 18.1 11.836 17.98 12.276C17.86 12.708 17.8 13.188 17.8 13.716C17.8 14.244 17.86 14.728 17.98 15.168C18.1 15.6 18.272 15.972 18.496 16.284C18.728 16.596 19.008 16.836 19.336 17.004C19.672 17.172 20.056 17.256 20.488 17.256C20.88 17.256 21.212 17.208 21.484 17.112C21.764 17.008 21.992 16.864 22.168 16.68C22.352 16.496 22.496 16.276 22.6 16.02C22.704 15.764 22.78 15.484 22.828 15.18H23.968ZM24.8075 9.432H25.8515V18H24.8075V9.432ZM30.8028 17.148C30.5788 17.42 30.2948 17.656 29.9508 17.856C29.6068 18.048 29.1788 18.144 28.6668 18.144C28.3548 18.144 28.0668 18.104 27.8028 18.024C27.5468 17.952 27.3228 17.84 27.1308 17.688C26.9468 17.528 26.8028 17.332 26.6988 17.1C26.5948 16.868 26.5428 16.596 26.5428 16.284C26.5428 15.86 26.6308 15.516 26.8068 15.252C26.9908 14.988 27.2308 14.78 27.5268 14.628C27.8308 14.476 28.1708 14.368 28.5468 14.304C28.9228 14.24 29.3108 14.2 29.7108 14.184L30.7788 14.148V13.908C30.7788 13.38 30.6668 13 30.4428 12.768C30.2188 12.536 29.8548 12.42 29.3508 12.42C28.8548 12.42 28.4908 12.504 28.2588 12.672C28.0268 12.832 27.8748 13.056 27.8028 13.344L26.8548 13.236C26.9668 12.668 27.2348 12.256 27.6588 12C28.0828 11.736 28.6588 11.604 29.3868 11.604C29.8348 11.604 30.2108 11.66 30.5148 11.772C30.8268 11.876 31.0788 12.028 31.2708 12.228C31.4628 12.428 31.5988 12.676 31.6788 12.972C31.7668 13.268 31.8108 13.6 31.8108 13.968V18H30.8028V17.148ZM30.7788 14.892L29.7828 14.928C29.3588 14.944 29.0068 14.984 28.7268 15.048C28.4468 15.112 28.2228 15.2 28.0548 15.312C27.8948 15.416 27.7788 15.548 27.7068 15.708C27.6428 15.868 27.6108 16.052 27.6108 16.26C27.6108 16.572 27.7028 16.824 27.8868 17.016C28.0788 17.2 28.3908 17.292 28.8228 17.292C29.4388 17.292 29.9188 17.14 30.2628 16.836C30.6068 16.532 30.7788 16.116 30.7788 15.588V14.892ZM32.8199 11.796H33.8639V15.708C33.8639 16.284 33.9559 16.692 34.1399 16.932C34.3319 17.172 34.6399 17.292 35.0639 17.292C35.5279 17.292 35.9479 17.124 36.3239 16.788C36.5239 16.612 36.6759 16.428 36.7799 16.236C36.8839 16.036 36.9359 15.78 36.9359 15.468V11.796H37.9799V18H36.9479V17.04C36.6439 17.44 36.3159 17.732 35.9639 17.916C35.6119 18.1 35.2319 18.192 34.8239 18.192C34.1199 18.192 33.6079 18.004 33.2879 17.628C32.9759 17.244 32.8199 16.672 32.8199 15.912V11.796ZM39.7144 16.188C39.7864 16.62 39.9664 16.924 40.2544 17.1C40.5504 17.268 40.9504 17.352 41.4544 17.352C41.9824 17.352 42.3544 17.264 42.5704 17.088C42.7944 16.904 42.9064 16.664 42.9064 16.368C42.9064 16.248 42.8904 16.136 42.8584 16.032C42.8344 15.92 42.7824 15.824 42.7024 15.744C42.6224 15.656 42.5104 15.58 42.3664 15.516C42.2224 15.452 42.0344 15.4 41.8024 15.36L41.0104 15.24C40.6584 15.184 40.3504 15.112 40.0864 15.024C39.8224 14.936 39.5984 14.824 39.4144 14.688C39.2304 14.544 39.0904 14.372 38.9944 14.172C38.9064 13.964 38.8624 13.716 38.8624 13.428C38.8624 13.14 38.9224 12.884 39.0424 12.66C39.1704 12.436 39.3424 12.248 39.5584 12.096C39.7824 11.936 40.0424 11.816 40.3384 11.736C40.6424 11.648 40.9704 11.604 41.3224 11.604C41.7704 11.604 42.1424 11.648 42.4384 11.736C42.7424 11.824 42.9904 11.944 43.1824 12.096C43.3744 12.248 43.5224 12.428 43.6264 12.636C43.7304 12.844 43.8104 13.064 43.8664 13.296L42.9184 13.452C42.8624 13.284 42.7984 13.136 42.7264 13.008C42.6544 12.88 42.5584 12.776 42.4384 12.696C42.3184 12.608 42.1704 12.544 41.9944 12.504C41.8264 12.456 41.6144 12.432 41.3584 12.432C41.0704 12.432 40.8304 12.46 40.6384 12.516C40.4464 12.564 40.2904 12.632 40.1704 12.72C40.0584 12.808 39.9784 12.908 39.9304 13.02C39.8824 13.124 39.8584 13.236 39.8584 13.356C39.8584 13.484 39.8744 13.6 39.9064 13.704C39.9384 13.8 39.9984 13.888 40.0864 13.968C40.1744 14.04 40.2944 14.104 40.4464 14.16C40.5984 14.216 40.7944 14.264 41.0344 14.304L41.9344 14.448C42.6624 14.568 43.1824 14.776 43.4944 15.072C43.8144 15.368 43.9744 15.8 43.9744 16.368C43.9744 16.632 43.9224 16.876 43.8184 17.1C43.7144 17.316 43.5584 17.508 43.3504 17.676C43.1424 17.836 42.8824 17.96 42.5704 18.048C42.2584 18.144 41.8944 18.192 41.4784 18.192C41.1024 18.192 40.7504 18.156 40.4224 18.084C40.1024 18.012 39.8184 17.9 39.5704 17.748C39.3224 17.588 39.1224 17.38 38.9704 17.124C38.8184 16.868 38.7304 16.556 38.7064 16.188H39.7144ZM49.9602 16.26C49.8562 16.86 49.5882 17.332 49.1562 17.676C48.7322 18.02 48.1202 18.192 47.3202 18.192C46.3762 18.192 45.6522 17.908 45.1482 17.34C44.6442 16.764 44.3922 15.964 44.3922 14.94C44.3922 14.404 44.4642 13.928 44.6082 13.512C44.7522 13.096 44.9522 12.748 45.2082 12.468C45.4722 12.188 45.7842 11.976 46.1442 11.832C46.5042 11.68 46.8962 11.604 47.3202 11.604C47.8002 11.604 48.2122 11.68 48.5562 11.832C48.9002 11.984 49.1802 12.196 49.3962 12.468C49.6202 12.732 49.7842 13.048 49.8882 13.416C50.0002 13.784 50.0562 14.188 50.0562 14.628V15.156H45.4482C45.4482 15.468 45.4882 15.76 45.5682 16.032C45.6562 16.296 45.7762 16.528 45.9282 16.728C46.0882 16.92 46.2842 17.072 46.5162 17.184C46.7482 17.296 47.0162 17.352 47.3202 17.352C47.8402 17.352 48.2202 17.256 48.4602 17.064C48.7002 16.864 48.8642 16.596 48.9522 16.26H49.9602ZM49.0122 14.376C49.0122 14.08 48.9802 13.812 48.9162 13.572C48.8522 13.332 48.7522 13.128 48.6162 12.96C48.4802 12.784 48.3042 12.648 48.0882 12.552C47.8722 12.456 47.6122 12.408 47.3082 12.408C46.7562 12.408 46.3242 12.576 46.0122 12.912C45.7082 13.248 45.5282 13.736 45.4722 14.376H49.0122ZM53.0558 9.432H54.0998V18H53.0558V9.432ZM55.2111 11.796H56.2551V18H55.2111V11.796ZM55.1751 9.432H56.2911V10.644H55.1751V9.432ZM57.3424 9.432H58.3864V12.66C58.6424 12.324 58.9384 12.064 59.2744 11.88C59.6104 11.696 60.0064 11.604 60.4624 11.604C60.9024 11.604 61.2864 11.684 61.6144 11.844C61.9504 12.004 62.2264 12.228 62.4424 12.516C62.6664 12.804 62.8304 13.148 62.9344 13.548C63.0464 13.94 63.1024 14.376 63.1024 14.856C63.1024 15.368 63.0384 15.832 62.9104 16.248C62.7824 16.656 62.5984 17.004 62.3584 17.292C62.1184 17.58 61.8264 17.804 61.4824 17.964C61.1464 18.116 60.7664 18.192 60.3424 18.192C59.9824 18.192 59.6304 18.12 59.2864 17.976C58.9504 17.824 58.6464 17.568 58.3744 17.208V18H57.3424V9.432ZM58.3744 15.072C58.3744 15.472 58.4184 15.816 58.5064 16.104C58.6024 16.384 58.7304 16.616 58.8904 16.8C59.0504 16.984 59.2424 17.12 59.4664 17.208C59.6904 17.288 59.9344 17.328 60.1984 17.328C60.4544 17.328 60.6904 17.284 60.9064 17.196C61.1304 17.108 61.3224 16.968 61.4824 16.776C61.6424 16.576 61.7664 16.32 61.8544 16.008C61.9504 15.696 61.9984 15.316 61.9984 14.868C61.9984 14.412 61.9464 14.032 61.8424 13.728C61.7464 13.416 61.6184 13.168 61.4584 12.984C61.2984 12.8 61.1144 12.668 60.9064 12.588C60.7064 12.508 60.4984 12.468 60.2824 12.468C60.0104 12.468 59.7584 12.516 59.5264 12.612C59.2944 12.7 59.0904 12.836 58.9144 13.02C58.7464 13.196 58.6144 13.424 58.5184 13.704C58.4224 13.976 58.3744 14.292 58.3744 14.652V15.072ZM63.9626 11.796H64.9946V12.756C65.2266 12.412 65.4986 12.148 65.8106 11.964C66.1226 11.78 66.4546 11.688 66.8066 11.688C67.0226 11.688 67.2066 11.704 67.3586 11.736L67.2266 12.708C67.1466 12.692 67.0666 12.68 66.9866 12.672C66.9066 12.656 66.8186 12.648 66.7226 12.648C66.5306 12.648 66.3346 12.684 66.1346 12.756C65.9346 12.82 65.7466 12.932 65.5706 13.092C65.3946 13.244 65.2546 13.42 65.1506 13.62C65.0546 13.82 65.0066 14.052 65.0066 14.316V18H63.9626V11.796ZM71.4468 17.148C71.2228 17.42 70.9388 17.656 70.5948 17.856C70.2508 18.048 69.8228 18.144 69.3108 18.144C68.9988 18.144 68.7108 18.104 68.4468 18.024C68.1908 17.952 67.9668 17.84 67.7748 17.688C67.5908 17.528 67.4468 17.332 67.3428 17.1C67.2388 16.868 67.1868 16.596 67.1868 16.284C67.1868 15.86 67.2748 15.516 67.4508 15.252C67.6348 14.988 67.8748 14.78 68.1708 14.628C68.4748 14.476 68.8148 14.368 69.1908 14.304C69.5668 14.24 69.9548 14.2 70.3548 14.184L71.4228 14.148V13.908C71.4228 13.38 71.3108 13 71.0868 12.768C70.8628 12.536 70.4988 12.42 69.9948 12.42C69.4988 12.42 69.1348 12.504 68.9028 12.672C68.6708 12.832 68.5188 13.056 68.4468 13.344L67.4988 13.236C67.6108 12.668 67.8788 12.256 68.3028 12C68.7268 11.736 69.3028 11.604 70.0308 11.604C70.4788 11.604 70.8548 11.66 71.1588 11.772C71.4708 11.876 71.7228 12.028 71.9148 12.228C72.1068 12.428 72.2428 12.676 72.3228 12.972C72.4108 13.268 72.4548 13.6 72.4548 13.968V18H71.4468V17.148ZM71.4228 14.892L70.4268 14.928C70.0028 14.944 69.6508 14.984 69.3708 15.048C69.0908 15.112 68.8668 15.2 68.6988 15.312C68.5388 15.416 68.4228 15.548 68.3508 15.708C68.2868 15.868 68.2548 16.052 68.2548 16.26C68.2548 16.572 68.3468 16.824 68.5308 17.016C68.7228 17.2 69.0348 17.292 69.4668 17.292C70.0828 17.292 70.5628 17.14 70.9068 16.836C71.2508 16.532 71.4228 16.116 71.4228 15.588V14.892ZM73.4998 11.796H74.5318V12.756C74.7638 12.412 75.0358 12.148 75.3478 11.964C75.6598 11.78 75.9918 11.688 76.3438 11.688C76.5598 11.688 76.7438 11.704 76.8958 11.736L76.7638 12.708C76.6838 12.692 76.6038 12.68 76.5238 12.672C76.4438 12.656 76.3558 12.648 76.2598 12.648C76.0678 12.648 75.8718 12.684 75.6718 12.756C75.4718 12.82 75.2838 12.932 75.1078 13.092C74.9318 13.244 74.7918 13.42 74.6878 13.62C74.5918 13.82 74.5438 14.052 74.5438 14.316V18H73.4998V11.796ZM77.635 19.32C77.859 19.4 78.083 19.44 78.307 19.44C78.563 19.44 78.759 19.372 78.895 19.236C79.039 19.108 79.179 18.864 79.315 18.504L79.567 17.844L76.939 11.796H78.151L80.107 16.668L81.895 11.796H83.047L80.335 18.588C80.223 18.868 80.111 19.112 79.999 19.32C79.887 19.536 79.763 19.72 79.627 19.872C79.491 20.024 79.327 20.136 79.135 20.208C78.951 20.288 78.723 20.328 78.451 20.328C78.259 20.328 78.087 20.316 77.935 20.292C77.783 20.268 77.615 20.224 77.431 20.16L77.635 19.32Z" fill="#333333"/>
<line x1="0.5" y1="-2.18557e-08" x2="0.500003" y2="77" stroke="#CED8DD" stroke-opacity="0.5"/>
<line x1="100.5" y1="-2.18557e-08" x2="100.5" y2="77" stroke="#CED8DD" stroke-opacity="0.5"/>
<g clip-path="url(#clip0)">
<g clip-path="url(#clip1)">
<path d="M21.2282 42H17.604C17.302 42 17 42.2391 17 42.5977V43.793H21.8322V42.5977C21.8322 42.2391 21.5906 42 21.2282 42Z" fill="#333333"/>
<path d="M21.8322 44.3906H17V44.9883H21.8322V44.3906Z" fill="#333333"/>
<path d="M27.2685 44.3906H23.6443C23.2819 44.3906 23.0403 44.6297 23.0403 44.9883V46.1836H27.8725V44.9883C27.8725 44.6297 27.5705 44.3906 27.2685 44.3906Z" fill="#333333"/>
<path d="M27.8725 46.7812H23.0403V47.3789H27.8725V46.7812Z" fill="#333333"/>
<path d="M33.0671 47.4985L28.3557 48.1559L30.2282 60.5871C30.2282 60.886 30.5906 61.125 30.8926 61.0653L34.5168 60.5274C34.8188 60.5274 35.0604 60.1688 35 59.8699L33.0671 47.4985Z" fill="#333333"/>
<path d="M34.8668 58.1202L29.7288 58.8768L29.8177 59.4679L34.9557 58.7114L34.8668 58.1202Z" fill="white"/>
<path d="M23.0403 60.5273C23.0403 60.8262 23.2819 61.125 23.6443 61.125H27.2685C27.5705 61.125 27.8725 60.8262 27.8725 60.5273V59.332H23.0403V60.5273Z" fill="#333333"/>
<path d="M27.8725 47.9766H23.0403V58.7344H27.8725V47.9766Z" fill="#333333"/>
<path d="M17 60.5273C17 60.8262 17.302 61.125 17.604 61.125H21.2282C21.5906 61.125 21.8322 60.8262 21.8322 60.5273V59.332H17V60.5273Z" fill="#333333"/>
<path d="M21.8322 45.5859H17V58.7344H21.8322V45.5859Z" fill="#333333"/>
<path d="M28.114 47.0203L28.2348 47.6179L32.9462 46.9007L32.8858 46.3031L28.114 47.0203Z" fill="#333333"/>
<path d="M32.7651 45.7054L32.5839 44.5101C32.5839 44.2113 32.2215 43.9722 31.9195 44.032L28.3557 44.5699C28.0537 44.5699 27.8121 44.9285 27.8725 45.2273L28.0537 46.4226L32.7651 45.7054Z" fill="#333333"/>
</g>
</g>
<defs>
<clipPath id="clip0">
<rect width="20" height="20" fill="white" transform="translate(16 41)"/>
</clipPath>
<clipPath id="clip1">
<rect width="18" height="19.125" fill="white" transform="translate(17 42)"/>
</clipPath>
</defs>
</svg>
