<?xml version="1.0" encoding="utf-8"?>
<!-- Generator: Adobe Illustrator 21.1.0, SVG Export Plug-In . SVG Version: 6.00 Build 0)  -->
<svg version="1.1" id="Layer_1" xmlns="http://www.w3.org/2000/svg" xmlns:xlink="http://www.w3.org/1999/xlink" x="0px" y="0px"
	 viewBox="0 0 36 36" style="enable-background:new 0 0 36 36;" xml:space="preserve">
<style type="text/css">
	.st0{fill:#FFFFFF;}
	.st1{fill:#0072AA;}
</style>
<g id="Layer_1_1_">
	<g>
		<circle class="st0" cx="18" cy="18" r="18"/>
		<circle class="st1" cx="18" cy="18" r="16.8"/>
	</g>
</g>
<g>
	<g>
		<rect x="13.2" y="14.8" class="st0" width="6.1" height="1.1"/>
	</g>
	<g>
		<rect x="13.2" y="17.8" class="st0" width="9.5" height="1.1"/>
	</g>
	<g>
		<rect x="13.2" y="20.8" class="st0" width="9.5" height="1.1"/>
	</g>
	<g>
		<rect x="13.2" y="23.8" class="st0" width="9.5" height="1.1"/>
	</g>
</g>
<path class="st0" d="M21.8,7h-9.5c-1.9,0-3.4,1.5-3.4,3.4v15.2c0,1.9,1.5,3.4,3.4,3.4h11.4c1.9,0,3.4-1.5,3.4-3.4V12.1L21.8,7z
	 M26,25.6c0,1.3-1,2.3-2.3,2.3H12.3c-1.3,0-2.3-1-2.3-2.3V10.4c0-1.3,1-2.3,2.3-2.3h8.3v5.1H26L26,25.6L26,25.6z"/>
</svg>
