<svg width="14" height="18" viewBox="0 0 14 18" fill="none" xmlns="http://www.w3.org/2000/svg">
<path d="M0 2V16C0 16.5304 0.210714 17.0391 0.585787 17.4142C0.96086 17.7893 1.46957 18 2 18H12C12.5304 18 13.0391 17.7893 13.4142 17.4142C13.7893 17.0391 14 16.5304 14 16V3L11 0H2C1.46957 0 0.96086 0.210714 0.585787 0.585786C0.210714 0.960859 0 1.46957 0 2Z" fill="#333333"/>
<path d="M7 8.29L5.72 7C5.89975 6.69714 5.99634 6.35217 6 6C6 5.60444 5.8827 5.21776 5.66294 4.88886C5.44318 4.55996 5.13082 4.30362 4.76537 4.15224C4.39992 4.00087 3.99778 3.96126 3.60982 4.03843C3.22186 4.1156 2.86549 4.30608 2.58579 4.58579C2.30608 4.86549 2.1156 5.22186 2.03843 5.60982C1.96126 5.99778 2.00087 6.39992 2.15224 6.76537C2.30362 7.13082 2.55996 7.44318 2.88886 7.66294C3.21776 7.8827 3.60444 8 4 8C4.35217 7.99634 4.69714 7.89975 5 7.72L6.28 9L5 10.28C4.69714 10.1002 4.35217 10.0037 4 10C3.60444 10 3.21776 10.1173 2.88886 10.3371C2.55996 10.5568 2.30362 10.8692 2.15224 11.2346C2.00087 11.6001 1.96126 12.0022 2.03843 12.3902C2.1156 12.7781 2.30608 13.1345 2.58579 13.4142C2.86549 13.6939 3.22186 13.8844 3.60982 13.9616C3.99778 14.0387 4.39992 13.9991 4.76537 13.8478C5.13082 13.6964 5.44318 13.44 5.66294 13.1111C5.8827 12.7822 6 12.3956 6 12C5.99634 11.6478 5.89975 11.3029 5.72 11L7 9.72L9.72 12.48C9.88759 12.6481 10.0873 12.7807 10.3072 12.87C10.5271 12.9594 10.7627 13.0036 11 13H11.75L7.75 9L7 8.29ZM2.5 6C2.5 5.70333 2.58797 5.41332 2.7528 5.16665C2.91762 4.91997 3.15189 4.72771 3.42598 4.61418C3.70006 4.50065 4.00167 4.47095 4.29264 4.52882C4.58361 4.5867 4.85088 4.72956 5.06066 4.93934C5.27044 5.14912 5.4133 5.41639 5.47118 5.70737C5.52906 5.99834 5.49935 6.29994 5.38582 6.57403C5.27229 6.84812 5.08003 7.08238 4.83336 7.24721C4.58668 7.41203 4.29667 7.5 4 7.5C3.60218 7.5 3.22065 7.34197 2.93934 7.06066C2.65804 6.77936 2.5 6.39783 2.5 6ZM4 13.5C3.70333 13.5 3.41332 13.412 3.16665 13.2472C2.91997 13.0824 2.72771 12.8481 2.61418 12.574C2.50065 12.2999 2.47095 11.9983 2.52882 11.7074C2.5867 11.4164 2.72956 11.1491 2.93934 10.9393C3.14912 10.7296 3.41639 10.5867 3.70737 10.5288C3.99834 10.4709 4.29994 10.5007 4.57403 10.6142C4.84812 10.7277 5.08238 10.92 5.24721 11.1666C5.41203 11.4133 5.5 11.7033 5.5 12C5.5 12.3978 5.34197 12.7794 5.06066 13.0607C4.77936 13.342 4.39783 13.5 4 13.5Z" fill="white"/>
<path d="M11.71 4.99999H11C10.7699 4.99877 10.5418 5.04322 10.3289 5.13076C10.1161 5.2183 9.92269 5.3472 9.76 5.50999L8 7.28999L8.71 7.99999L11.71 4.99999Z" fill="white"/>
</svg>
