<?xml version="1.0" encoding="utf-8"?>
<!-- Generator: Adobe Illustrator 21.1.0, SVG Export Plug-In . SVG Version: 6.00 Build 0)  -->
<svg version="1.1" id="Layer_1" xmlns="http://www.w3.org/2000/svg" xmlns:xlink="http://www.w3.org/1999/xlink" x="0px" y="0px"
	 viewBox="0 0 292 32" enable-background="new 0 0 292 32" xml:space="preserve">
<title>header_process_suite</title>
<g>
	<rect x="128" y="3" width="1" height="23"/>
	<path d="M17.063,14.558c0,3.78-2.176,7.874-8.017,7.874C4.837,22.432,1,20.084,1,14.558c0-4.581,2.892-8.1,8.619-7.788
		C15.718,7.113,17.063,11.837,17.063,14.558z M6.183,11.681c-0.518,0.858-0.776,1.847-0.744,2.849c0,2.319,1.145,4.419,3.608,4.419
		c2.377,0,3.55-1.932,3.55-4.223c0.112-1.338-0.333-2.662-1.231-3.66c-0.701-0.631-1.641-0.927-2.577-0.81
		C7.729,10.235,6.738,10.777,6.183,11.681z"/>
	<path d="M56.147,8.459c0.403-0.497,0.911-0.898,1.489-1.174c0.866-0.344,1.789-0.518,2.72-0.515
		c0.921-0.029,1.835,0.167,2.663,0.572c1.575,0.83,1.976,2.176,1.976,4.5v10.217h-4.381v-8.418c0.075-0.75,0.007-1.508-0.2-2.233
		c-0.355-0.757-1.143-1.214-1.976-1.145c-2.319,0-2.319,1.861-2.319,3.722v8.075h-4.41V7.141h4.438L56.147,8.459z"/>
	<path d="M49.615,18.2c-0.4,0.851-1.7,4.233-7.445,4.233c-4.438,0-7.559-2.715-7.559-7.612c0-3.608,1.775-8.051,7.674-8.051
		c1.993-0.162,3.957,0.55,5.383,1.952c1.947,2.09,2.062,5.011,2.119,6.7h-10.68c-0.197,1.849,1.142,3.507,2.991,3.704
		c0.138,0.015,0.277,0.021,0.416,0.018c1.694,0.022,3.214-1.037,3.78-2.634L49.615,18.2z M45.234,12.674
		c-0.037-0.778-0.329-1.523-0.83-2.119c-0.583-0.542-1.352-0.839-2.148-0.83c-0.848-0.002-1.658,0.351-2.233,0.974
		c-0.476,0.562-0.784,1.247-0.888,1.976L45.234,12.674z"/>
	<path d="M110.926,10.238h2.921v-3.1h-2.892V4h-4.381v3.141h-0.695l-2.006,3.1h2.7v7.1c-0.137,1.164,0.082,2.343,0.63,3.379
		c0.945,1.374,2.606,1.46,4.123,1.46c0.778-0.012,1.554-0.089,2.319-0.229v-3.442l-1.575,0.057c-1.174,0-1.174-0.773-1.145-1.689
		L110.926,10.238z"/>
	<path d="M67.189,4h4.381v3.142h4.553l-2.005,3.1h-2.577v6.638c-0.029,0.916-0.029,1.689,1.145,1.689l1.575-0.057v3.436
		c-0.765,0.14-1.541,0.217-2.319,0.229c-1.518,0-3.178-0.086-4.123-1.46c-0.548-1.036-0.767-2.215-0.63-3.379L67.189,4z"/>
	<path d="M117.905,10.239h-0.541V7.6h-1V7.141h2.519V7.6h-0.98L117.905,10.239z M122.15,10.239h-0.532l0.019-1.912l0.028-0.634
		l-0.149,0.522l-0.634,2.024H120.4l-0.625-2.024l-0.159-0.513l0.037,0.625l0.019,1.912h-0.522v-3.1h0.737l0.774,2.444l0.756-2.444
		h0.737L122.15,10.239z"/>
	<path d="M89.926,18.212l-0.839,1.3c-0.785,1.152-2.263,2.924-6.5,2.924c-4.438,0-7.42-2.715-7.42-7.612
		c0-3.608,1.775-8.051,7.674-8.051c1.993-0.162,3.957,0.55,5.383,1.952c1.947,2.09,2.062,5.011,2.119,6.7H79.667
		c-0.029,1.861,0.891,3.722,3.268,3.722c2.405,0,3.1-1.575,3.64-2.634L89.926,18.212z M85.795,12.672
		c-0.037-0.778-0.329-1.523-0.83-2.119c-0.583-0.542-1.352-0.839-2.148-0.83c-0.848-0.002-1.658,0.351-2.233,0.974
		c-0.476,0.562-0.784,1.247-0.888,1.976L85.795,12.672z"/>
	<polygon points="104.935,22.061 99.458,14.208 104.026,7.141 99.012,7.141 96.856,10.477 94.529,7.141 89.515,7.141 94.444,14.208 
		89.368,22.061 94.382,22.061 97.046,17.939 99.922,22.061 	"/>
	<path d="M23.123,8.459c0.97-1.148,2.422-1.773,3.922-1.689c3.665,0,6.243,2.777,6.243,7.76c0,3.064-1.116,7.9-6.427,7.9
		c-1.447,0.037-2.832-0.584-3.766-1.689V27h-4.41V7.141h4.438L23.123,8.459z M26.1,10.212c-0.888-0.004-1.726,0.41-2.262,1.119
		c-0.66,0.961-0.982,2.114-0.916,3.278c-0.084,1.238,0.293,2.462,1.059,3.438c0.504,0.563,1.22,0.89,1.976,0.9
		c2.148,0,3.092-2.262,3.092-4.447c0-1.839-0.544-3.784-2.348-4.21C26.505,10.238,26.303,10.212,26.1,10.212z"/>
	<g>
		<path d="M150.695,16.849c-0.084,0.756-0.273,1.459-0.567,2.11s-0.693,1.215-1.197,1.69c-0.504,0.477-1.116,0.848-1.837,1.113
			c-0.721,0.266-1.557,0.398-2.509,0.398c-1.036,0-1.967-0.175-2.793-0.524s-1.526-0.861-2.1-1.533
			c-0.574-0.672-1.019-1.494-1.334-2.468c-0.315-0.973-0.473-2.082-0.473-3.328c0-1.26,0.168-2.38,0.504-3.36
			s0.806-1.806,1.407-2.478s1.312-1.183,2.132-1.533c0.818-0.35,1.704-0.525,2.656-0.525c0.924,0,1.722,0.119,2.394,0.357
			c0.672,0.238,1.243,0.574,1.711,1.008s0.847,0.952,1.134,1.554c0.287,0.602,0.508,1.268,0.662,1.995l-1.891,0.315
			c-0.126-0.546-0.29-1.04-0.493-1.48s-0.462-0.815-0.777-1.124c-0.314-0.308-0.692-0.542-1.133-0.704
			c-0.441-0.161-0.977-0.241-1.606-0.241c-0.742,0-1.403,0.15-1.984,0.451c-0.581,0.301-1.071,0.722-1.47,1.26
			c-0.399,0.539-0.704,1.19-0.914,1.953s-0.314,1.606-0.314,2.53s0.104,1.768,0.314,2.531c0.21,0.763,0.515,1.417,0.914,1.963
			c0.398,0.546,0.889,0.966,1.47,1.26s1.249,0.441,2.005,0.441c0.687,0,1.271-0.087,1.754-0.263
			c0.483-0.175,0.881-0.423,1.197-0.745c0.314-0.322,0.563-0.707,0.745-1.155s0.315-0.938,0.399-1.47H150.695z"/>
		<path d="M157.94,22.119c-0.826,0-1.562-0.133-2.205-0.398c-0.645-0.266-1.19-0.644-1.639-1.134s-0.791-1.093-1.028-1.807
			c-0.238-0.714-0.357-1.512-0.357-2.394s0.126-1.68,0.378-2.394s0.609-1.323,1.071-1.827c0.462-0.504,1.019-0.893,1.67-1.166
			c0.65-0.273,1.375-0.409,2.173-0.409c0.812,0,1.54,0.133,2.185,0.399c0.644,0.266,1.193,0.647,1.648,1.145
			c0.454,0.497,0.801,1.096,1.039,1.795c0.238,0.7,0.357,1.491,0.357,2.373c0,0.896-0.123,1.701-0.368,2.415
			s-0.595,1.322-1.05,1.827c-0.455,0.504-1.012,0.892-1.669,1.165C159.487,21.983,158.752,22.119,157.94,22.119z M157.961,20.607
			c0.588,0,1.092-0.104,1.512-0.315c0.421-0.21,0.767-0.504,1.04-0.882c0.272-0.378,0.473-0.829,0.599-1.354
			c0.126-0.524,0.188-1.102,0.188-1.732c0-0.616-0.062-1.183-0.188-1.701c-0.126-0.518-0.326-0.962-0.599-1.333
			c-0.273-0.371-0.619-0.661-1.04-0.872c-0.42-0.21-0.924-0.315-1.512-0.315s-1.089,0.105-1.501,0.315
			c-0.413,0.21-0.756,0.501-1.029,0.872c-0.273,0.371-0.473,0.816-0.599,1.333c-0.126,0.518-0.188,1.092-0.188,1.722
			s0.062,1.204,0.188,1.722c0.126,0.519,0.322,0.966,0.588,1.344s0.609,0.672,1.029,0.882
			C156.869,20.503,157.373,20.607,157.961,20.607z"/>
		<path d="M165.689,10.927h1.806v1.659c0.532-0.714,1.12-1.225,1.764-1.533c0.645-0.308,1.323-0.462,2.037-0.462
			c1.232,0,2.146,0.336,2.741,1.008c0.595,0.672,0.893,1.659,0.893,2.961v7.224h-1.827v-6.867c0-1.008-0.183-1.718-0.546-2.131
			c-0.364-0.413-0.925-0.62-1.681-0.62c-0.406,0-0.809,0.07-1.207,0.21c-0.399,0.14-0.76,0.364-1.082,0.672
			c-0.35,0.308-0.616,0.633-0.798,0.977c-0.182,0.343-0.272,0.787-0.272,1.333v6.425h-1.827V10.927z"/>
		<path d="M178.289,12.375h-1.68v-1.449h1.68V7.966h1.827v2.961h2.877v1.449h-2.877v6.363c0,0.532,0.118,0.959,0.356,1.281
			s0.603,0.483,1.093,0.483c0.308,0,0.577-0.021,0.808-0.063c0.231-0.042,0.444-0.098,0.641-0.168l0.315,1.407
			c-0.28,0.098-0.585,0.179-0.914,0.241c-0.329,0.063-0.717,0.095-1.165,0.095c-0.616,0-1.113-0.092-1.491-0.273
			s-0.679-0.44-0.903-0.776c-0.224-0.336-0.374-0.735-0.451-1.197s-0.115-0.966-0.115-1.512V12.375z"/>
		<path d="M184.945,10.927h1.806v1.68c0.406-0.602,0.882-1.064,1.428-1.386c0.546-0.322,1.127-0.483,1.743-0.483
			c0.378,0,0.7,0.028,0.966,0.084l-0.23,1.701c-0.141-0.028-0.28-0.052-0.42-0.073c-0.141-0.021-0.294-0.032-0.462-0.032
			c-0.336,0-0.68,0.06-1.029,0.179c-0.351,0.119-0.68,0.319-0.987,0.599c-0.308,0.266-0.549,0.574-0.725,0.924
			c-0.175,0.35-0.262,0.756-0.262,1.218v6.446h-1.827V10.927z"/>
		<path d="M198.974,20.292c-0.392,0.477-0.89,0.886-1.491,1.229c-0.602,0.344-1.351,0.515-2.247,0.515
			c-0.546,0-1.046-0.066-1.501-0.199s-0.848-0.336-1.176-0.609c-0.329-0.272-0.585-0.612-0.767-1.019
			c-0.183-0.405-0.273-0.882-0.273-1.428c0-0.742,0.157-1.344,0.473-1.806s0.735-0.826,1.26-1.092
			c0.525-0.266,1.116-0.455,1.774-0.567c0.658-0.112,1.337-0.182,2.037-0.21l1.869-0.063v-0.42c0-0.924-0.196-1.589-0.588-1.995
			c-0.393-0.406-1.029-0.609-1.911-0.609c-0.868,0-1.505,0.144-1.911,0.431c-0.406,0.287-0.672,0.683-0.798,1.187l-1.659-0.189
			c0.196-0.994,0.665-1.718,1.407-2.174c0.742-0.455,1.75-0.682,3.024-0.682c0.783,0,1.445,0.094,1.984,0.283
			c0.538,0.189,0.977,0.459,1.312,0.809c0.336,0.35,0.577,0.784,0.725,1.302c0.146,0.518,0.22,1.099,0.22,1.743v7.056h-1.764V20.292
			z M198.932,16.345l-1.743,0.063c-0.742,0.028-1.357,0.098-1.848,0.21c-0.49,0.112-0.879,0.263-1.166,0.452
			c-0.287,0.188-0.49,0.423-0.608,0.703c-0.119,0.28-0.179,0.603-0.179,0.966c0,0.546,0.164,0.983,0.493,1.312
			s0.872,0.494,1.628,0.494c1.078,0,1.918-0.267,2.52-0.799c0.603-0.531,0.903-1.26,0.903-2.184V16.345z"/>
		<path d="M212.918,18.108c-0.183,1.246-0.658,2.226-1.429,2.94c-0.77,0.714-1.854,1.07-3.255,1.07
			c-0.826,0-1.558-0.133-2.194-0.398c-0.638-0.266-1.169-0.647-1.596-1.145c-0.428-0.497-0.749-1.099-0.966-1.807
			c-0.218-0.706-0.326-1.501-0.326-2.383c0-0.868,0.119-1.659,0.357-2.373c0.237-0.714,0.58-1.323,1.028-1.827
			c0.448-0.504,0.994-0.896,1.639-1.176c0.644-0.28,1.372-0.42,2.184-0.42c1.302,0,2.311,0.318,3.024,0.956s1.169,1.516,1.365,2.635
			l-1.827,0.336c-0.07-0.35-0.165-0.672-0.284-0.966s-0.283-0.549-0.493-0.767c-0.21-0.217-0.466-0.385-0.767-0.504
			c-0.301-0.119-0.661-0.179-1.081-0.179c-0.574,0-1.064,0.109-1.471,0.326c-0.406,0.217-0.738,0.518-0.997,0.903
			c-0.259,0.385-0.448,0.837-0.567,1.354c-0.119,0.518-0.178,1.071-0.178,1.659s0.056,1.141,0.168,1.659
			c0.111,0.518,0.294,0.969,0.546,1.354c0.252,0.385,0.58,0.689,0.986,0.913s0.903,0.336,1.491,0.336
			c0.882,0,1.536-0.224,1.964-0.672c0.427-0.448,0.703-1.057,0.829-1.827H212.918z"/>
		<path d="M215.878,12.375h-1.68v-1.449h1.68V7.966h1.827v2.961h2.877v1.449h-2.877v6.363c0,0.532,0.118,0.959,0.356,1.281
			s0.603,0.483,1.093,0.483c0.308,0,0.577-0.021,0.808-0.063c0.231-0.042,0.444-0.098,0.641-0.168l0.315,1.407
			c-0.28,0.098-0.585,0.179-0.914,0.241c-0.329,0.063-0.717,0.095-1.165,0.095c-0.616,0-1.113-0.092-1.491-0.273
			s-0.679-0.44-0.903-0.776c-0.224-0.336-0.374-0.735-0.451-1.197s-0.115-0.966-0.115-1.512V12.375z"/>
		<path d="M239.755,16.849c-0.084,0.756-0.273,1.459-0.567,2.11s-0.693,1.215-1.197,1.69c-0.504,0.477-1.116,0.848-1.837,1.113
			c-0.722,0.266-1.558,0.398-2.51,0.398c-1.036,0-1.967-0.175-2.793-0.524s-1.526-0.861-2.1-1.533
			c-0.574-0.672-1.019-1.494-1.334-2.468c-0.315-0.973-0.473-2.082-0.473-3.328c0-1.26,0.168-2.38,0.504-3.36
			s0.806-1.806,1.407-2.478s1.312-1.183,2.132-1.533c0.818-0.35,1.704-0.525,2.656-0.525c0.924,0,1.722,0.119,2.394,0.357
			c0.673,0.238,1.243,0.574,1.712,1.008s0.847,0.952,1.134,1.554c0.287,0.602,0.508,1.268,0.662,1.995l-1.891,0.315
			c-0.126-0.546-0.29-1.04-0.493-1.48s-0.462-0.815-0.777-1.124c-0.314-0.308-0.692-0.542-1.134-0.704
			c-0.441-0.161-0.977-0.241-1.606-0.241c-0.742,0-1.403,0.15-1.984,0.451c-0.581,0.301-1.071,0.722-1.47,1.26
			c-0.399,0.539-0.704,1.19-0.914,1.953s-0.314,1.606-0.314,2.53s0.104,1.768,0.314,2.531c0.21,0.763,0.515,1.417,0.914,1.963
			c0.398,0.546,0.889,0.966,1.47,1.26s1.249,0.441,2.005,0.441c0.687,0,1.271-0.087,1.754-0.263
			c0.483-0.175,0.882-0.423,1.197-0.745c0.314-0.322,0.563-0.707,0.745-1.155s0.315-0.938,0.399-1.47H239.755z"/>
		<path d="M251.515,18.738c-0.182,1.05-0.647,1.876-1.396,2.479c-0.749,0.602-1.823,0.902-3.224,0.902
			c-1.652,0-2.919-0.5-3.801-1.501s-1.323-2.397-1.323-4.189c0-0.938,0.126-1.771,0.378-2.499c0.252-0.728,0.605-1.337,1.061-1.827
			c0.455-0.49,0.998-0.864,1.628-1.124c0.63-0.259,1.315-0.388,2.058-0.388c0.84,0,1.562,0.133,2.163,0.399
			c0.602,0.266,1.096,0.634,1.48,1.103c0.385,0.469,0.672,1.025,0.861,1.669c0.188,0.644,0.283,1.351,0.283,2.121v0.924h-8.063
			c0,0.546,0.073,1.054,0.22,1.522c0.147,0.469,0.357,0.875,0.63,1.218c0.273,0.344,0.612,0.612,1.019,0.809
			s0.875,0.294,1.407,0.294c0.91,0,1.575-0.171,1.995-0.515c0.42-0.343,0.707-0.809,0.861-1.396H251.515z M249.855,15.442
			c0-0.518-0.056-0.987-0.168-1.407s-0.287-0.78-0.524-1.082c-0.238-0.301-0.546-0.536-0.925-0.704
			c-0.378-0.168-0.833-0.252-1.364-0.252c-0.967,0-1.719,0.294-2.258,0.882c-0.539,0.588-0.857,1.442-0.955,2.562H249.855z"/>
		<path d="M254.098,10.927h1.806v1.659c0.532-0.714,1.12-1.225,1.764-1.533c0.645-0.308,1.323-0.462,2.037-0.462
			c1.232,0,2.146,0.336,2.741,1.008c0.595,0.672,0.893,1.659,0.893,2.961v7.224h-1.827v-6.867c0-1.008-0.183-1.718-0.546-2.131
			c-0.364-0.413-0.925-0.62-1.681-0.62c-0.406,0-0.809,0.07-1.207,0.21c-0.399,0.14-0.76,0.364-1.082,0.672
			c-0.35,0.308-0.616,0.633-0.798,0.977c-0.182,0.343-0.272,0.787-0.272,1.333v6.425h-1.827V10.927z"/>
		<path d="M266.697,12.375h-1.68v-1.449h1.68V7.966h1.827v2.961h2.877v1.449h-2.877v6.363c0,0.532,0.118,0.959,0.356,1.281
			s0.603,0.483,1.093,0.483c0.308,0,0.577-0.021,0.808-0.063c0.231-0.042,0.444-0.098,0.641-0.168l0.315,1.407
			c-0.28,0.098-0.585,0.179-0.914,0.241c-0.329,0.063-0.717,0.095-1.165,0.095c-0.616,0-1.113-0.092-1.491-0.273
			s-0.679-0.44-0.903-0.776c-0.224-0.336-0.374-0.735-0.451-1.197s-0.115-0.966-0.115-1.512V12.375z"/>
		<path d="M282.426,18.738c-0.182,1.05-0.647,1.876-1.396,2.479c-0.749,0.602-1.823,0.902-3.224,0.902
			c-1.652,0-2.919-0.5-3.801-1.501s-1.323-2.397-1.323-4.189c0-0.938,0.126-1.771,0.378-2.499c0.252-0.728,0.605-1.337,1.061-1.827
			c0.455-0.49,0.998-0.864,1.628-1.124c0.63-0.259,1.315-0.388,2.058-0.388c0.84,0,1.562,0.133,2.163,0.399
			c0.602,0.266,1.096,0.634,1.48,1.103c0.385,0.469,0.672,1.025,0.861,1.669c0.188,0.644,0.283,1.351,0.283,2.121v0.924h-8.063
			c0,0.546,0.073,1.054,0.22,1.522c0.147,0.469,0.357,0.875,0.63,1.218c0.273,0.344,0.612,0.612,1.019,0.809
			s0.875,0.294,1.407,0.294c0.91,0,1.575-0.171,1.995-0.515c0.42-0.343,0.707-0.809,0.861-1.396H282.426z M280.767,15.442
			c0-0.518-0.056-0.987-0.168-1.407s-0.287-0.78-0.524-1.082c-0.238-0.301-0.546-0.536-0.925-0.704
			c-0.378-0.168-0.833-0.252-1.364-0.252c-0.967,0-1.719,0.294-2.258,0.882c-0.539,0.588-0.857,1.442-0.955,2.562H280.767z"/>
		<path d="M285.009,10.927h1.806v1.68c0.406-0.602,0.882-1.064,1.428-1.386c0.546-0.322,1.127-0.483,1.743-0.483
			c0.378,0,0.7,0.028,0.966,0.084l-0.23,1.701c-0.141-0.028-0.28-0.052-0.42-0.073c-0.141-0.021-0.294-0.032-0.462-0.032
			c-0.336,0-0.68,0.06-1.029,0.179c-0.351,0.119-0.68,0.319-0.987,0.599c-0.308,0.266-0.549,0.574-0.725,0.924
			c-0.175,0.35-0.262,0.756-0.262,1.218v6.446h-1.827V10.927z"/>
	</g>
</g>
</svg>
