<svg width="220" height="221" viewBox="0 0 220 221" fill="none" xmlns="http://www.w3.org/2000/svg">
<path d="M189.853 49.0739L189.545 48.6124L179.109 37.7405C178.494 36.8174 178.904 35.4841 180.032 35.1251C181.622 34.6379 183.109 33.7918 184.417 32.561C188.776 28.4071 188.955 21.5865 184.802 17.4327C180.853 13.0993 174.032 12.9711 169.673 17.1506C168.391 18.3814 167.468 19.8429 166.93 21.4071C166.545 22.5096 165.186 22.8686 164.289 22.2019L153.878 11.3044L153.417 10.9711C152.75 10.3557 151.699 10.3557 151.032 10.9967L138.981 22.5609C138.237 22.6122 137.494 22.2019 137.263 21.4071C136.237 17.8686 133.288 14.7916 128.288 13.8429C127.776 13.7403 127.237 13.7403 126.724 13.8173C116.493 15.6121 113.852 26.2532 119.365 32.0225C120.519 33.2533 121.929 34.0995 123.442 34.6123C124.263 34.8943 124.622 35.7148 124.468 36.4841L112.314 48.1508C111.622 48.8175 111.57 49.9201 112.237 50.5868L123.211 62.0227L123.417 62.1766L123.493 62.2535C124.417 63.2279 126.058 62.715 126.391 61.3817C127.391 57.5099 130.596 54.074 135.929 53.0227C136.929 52.9457 137.929 53.0227 138.904 53.2278C141.16 53.8432 142.929 54.9201 144.263 56.2535C145.545 57.6381 146.545 59.4586 147.058 61.7407C147.212 62.715 147.237 63.715 147.135 64.7151C145.853 69.9971 142.263 73.0228 138.34 73.8433C136.981 74.1254 136.391 75.7408 137.34 76.6895L137.417 76.7664L137.57 76.9716L148.494 88.4332C149.135 89.1255 150.237 89.1255 150.93 88.4588L163.109 76.869C163.904 76.7664 164.699 77.151 164.93 77.9716C165.366 79.51 166.16 80.9459 167.34 82.1511C172.853 87.8947 183.596 85.7408 185.879 75.6126C185.981 75.0997 186.007 74.5613 185.93 74.0485C185.186 69.0228 182.263 65.9202 178.776 64.7407C177.981 64.4843 177.596 63.715 177.699 62.9715L189.802 51.4329C190.391 50.7919 190.443 49.7406 189.853 49.0739Z" fill="#DAE3E5"/>
<path d="M192.719 45.2746L192.738 45.303L192.761 45.3285C193.165 45.7861 193.145 46.5397 192.726 47.0067L180.636 58.5329L180.51 58.6534L180.486 58.8265C180.355 59.7754 180.847 60.7966 181.901 61.1387C185.199 62.2554 188 65.1957 188.717 70.045L188.718 70.046C188.784 70.4917 188.764 70.9692 188.672 71.432C186.469 81.1897 176.202 83.1661 170.983 77.7282L170.979 77.7247C169.862 76.5827 169.108 75.2218 168.693 73.7595C168.38 72.6455 167.307 72.17 166.327 72.2964L166.165 72.3174L166.047 72.4301L153.867 84.0199L153.865 84.022C153.359 84.5088 152.58 84.4889 152.143 84.0168L152.138 84.0116L141.235 72.5713L141.099 72.3898L141.078 72.3613L141.052 72.3362L140.975 72.2593C140.359 71.6426 140.682 70.4725 141.724 70.2562L141.724 70.2561C145.841 69.395 149.576 66.2208 150.903 60.7563L150.911 60.7233L150.914 60.6894C151.021 59.6474 150.995 58.604 150.834 57.586L150.831 57.5701L150.828 57.5544C150.296 55.1897 149.256 53.2889 147.912 51.8371L147.905 51.83L147.899 51.8232C146.502 50.4266 144.656 49.3064 142.318 48.6688L142.303 48.6649L142.289 48.6619C141.272 48.4477 140.224 48.3666 139.173 48.4475L139.144 48.4497L139.115 48.4554C133.6 49.5425 130.239 53.1147 129.189 57.18L129.188 57.1838C128.937 58.1878 127.753 58.4816 127.139 57.833L127.139 57.8328L127.129 57.8233L127.052 57.7463L127.027 57.7212L126.999 57.6999L126.826 57.5705L115.88 46.1639L115.88 46.1638L115.873 46.1565C115.422 45.7056 115.434 44.9252 115.943 44.4347C115.943 44.4346 115.943 44.4345 115.943 44.4343L128.096 32.7681L128.21 32.6594L128.24 32.5055C128.435 31.5318 127.982 30.4391 126.887 30.0628L126.885 30.0621C125.441 29.5728 124.104 28.7684 123.012 27.6039L123.012 27.6039L123.009 27.6004C117.789 22.138 120.231 11.9672 130.087 10.2342C130.549 10.1655 131.026 10.1672 131.473 10.2565L131.472 10.2566L131.477 10.2575C136.3 11.1725 139.094 14.119 140.065 17.4696L140.065 17.4698C140.371 18.5255 141.357 19.0479 142.297 18.9831L142.478 18.9706L142.609 18.845L154.661 7.28083L154.661 7.28048C155.135 6.82456 155.886 6.8242 156.36 7.26182L156.382 7.28219L156.406 7.29976L156.831 7.60627L167.209 18.4706L167.239 18.5013L167.273 18.5266C168.425 19.3828 170.182 18.9345 170.684 17.4951L170.685 17.4931C171.197 16.0052 172.076 14.6113 173.302 13.4349C177.468 9.43989 183.964 9.57772 187.714 13.6928L187.722 13.7014L187.73 13.7096C191.676 17.6553 191.519 24.1519 187.355 28.1212C186.104 29.2989 184.684 30.1058 183.168 30.5704L183.163 30.572C181.705 31.0357 181.183 32.7523 181.975 33.9412L182 33.9781L182.031 34.0101L192.436 44.85L192.719 45.2746Z" stroke="#666666"/>
<path d="M134.443 155.357H134.545L134.802 155.382L150.648 155.459C151.597 155.459 152.366 154.664 152.366 153.716L152.443 136.895C152.904 136.254 153.75 135.946 154.52 136.357C155.93 137.1 157.52 137.51 159.212 137.51C167.186 137.51 173.084 128.28 167.34 119.613C167.058 119.177 166.674 118.792 166.238 118.485C162.084 115.536 157.853 115.51 154.571 117.203C153.827 117.587 153.032 117.331 152.545 116.767L152.622 100.049C152.622 99.0999 151.904 98.3307 151.007 98.305L150.468 98.2025H135.391C134.314 97.9973 133.622 96.7922 134.16 95.7409C134.904 94.2794 135.34 92.587 135.34 90.8178C135.366 84.8178 130.571 79.9459 124.699 80.0485C118.827 79.8946 114.006 84.7408 114.006 90.7665C114.006 92.5358 114.417 94.2281 115.186 95.6896C115.724 96.7409 115.007 97.9717 113.93 98.1512L98.8525 98.0743L98.3141 98.1768C97.673 98.2025 97.1346 98.6127 96.8525 99.1768C96.9551 99.4332 97.0064 99.7153 97.0064 100.023L96.9807 117.28L96.032 117.1C95.5961 117.28 95.1089 117.331 94.6474 117.074L94.3653 116.946C93.8525 116.946 93.3397 116.997 92.8012 117.074L92.673 117.1L92.5448 117.074C91.9551 116.972 91.4166 116.869 90.9038 116.869C86.0576 116.869 82.0575 120.613 81.4678 125.459C81.4165 125.869 81.3652 126.305 81.3652 126.741C81.3652 128.485 81.8268 130.331 82.8268 132.228C83.0319 132.639 83.2627 133.049 83.5191 133.459C83.7499 133.818 84.0576 134.126 84.3909 134.357C86.6217 135.921 88.8012 136.562 90.8268 136.562C91.3653 136.562 91.9038 136.51 92.4166 136.434L92.5448 136.408L92.673 136.434C93.1089 136.51 93.4679 136.587 93.7756 136.613C94.032 136.51 94.314 136.382 94.5705 136.254C95.1089 135.972 95.7243 136.075 96.1602 136.357L96.9038 136.203L96.8782 153.716C96.8782 153.946 96.8269 154.152 96.7756 154.382C97.0577 154.972 97.6218 155.382 98.2884 155.382H114.135L114.365 155.357H114.468C115.827 155.357 116.571 153.844 115.827 152.664C113.724 149.28 113.468 144.587 116.417 139.998C117.058 139.228 117.801 138.562 118.622 137.998C120.622 136.792 122.622 136.254 124.519 136.228C126.417 136.254 128.417 136.818 130.417 138.023C131.237 138.587 131.981 139.28 132.622 140.049C135.545 144.639 135.237 149.331 133.135 152.716C132.366 153.818 133.084 155.357 134.443 155.357Z" fill="#C7CED2"/>
<path d="M137.134 157.678L137.158 157.68L137.391 157.703L153.211 157.78C153.212 157.78 153.212 157.78 153.212 157.78C153.875 157.78 154.429 157.218 154.429 156.536V156.534L154.506 139.714L154.507 139.554L154.6 139.424C155.18 138.619 156.287 138.187 157.318 138.736C158.657 139.441 160.166 139.831 161.775 139.831C169.329 139.831 175.022 131.063 169.487 122.71L169.484 122.705C169.241 122.329 168.903 121.99 168.513 121.714L168.512 121.713C164.503 118.868 160.472 118.865 157.364 120.468C156.378 120.977 155.34 120.62 154.73 119.914L154.608 119.773L154.609 119.585L154.686 102.869C154.686 102.869 154.686 102.869 154.686 102.869C154.685 102.17 154.162 101.643 153.556 101.626L153.516 101.624L153.477 101.617L152.985 101.523H137.955H137.908L137.861 101.514C136.488 101.253 135.575 99.7105 136.278 98.3346C136.988 96.9408 137.403 95.3261 137.403 93.6386V93.6365C137.428 87.9041 132.85 83.2718 127.271 83.3692L127.26 83.3694L127.249 83.3691C121.673 83.223 117.07 87.8287 117.07 93.5873C117.07 95.2799 117.463 96.8916 118.192 98.2776L118.195 98.2825L118.194 98.2825C118.9 99.6598 117.958 101.235 116.575 101.465L116.533 101.472L116.49 101.472L101.462 101.395L100.971 101.489L100.935 101.496L100.898 101.497C100.528 101.512 100.187 101.719 99.9624 102.052C100.035 102.304 100.07 102.568 100.07 102.844V102.845L100.044 120.101L100.043 120.704L99.4513 120.592L98.6407 120.438C98.149 120.609 97.5609 120.654 96.9869 120.343L96.8222 120.268C96.3807 120.274 95.9312 120.32 95.449 120.388L95.3345 120.411L95.2365 120.431L95.1384 120.411L95.0165 120.387C94.972 120.379 94.9281 120.371 94.8848 120.364C94.3396 120.268 93.8913 120.19 93.4672 120.19C88.8895 120.19 85.0888 123.729 84.5276 128.34L84.5274 128.342C84.476 128.753 84.4287 129.161 84.4287 129.562C84.4287 131.215 84.8659 132.982 85.8326 134.816L85.8376 134.825L85.8375 134.826C86.0347 135.22 86.257 135.615 86.5048 136.012C86.6975 136.311 86.957 136.571 87.239 136.766L87.2414 136.768C89.3959 138.279 91.4765 138.883 93.3903 138.883C93.8939 138.883 94.4026 138.835 94.8941 138.762L95.0102 138.738L95.1083 138.719L95.2063 138.738L95.3289 138.763C95.4514 138.785 95.5636 138.805 95.6674 138.824C95.9013 138.868 96.0928 138.903 96.2655 138.924C96.4754 138.836 96.6992 138.733 96.9064 138.63C97.5559 138.291 98.2679 138.373 98.8078 138.649L99.366 138.534L99.9682 138.409L99.9673 139.024L99.9416 156.536L137.134 157.678ZM137.134 157.678H137.109H137.006C136.093 157.678 135.546 156.629 136.108 155.823L136.116 155.812L136.123 155.8C138.33 152.248 138.631 147.349 135.607 142.601L135.59 142.574L135.57 142.55C134.902 141.748 134.125 141.024 133.264 140.432L133.251 140.424L133.238 140.416C131.17 139.169 129.084 138.576 127.09 138.549L127.09 138.549L127.076 138.549C125.086 138.576 122.999 139.142 120.927 140.39L120.914 140.398L120.902 140.406C120.046 140.995 119.268 141.692 118.596 142.498L118.576 142.522L118.56 142.548C115.512 147.293 115.757 152.193 117.966 155.749L117.968 155.752C118.531 156.646 117.942 157.678 117.032 157.678H116.929H116.901L116.874 157.681L116.67 157.703H100.852C100.454 157.703 100.092 157.486 99.8679 157.129M137.134 157.678L99.8679 157.129M99.4665 139.534L99.4416 156.536C99.4416 156.746 99.3993 156.935 99.3531 157.14L99.4665 139.534ZM99.4665 139.534L99.5686 139.513L99.4673 139.024L98.9673 139.023L98.9671 139.127L99.4665 139.534ZM99.8679 157.129C99.9056 156.955 99.9416 156.754 99.9416 156.537L99.8679 157.129ZM83.9287 129.562C83.9287 131.306 84.3903 133.152 85.3903 135.049L84.0313 128.28C83.98 128.69 83.9287 129.126 83.9287 129.562Z" stroke="#666666"/>
<path d="M78.3905 95.9975L78.3648 96.1001L78.3392 96.1257L78.2366 96.4847C78.2366 96.8693 78.5443 97.254 78.929 97.3309L93.8778 97.3052C94.0829 97.3052 94.2624 97.3565 94.4675 97.4078C94.9803 97.4334 95.4675 97.6129 95.8778 97.9206L95.9804 97.4591L96.0573 80.6385C96.5188 79.9974 97.365 79.6897 98.1342 80.1C99.5445 80.8436 101.134 81.2538 102.827 81.2538C110.801 81.2538 116.698 72.023 110.955 63.3563C110.673 62.9204 110.288 62.5358 109.852 62.2281C105.698 59.2793 101.468 59.2537 98.1855 60.946C97.4419 61.3306 96.647 61.0742 96.1598 60.5101L96.2368 43.8177C96.2368 42.8689 95.5188 42.0997 94.6214 42.0741L94.0829 41.9715H79.0059C77.9033 41.792 77.211 40.5612 77.7495 39.5099C78.4931 38.0228 78.929 36.3561 78.929 34.5868C78.9546 28.5612 74.1597 23.715 68.2879 23.8175C62.416 23.6637 57.5955 28.5099 57.5955 34.5356C57.5955 36.3048 58.0057 37.9971 58.775 39.4843C59.3134 40.5356 58.5955 41.7664 57.5185 41.9459L42.4159 41.792L41.8774 41.8946C40.98 41.9202 40.2364 42.6895 40.2364 43.6382L40.2107 60.3306C39.7235 60.8947 38.9287 61.1511 38.1851 60.7665C34.9286 59.0486 30.6722 59.0486 26.5183 61.9973C26.0824 62.305 25.7234 62.6896 25.4158 63.1255C19.6208 71.7666 25.467 81.0231 33.4415 81.0487C35.1338 81.0487 36.7235 80.6385 38.1338 79.9205C38.903 79.5359 39.7492 79.8436 40.1851 80.4846L40.1594 97.3052C40.1594 97.5104 40.2107 97.7155 40.262 97.895C40.6466 97.6129 41.1338 97.4334 41.6466 97.4078C41.8261 97.3565 42.0056 97.3052 42.2364 97.3052L57.1852 97.3309C57.5698 97.254 57.8775 96.8693 57.8775 96.4847L57.8006 96.1257L57.775 96.0745L57.7493 96.0232L57.7237 95.9719C56.9544 94.4334 56.5185 92.6898 56.5185 90.8437V90.7924V90.7667C56.5185 89.5872 56.7493 88.5103 57.0314 87.4847C58.416 82.7154 62.6724 79.1769 67.8007 79.1769H68.0827H68.3135C73.4417 79.1769 77.6982 82.7154 79.0828 87.4847C79.3649 88.5103 79.5956 89.5872 79.5956 90.7667V90.7924C79.5956 92.6898 79.1597 94.4334 78.3905 95.9975Z" fill="#C7CED2"/>
<path d="M78.7373 95.4762L78.7847 95.3104L78.8179 95.2773L78.8515 95.1429L78.8655 95.0869C79.6885 93.3983 80.1544 91.5174 80.1544 89.4752V89.4484C80.1544 88.1507 79.8998 86.9756 79.5999 85.8861L79.5979 85.8793C78.0923 80.7009 73.4561 76.8378 67.8486 76.8378H67.6071H67.312C61.7045 76.8378 57.0683 80.7009 55.5627 85.8793L55.5608 85.8861C55.2608 86.9756 55.0062 88.1507 55.0062 89.4484V89.4752V89.5288C55.0062 91.5374 55.4813 93.4358 56.3202 95.1113L56.347 95.1649L56.36 95.1584L56.347 95.1649L56.3722 95.2153L56.4254 95.4631C56.4053 95.6072 56.2807 95.7602 56.1421 95.8074L40.562 95.7807H40.5612C40.2714 95.7807 40.0398 95.841 39.8596 95.8921C39.5214 95.9153 39.1929 95.9922 38.8881 96.1137L38.9147 78.7051L38.9149 78.5506L38.828 78.4229C38.2498 77.5738 37.1022 77.1396 36.0448 77.6675L36.0416 77.6691C34.6333 78.3851 33.0473 78.7937 31.3585 78.7938C23.4374 78.7674 17.5239 69.5632 23.3716 60.849C23.6668 60.4322 24.0027 60.0762 24.4017 59.795L24.4027 59.7942C28.6029 56.8168 32.8555 56.8393 36.0888 58.5426L36.0924 58.5445C37.1122 59.0712 38.1873 58.703 38.8197 57.9718L38.9412 57.8313L38.9415 57.6455L38.9683 40.203V40.2023C38.9683 39.471 39.5415 38.8989 40.1998 38.8801L40.2397 38.879L40.279 38.8715L40.7936 38.7736L56.5476 38.9339L56.5914 38.9343L56.6347 38.9271C58.0668 38.6888 59.0434 37.0589 58.3123 35.6336L58.3113 35.6318C57.5444 34.1511 57.1331 32.4619 57.1331 30.6906C57.1331 24.662 61.9588 19.8378 67.8087 19.9909L67.8196 19.9911L67.8305 19.991C73.6835 19.8889 78.4825 24.7149 78.4568 30.7421V30.7442C78.4568 32.5087 78.0218 34.1734 77.2764 35.6628C76.551 37.0812 77.4898 38.7157 78.957 38.9542L78.9969 38.9607H79.0373H94.7669L95.2841 39.0591L95.3233 39.0665L95.3633 39.0677C96.0114 39.0862 96.5676 39.648 96.5679 40.3892C96.5679 40.3894 96.5679 40.3896 96.5679 40.3898L96.4874 57.83L96.4865 58.0175L96.6092 58.1594C97.2415 58.8904 98.3163 59.2586 99.336 58.7323C102.597 57.0534 106.824 57.0569 111.026 60.0354L111.027 60.0361C111.438 60.3256 111.793 60.6828 112.049 61.0783L112.052 61.0828C117.854 69.824 111.889 79.0081 103.964 79.0081C102.275 79.0081 100.692 78.5998 99.2875 77.8606C98.2219 77.2937 97.0753 77.7394 96.4745 78.5726L96.3808 78.7026L96.3801 78.8628L96.301 96.1283C95.9828 95.9956 95.6432 95.9147 95.293 95.8915C95.2869 95.89 95.2807 95.8884 95.2744 95.8868C95.0917 95.8401 94.8589 95.7807 94.5994 95.7807H94.5986L79.0185 95.8074C78.8841 95.7617 78.7629 95.6163 78.7373 95.4762ZM40.1855 38.3803C39.2464 38.4071 38.4683 39.2109 38.4683 40.2023L40.1855 38.3803ZM112.469 60.8064C112.174 60.3509 111.771 59.949 111.315 59.6274L112.469 60.8064Z" stroke="#666666"/>
<path d="M83.5701 117.793C85.5445 116.023 88.1086 114.946 90.9292 114.946V115.792V114.946C91.6215 114.946 92.2112 115.075 92.7753 115.151C93.3394 115.075 93.9035 115.023 94.4676 115.023C94.7497 115.023 95.0318 115.049 95.3138 115.075L95.3394 99.8693C95.3394 99.3821 95.0061 99.0488 94.5959 98.9975L94.5446 98.9719H94.4164L94.2882 98.9206L94.0318 98.8693L78.8778 98.8949L78.8009 98.8693C77.6214 98.6642 76.8009 97.6898 76.6983 96.5359L76.647 96.3052C76.647 95.9462 76.7239 95.5872 76.9034 95.2282L76.9291 95.1513L76.9547 95.1257C77.6214 93.7667 78.006 92.2539 78.006 90.6385V90.6128C78.006 89.6641 77.8265 88.741 77.5701 87.8179C76.3906 83.741 72.7752 80.7666 68.4675 80.7666H68.2367H68.2111H67.9803C65.9546 80.7666 64.0828 81.4333 62.57 82.5615C60.8264 83.8179 59.5187 85.6641 58.9033 87.8179C58.7494 88.3308 58.6469 88.8692 58.57 89.4077C58.5187 89.818 58.4674 90.2026 58.4674 90.6128V90.6385C58.4674 92.2539 58.852 93.7667 59.5443 95.1257L59.57 95.1513L59.5956 95.2026L59.6213 95.2539C59.7751 95.5872 59.8777 95.9718 59.8777 96.3308L59.8264 96.5359C59.7238 97.6898 58.9033 98.6642 57.7238 98.8949L57.6469 98.9206L42.4929 98.8949L42.3647 98.9206L42.2365 98.9462L42.057 98.9719H41.9288C41.4929 98.9975 41.1339 99.3565 41.1339 99.8437L41.1596 116.869L40.9544 117.1C40.4929 117.664 39.775 118.023 39.0057 118.023C38.6211 118.023 38.2108 117.921 37.8519 117.741C36.5698 117.075 35.1083 116.69 33.5698 116.69C31.5441 116.69 29.3133 117.357 27.0826 118.946C26.7492 119.177 26.4415 119.51 26.2108 119.844C24.6723 122.126 24.0312 124.434 24.0312 126.562C24.0312 132.023 28.3133 136.408 33.5441 136.434H33.5698C35.1083 136.434 36.5698 136.049 37.8519 135.382C38.2108 135.203 38.5955 135.1 38.9544 135.1C39.8006 135.1 40.5442 135.536 41.0057 136.177L41.1596 136.408L41.1852 153.485C41.1852 153.998 41.5698 154.383 42.0314 154.383L57.8007 154.357L58.0571 154.331H58.1341H58.2366C58.493 154.331 58.6469 154.229 58.8007 154.1C58.9289 153.947 59.0315 153.716 59.0315 153.485L58.8777 152.947C57.7751 151.152 57.1341 149.024 57.1341 146.767C57.1341 144.382 57.852 141.844 59.4161 139.357L59.4418 139.305L59.4674 139.28C60.1597 138.434 60.9546 137.716 61.852 137.1L61.8777 137.075L61.9033 137.049C64.0315 135.767 66.1854 135.177 68.2367 135.152H68.2623C70.3136 135.177 72.4675 135.767 74.5957 137.049H74.6214L74.647 137.075C75.5444 137.69 76.3393 138.408 77.0316 139.254L77.0573 139.305L77.0829 139.357C78.6727 141.818 79.365 144.382 79.365 146.767C79.365 149.024 78.7239 151.152 77.6214 152.947L77.4675 153.459C77.4675 153.69 77.5701 153.921 77.6983 154.075C77.8265 154.229 78.006 154.306 78.2624 154.306H78.4163H78.4675L78.647 154.331L94.4164 154.357C94.8523 154.357 95.2625 153.972 95.2625 153.459L95.2882 138.023C94.9292 138.075 94.5702 138.1 94.1856 138.1C93.5446 138.1 93.0317 137.946 92.5958 137.87C92.0317 137.946 91.4933 138.023 90.9035 138.023C88.5958 138.023 86.1343 137.28 83.7496 135.664L83.4676 135.511C82.9548 135.152 82.5188 134.69 82.1599 134.152C81.2624 132.793 80.6214 131.434 80.2368 130.049C80.1086 129.613 80.0317 129.203 79.9291 128.767C79.7752 127.998 79.6983 127.228 79.6983 126.459C79.6983 123.049 81.1855 119.921 83.5701 117.793Z" fill="#B7C0C7"/>
<mask id="path-8-inside-1" fill="white">
<path d="M83.4116 121.638C85.4633 119.796 88.1279 118.674 91.059 118.674V119.555V118.674C91.7785 118.674 92.3913 118.808 92.9775 118.888C93.5638 118.808 94.15 118.754 94.7362 118.754C95.0293 118.754 95.3224 118.781 95.6155 118.808L95.6422 102.972C95.6422 102.465 95.2958 102.118 94.8694 102.064L94.8161 102.037H94.6829L94.5497 101.984L94.2832 101.931L78.5353 101.957L78.4554 101.931C77.2296 101.717 76.377 100.702 76.2704 99.5006L76.2171 99.2603C76.2171 98.8864 76.297 98.5126 76.4835 98.1387L76.5102 98.0586L76.5368 98.0319C77.2296 96.6166 77.6293 95.041 77.6293 93.3587V93.332C77.6293 92.3439 77.4428 91.3826 77.1763 90.4212C75.9506 86.1753 72.1935 83.0776 67.7169 83.0776H67.4771H67.4505H67.2107C65.1056 83.0776 63.1604 83.7719 61.5883 84.9469C59.7764 86.2554 58.4174 88.1781 57.7779 90.4212C57.618 90.9553 57.5114 91.5161 57.4315 92.0769C57.3782 92.5042 57.3249 92.9047 57.3249 93.332V93.3587C57.3249 95.041 57.7246 96.6166 58.4441 98.0319L58.4707 98.0586L58.4974 98.112L58.524 98.1654C58.6839 98.5126 58.7905 98.9131 58.7905 99.287L58.7372 99.5006C58.6306 100.702 57.7779 101.717 56.5522 101.957L56.4722 101.984L40.7243 101.957L40.5911 101.984L40.4579 102.011L40.2713 102.037H40.1381C39.6851 102.064 39.3121 102.438 39.3121 102.945L39.3387 120.677L39.1256 120.917C38.6459 121.505 37.8998 121.879 37.1004 121.879C36.7008 121.879 36.2744 121.772 35.9014 121.585C34.5691 120.891 33.0502 120.49 31.4515 120.49C29.3464 120.49 27.0282 121.184 24.71 122.84C24.3636 123.08 24.0438 123.427 23.804 123.775C22.2052 126.151 21.5391 128.555 21.5391 130.771C21.5391 136.459 25.989 141.025 31.4248 141.052H31.4515C33.0502 141.052 34.5691 140.651 35.9014 139.957C36.2744 139.77 36.6741 139.663 37.0472 139.663C37.9265 139.663 38.6992 140.117 39.1789 140.785L39.3387 141.025L39.3654 158.81C39.3654 159.344 39.7651 159.745 40.2447 159.745L56.6321 159.718L56.8986 159.691H56.9785H57.0851C57.3516 159.691 57.5114 159.585 57.6713 159.451C57.8046 159.291 57.9111 159.051 57.9111 158.81L57.7513 158.249C56.6055 156.38 55.9393 154.164 55.9393 151.814C55.9393 149.33 56.6854 146.687 58.3108 144.096L58.3375 144.043L58.3641 144.016C59.0836 143.135 59.9096 142.387 60.8422 141.746L60.8689 141.72L60.8955 141.693C63.1071 140.358 65.3454 139.744 67.4771 139.717H67.5038C69.6355 139.744 71.8737 140.358 74.0854 141.693H74.112L74.1387 141.72C75.0713 142.361 75.8973 143.108 76.6168 143.989L76.6434 144.043L76.6701 144.096C78.3221 146.66 79.0416 149.33 79.0416 151.814C79.0416 154.164 78.3754 156.38 77.2296 158.249L77.0698 158.784C77.0698 159.024 77.1763 159.264 77.3096 159.424C77.4428 159.585 77.6293 159.665 77.8958 159.665H78.0557H78.109L78.2955 159.691L94.6829 159.718C95.1359 159.718 95.5622 159.318 95.5622 158.784L95.5889 142.708C95.2158 142.761 94.8428 142.788 94.4431 142.788C93.7769 142.788 93.244 142.628 92.791 142.547C92.2048 142.628 91.6452 142.708 91.0324 142.708C88.6342 142.708 86.0762 141.933 83.5981 140.251L83.305 140.091C82.7721 139.717 82.3191 139.236 81.946 138.675C81.0134 137.26 80.3472 135.845 79.9476 134.403C79.8143 133.949 79.7344 133.522 79.6278 133.068C79.4679 132.266 79.388 131.465 79.388 130.664C79.388 127.113 80.9335 123.855 83.4116 121.638Z"/>
</mask>
<path d="M83.4116 121.638C85.4633 119.796 88.1279 118.674 91.059 118.674V119.555V118.674C91.7785 118.674 92.3913 118.808 92.9775 118.888C93.5638 118.808 94.15 118.754 94.7362 118.754C95.0293 118.754 95.3224 118.781 95.6155 118.808L95.6422 102.972C95.6422 102.465 95.2958 102.118 94.8694 102.064L94.8161 102.037H94.6829L94.5497 101.984L94.2832 101.931L78.5353 101.957L78.4554 101.931C77.2296 101.717 76.377 100.702 76.2704 99.5006L76.2171 99.2603C76.2171 98.8864 76.297 98.5126 76.4835 98.1387L76.5102 98.0586L76.5368 98.0319C77.2296 96.6166 77.6293 95.041 77.6293 93.3587V93.332C77.6293 92.3439 77.4428 91.3826 77.1763 90.4212C75.9506 86.1753 72.1935 83.0776 67.7169 83.0776H67.4771H67.4505H67.2107C65.1056 83.0776 63.1604 83.7719 61.5883 84.9469C59.7764 86.2554 58.4174 88.1781 57.7779 90.4212C57.618 90.9553 57.5114 91.5161 57.4315 92.0769C57.3782 92.5042 57.3249 92.9047 57.3249 93.332V93.3587C57.3249 95.041 57.7246 96.6166 58.4441 98.0319L58.4707 98.0586L58.4974 98.112L58.524 98.1654C58.6839 98.5126 58.7905 98.9131 58.7905 99.287L58.7372 99.5006C58.6306 100.702 57.7779 101.717 56.5522 101.957L56.4722 101.984L40.7243 101.957L40.5911 101.984L40.4579 102.011L40.2713 102.037H40.1381C39.6851 102.064 39.3121 102.438 39.3121 102.945L39.3387 120.677L39.1256 120.917C38.6459 121.505 37.8998 121.879 37.1004 121.879C36.7008 121.879 36.2744 121.772 35.9014 121.585C34.5691 120.891 33.0502 120.49 31.4515 120.49C29.3464 120.49 27.0282 121.184 24.71 122.84C24.3636 123.08 24.0438 123.427 23.804 123.775C22.2052 126.151 21.5391 128.555 21.5391 130.771C21.5391 136.459 25.989 141.025 31.4248 141.052H31.4515C33.0502 141.052 34.5691 140.651 35.9014 139.957C36.2744 139.77 36.6741 139.663 37.0472 139.663C37.9265 139.663 38.6992 140.117 39.1789 140.785L39.3387 141.025L39.3654 158.81C39.3654 159.344 39.7651 159.745 40.2447 159.745L56.6321 159.718L56.8986 159.691H56.9785H57.0851C57.3516 159.691 57.5114 159.585 57.6713 159.451C57.8046 159.291 57.9111 159.051 57.9111 158.81L57.7513 158.249C56.6055 156.38 55.9393 154.164 55.9393 151.814C55.9393 149.33 56.6854 146.687 58.3108 144.096L58.3375 144.043L58.3641 144.016C59.0836 143.135 59.9096 142.387 60.8422 141.746L60.8689 141.72L60.8955 141.693C63.1071 140.358 65.3454 139.744 67.4771 139.717H67.5038C69.6355 139.744 71.8737 140.358 74.0854 141.693H74.112L74.1387 141.72C75.0713 142.361 75.8973 143.108 76.6168 143.989L76.6434 144.043L76.6701 144.096C78.3221 146.66 79.0416 149.33 79.0416 151.814C79.0416 154.164 78.3754 156.38 77.2296 158.249L77.0698 158.784C77.0698 159.024 77.1763 159.264 77.3096 159.424C77.4428 159.585 77.6293 159.665 77.8958 159.665H78.0557H78.109L78.2955 159.691L94.6829 159.718C95.1359 159.718 95.5622 159.318 95.5622 158.784L95.5889 142.708C95.2158 142.761 94.8428 142.788 94.4431 142.788C93.7769 142.788 93.244 142.628 92.791 142.547C92.2048 142.628 91.6452 142.708 91.0324 142.708C88.6342 142.708 86.0762 141.933 83.5981 140.251L83.305 140.091C82.7721 139.717 82.3191 139.236 81.946 138.675C81.0134 137.26 80.3472 135.845 79.9476 134.403C79.8143 133.949 79.7344 133.522 79.6278 133.068C79.4679 132.266 79.388 131.465 79.388 130.664C79.388 127.113 80.9335 123.855 83.4116 121.638Z" stroke="#666666" stroke-width="2" mask="url(#path-8-inside-1)"/>
<g opacity="0.4">
<path d="M13.9776 97.7733C13.9776 100.076 12.0755 101.949 9.7378 101.949C7.40012 101.949 5.49805 100.076 5.49805 97.7733C5.49805 95.4706 7.40012 93.5972 9.7378 93.5972C12.0755 93.5972 13.9776 95.4706 13.9776 97.7733ZM6.3962 97.7733C6.3962 99.5776 7.89523 101.045 9.7378 101.045C11.5804 101.045 13.0794 99.5776 13.0794 97.7733C13.0794 95.9691 11.5804 94.5011 9.7378 94.5011C7.89523 94.5011 6.3962 95.9691 6.3962 97.7733Z" fill="#9BAFBA"/>
<path d="M19.4771 97.7735C19.4771 97.4124 19.1791 97.1197 18.8118 97.1197C18.4444 97.1197 18.1465 97.4124 18.1465 97.7735C18.1465 98.1346 18.4444 98.4272 18.8118 98.4272C19.1791 98.4272 19.4771 98.1346 19.4771 97.7735Z" fill="#9BAFBA"/>
<path d="M16.631 90.988C16.3712 90.7326 15.95 90.7326 15.69 90.988C15.4302 91.2434 15.4302 91.6571 15.69 91.9125C15.9498 92.1678 16.371 92.1678 16.631 91.9125C16.8908 91.6571 16.8908 91.2434 16.631 90.988Z" fill="#9BAFBA"/>
<path d="M10.4039 88.8594C10.4039 88.4983 10.1059 88.2057 9.73855 88.2057C9.37121 88.2057 9.07324 88.4983 9.07324 88.8594C9.07324 89.2205 9.37121 89.5132 9.73855 89.5132C10.1059 89.5132 10.4039 89.2203 10.4039 88.8594Z" fill="#9BAFBA"/>
<path d="M3.79116 90.9968C3.53137 90.7414 3.11014 90.7414 2.85012 90.9968C2.59033 91.2521 2.59033 91.6659 2.85012 91.9213C3.10991 92.1766 3.53115 92.1766 3.79116 91.9213C4.05095 91.6659 4.05095 91.2519 3.79116 90.9968Z" fill="#9BAFBA"/>
<path d="M1.33062 97.7735C1.33062 97.4124 1.03266 97.1197 0.665309 97.1197C0.297738 97.1197 -6.47083e-07 97.4124 -6.31401e-07 97.7735C-6.15719e-07 98.1346 0.297963 98.4272 0.665309 98.4272C1.03266 98.4272 1.33062 98.1346 1.33062 97.7735Z" fill="#9BAFBA"/>
<path d="M3.79897 103.611C3.53918 103.356 3.11795 103.356 2.85793 103.611C2.59814 103.866 2.59814 104.28 2.85793 104.536C3.11772 104.791 3.53896 104.791 3.79897 104.536C4.05876 104.28 4.05876 103.866 3.79897 103.611Z" fill="#9BAFBA"/>
<path d="M10.4039 106.688C10.4039 106.326 10.1059 106.034 9.73855 106.034C9.37121 106.034 9.07324 106.326 9.07324 106.688C9.07324 107.049 9.37121 107.341 9.73855 107.341C10.1059 107.341 10.4039 107.049 10.4039 106.688Z" fill="#9BAFBA"/>
<path d="M16.6398 103.603C16.38 103.347 15.9588 103.347 15.6988 103.603C15.439 103.858 15.439 104.272 15.6988 104.527C15.9585 104.783 16.3798 104.783 16.6398 104.527C16.8998 104.272 16.8998 103.858 16.6398 103.603Z" fill="#9BAFBA"/>
</g>
<g opacity="0.4">
<path d="M73.5007 175.014C89.2412 184.962 110.066 180.265 120.013 164.525C129.961 148.784 125.265 127.96 109.524 118.012C93.7837 108.065 72.9593 112.761 63.0117 128.501C53.064 144.242 57.7601 165.066 73.5007 175.014Z" fill="#D7E2E5" fill-opacity="0.6"/>
</g>
<path d="M199.545 94.746C201.663 96.0848 202.288 98.9132 200.937 101.051C199.585 103.189 196.763 103.839 194.645 102.5C192.526 101.162 191.902 98.3331 193.253 96.1953C194.604 94.0574 197.427 93.4073 199.545 94.746ZM195.192 101.635C196.837 102.675 199.029 102.17 200.079 100.509C201.128 98.8485 200.643 96.6515 198.998 95.6117C197.353 94.5718 195.16 95.0768 194.111 96.7373C193.061 98.3978 193.546 100.595 195.192 101.635Z" fill="#CACACA"/>
<path d="M214.988 99.7708C213.594 99.8474 212.527 101.045 212.605 102.445C212.682 103.845 213.873 104.918 215.267 104.841C216.66 104.764 217.727 103.567 217.65 102.167C217.573 100.767 216.381 99.6941 214.988 99.7708Z" fill="#CFCFCF"/>
<path d="M203.312 107.051C202.266 107.109 201.465 108.008 201.523 109.06C201.581 110.112 202.476 110.918 203.522 110.861C204.568 110.803 205.369 109.904 205.311 108.852C205.253 107.8 204.358 106.994 203.312 107.051Z" fill="#9BAFBA"/>
<g opacity="0.4">
<path d="M89.3992 0.846459C93.1676 0.846459 96.2334 3.94045 96.2334 7.74354C96.2334 11.5466 93.1676 14.6406 89.3992 14.6406C85.6308 14.6406 82.565 11.5466 82.565 7.74354C82.565 3.94044 85.6308 0.846458 89.3992 0.846459ZM89.3992 13.1008C92.3261 13.1008 94.7076 10.6974 94.7076 7.74354C94.7076 4.78968 92.3261 2.38633 89.3992 2.38633C86.4723 2.38633 84.0909 4.78968 84.0909 7.74354C84.0909 10.6974 86.4723 13.1008 89.3992 13.1008Z" fill="#98A8B2"/>
</g>
<path d="M91.0012 1.46519C89.8644 2.27426 89.6021 3.85624 90.4152 4.99863C91.2283 6.14102 92.8089 6.41123 93.9457 5.60216C95.0824 4.79309 95.3448 3.21111 94.5317 2.06872C93.7185 0.926327 92.1379 0.656118 91.0012 1.46519Z" fill="#CFCFCF"/>
<path d="M101.423 11.1233C100.57 11.7308 100.373 12.919 100.984 13.7773C101.595 14.6355 102.782 14.8388 103.635 14.2313C104.489 13.6238 104.685 12.4356 104.075 11.5773C103.464 10.719 102.277 10.5158 101.423 11.1233Z" fill="#9BAFBA"/>
<g clip-path="url(#clip0)">
<path d="M42.2987 20.6553C42.7894 19.322 43.205 18.1538 42.4116 17.0523C41.6182 15.9508 40.1462 15.6524 38.4909 16.8447C37.8251 17.2987 37.2869 17.916 36.9278 18.6375C36.5688 19.359 36.4008 20.1605 36.4401 20.9654L34.5257 20.579C34.5643 19.4945 34.8559 18.4341 35.3772 17.4824C35.8986 16.5307 36.6353 15.7141 37.5284 15.0978C40.0661 13.2699 42.7196 13.6046 44.0172 15.406C45.3147 17.2073 44.7025 18.9238 44.1273 20.512C43.699 21.791 43.244 22.9044 43.9366 23.866C44.0938 24.0636 44.2944 24.2226 44.5228 24.3305C44.7511 24.4384 45.0012 24.4925 45.2538 24.4885L44.3984 25.9828C43.9915 25.9509 43.5965 25.8303 43.2412 25.6296C42.8859 25.4289 42.5787 25.1529 42.3414 24.8209C41.283 23.5313 41.8517 22.0495 42.2987 20.6553ZM46.1535 27.5469C46.3816 27.3771 46.6549 27.2791 46.9389 27.2652C47.2228 27.2513 47.5044 27.3222 47.748 27.4688C47.9915 27.6155 48.1859 27.8313 48.3064 28.0887C48.4269 28.3462 48.468 28.6337 48.4246 28.9146C48.3812 29.1956 48.2552 29.4573 48.0627 29.6664C47.8701 29.8755 47.6197 30.0226 47.3432 30.0889C47.0668 30.1552 46.7769 30.1378 46.5104 30.0389C46.2439 29.94 46.0129 29.764 45.8467 29.5334C45.7359 29.383 45.656 29.2121 45.6114 29.0307C45.5669 28.8493 45.5586 28.6609 45.5871 28.4763C45.6157 28.2917 45.6804 28.1146 45.7776 27.9551C45.8748 27.7956 46.0025 27.6569 46.1535 27.5469Z" fill="#D6DCE0"/>
</g>
<g clip-path="url(#clip1)">
<path d="M10.993 87.4004C12.1602 86.5904 13.1711 85.8724 13.1538 84.5151C13.1364 83.1577 12.1024 82.0683 10.0626 82.0944C9.25676 82.0839 8.46174 82.2804 7.75357 82.6651C7.0454 83.0497 6.44776 83.6096 6.01783 84.2912L4.67213 82.8758C5.32624 82.01 6.17375 81.3091 7.14696 80.8291C8.12018 80.3492 9.19214 80.1034 10.2773 80.1115C13.4045 80.0715 15.3851 81.8688 15.4135 84.0886C15.4419 86.3085 13.9552 87.3625 12.5725 88.3328C11.4877 89.1342 10.4759 89.7847 10.4911 90.9696C10.5064 91.2217 10.5793 91.467 10.7044 91.6865C10.8294 91.9059 11.0032 92.0938 11.2123 92.2355L9.65403 92.968C9.3392 92.7083 9.085 92.3829 8.90925 92.0145C8.73351 91.6462 8.64048 91.2439 8.6367 90.8358C8.51042 89.1723 9.82669 88.2854 10.993 87.4004ZM10.1933 95.2563C10.4775 95.2482 10.7576 95.3248 10.9981 95.4764C11.2386 95.628 11.4285 95.8477 11.5437 96.1076C11.6589 96.3675 11.6942 96.6558 11.6451 96.9358C11.5959 97.2158 11.4646 97.4748 11.2678 97.6799C11.071 97.8851 10.8176 98.027 10.5399 98.0877C10.2622 98.1484 9.97267 98.125 9.70825 98.0207C9.44383 97.9163 9.21643 97.7356 9.055 97.5016C8.89358 97.2677 8.80542 96.9909 8.80175 96.7067C8.79738 96.5199 8.82997 96.3342 8.89763 96.1601C8.96529 95.986 9.06669 95.827 9.19601 95.6922C9.32533 95.5574 9.48001 95.4495 9.65116 95.3747C9.82232 95.2999 10.0066 95.2596 10.1933 95.2563Z" fill="#D6DCE0"/>
</g>
<g clip-path="url(#clip2)">
<path d="M207.993 92.4004C209.16 91.5904 210.171 90.8724 210.154 89.5151C210.136 88.1577 209.102 87.0683 207.063 87.0944C206.257 87.0839 205.462 87.2804 204.754 87.6651C204.045 88.0497 203.448 88.6096 203.018 89.2912L201.672 87.8758C202.326 87.01 203.174 86.3091 204.147 85.8291C205.12 85.3492 206.192 85.1034 207.277 85.1115C210.404 85.0715 212.385 86.8688 212.414 89.0886C212.442 91.3085 210.955 92.3625 209.573 93.3328C208.488 94.1342 207.476 94.7847 207.491 95.9696C207.506 96.2217 207.579 96.467 207.704 96.6865C207.829 96.9059 208.003 97.0938 208.212 97.2355L206.654 97.968C206.339 97.7083 206.085 97.3829 205.909 97.0145C205.734 96.6462 205.64 96.2439 205.637 95.8358C205.51 94.1723 206.827 93.2854 207.993 92.4004ZM207.193 100.256C207.477 100.248 207.758 100.325 207.998 100.476C208.239 100.628 208.428 100.848 208.544 101.108C208.659 101.367 208.694 101.656 208.645 101.936C208.596 102.216 208.465 102.475 208.268 102.68C208.071 102.885 207.818 103.027 207.54 103.088C207.262 103.148 206.973 103.125 206.708 103.021C206.444 102.916 206.216 102.736 206.055 102.502C205.894 102.268 205.805 101.991 205.802 101.707C205.797 101.52 205.83 101.334 205.898 101.16C205.965 100.986 206.067 100.827 206.196 100.692C206.325 100.557 206.48 100.449 206.651 100.375C206.822 100.3 207.007 100.26 207.193 100.256Z" fill="#D6DCE0"/>
</g>
<defs>
<clipPath id="clip0">
<rect width="18" height="18" fill="white" transform="translate(30 20.5205) rotate(-35.7654)"/>
</clipPath>
<clipPath id="clip1">
<rect width="18" height="18" fill="white" transform="translate(1 80.23) rotate(-0.732372)"/>
</clipPath>
<clipPath id="clip2">
<rect width="18" height="18" fill="white" transform="translate(198 85.23) rotate(-0.732372)"/>
</clipPath>
</defs>
</svg>
