<?xml version="1.0" encoding="utf-8"?>
<!-- Generator: Adobe Illustrator 21.1.0, SVG Export Plug-In . SVG Version: 6.00 Build 0)  -->
<svg version="1.1" id="Layer_1" xmlns="http://www.w3.org/2000/svg" xmlns:xlink="http://www.w3.org/1999/xlink" x="0px" y="0px"
	 viewBox="0 0 36 36" style="enable-background:new 0 0 36 36;" xml:space="preserve">
<style type="text/css">
	.st0{fill:#EA5E5E;}
	.st1{fill:#FFFFFF;}
	.st2{display:none;}
	.st3{display:inline;}
	.st4{fill:#188FE0;}
	.st5{display:inline;fill:#FFFFFF;}
	.st6{fill:#FFFFFF;stroke:#FFFFFF;stroke-width:0.1;stroke-miterlimit:10;}
	.st7{fill:#00A4D8;}
	.st8{display:inline;opacity:0.2;}
	.st9{fill:#9370B1;stroke:#FFFFFF;stroke-miterlimit:10;}
	.st10{fill:#735796;}
	.st11{fill:#00A389;stroke:#FFFFFF;stroke-miterlimit:10;}
	.st12{fill:#00795A;}
	.st13{fill:#0072AA;}
	.st14{fill:none;stroke:#0072AA;stroke-miterlimit:10;}
	.st15{fill:none;stroke:#004B71;stroke-linecap:round;stroke-miterlimit:10;}
	.st16{opacity:0.4;}
	.st17{opacity:0.27;fill:#FFFFFF;enable-background:new    ;}
	.st18{fill:#D3DEE5;}
	.st19{fill:#8797A1;}
	.st20{fill:#EEF2F5;}
	.st21{fill:#4D575B;}
	.st22{fill:#83649B;}
	.st23{fill:#DD8100;}
	.st24{fill:#004B71;}
	.st25{fill:#00A389;}
	.st26{fill:#9370B1;}
	.st27{fill:#C47D2A;}
	.st28{display:inline;opacity:0.3;}
	.st29{fill:#1291CE;}
</style>
<g>
	<path class="st0" d="M18,35.2C8.5,35.2,0.8,27.5,0.8,18S8.5,0.8,18,0.8S35.2,8.5,35.2,18S27.5,35.2,18,35.2z"/>
	<path class="st1" d="M18,1.3c9.2,0,16.7,7.5,16.7,16.7S27.2,34.7,18,34.7S1.3,27.2,1.3,18S8.8,1.3,18,1.3 M18,0.3
		C8.2,0.3,0.3,8.2,0.3,18S8.2,35.7,18,35.7S35.7,27.8,35.7,18S27.8,0.3,18,0.3L18,0.3z"/>
</g>
<g id="Layer_1_1_" class="st2">
	<g id="Layer_1_11_" class="st3">
		<g>
			<circle class="st1" cx="18" cy="18" r="16"/>
			<circle class="st4" cx="18" cy="18" r="14.9"/>
		</g>
	</g>
	<path class="st5" d="M21.4,8.2H13c-1.7,0-3,1.4-3,3v13.5c0,1.7,1.4,3,3,3h10.1c1.7,0,3-1.4,3-3v-12L21.4,8.2z M21.3,9.6l3.3,3.1
		h-3.3V9.6z M23.1,26.8H12.9c-1.1,0-2-0.9-2-2V11.3c0-1.1,0.9-2,2-2h7.4v4.5H25v11C25.1,25.9,24.2,26.8,23.1,26.8z"/>
	<polygon class="st5" points="21,9.2 21,12.9 25.6,12.9 21.3,8.8 	"/>
	<g class="st3">
		<path class="st1" d="M15.7,16.2l-1.1-2.4h1c0.1,0,0.1,0,0.2,0l0.1,0.1l0.7,1.6c0,0,0,0,0-0.1c0,0,0,0,0-0.1l0.9-1.5
			c0-0.1,0.1-0.1,0.1-0.1h0.1H19L17.3,16l1.2,2.8h-1c-0.1,0-0.1,0-0.2-0.1s-0.1-0.1-0.1-0.1l-0.8-1.9l0,0l0,0l-1.1,1.8
			c0,0.1-0.1,0.1-0.2,0.1c-0.1,0-0.1,0-0.2,0h-1.1L15.7,16.2z"/>
	</g>
	<g class="st3">
		<rect x="13.8" y="23.2" class="st1" width="8.4" height="1"/>
		<polygon class="st1" points="13.8,20.4 13.8,21.4 18.7,21.4 18.7,21.4 18.7,20.4 		"/>
	</g>
	<g class="st3">
		<g>
			<path class="st6" d="M46.6,18.4c0,0.2,0.2,0.4,0.4,0.4s0.4-0.2,0.4-0.4c0-0.2-0.2-0.4-0.4-0.4S46.6,18.2,46.6,18.4z"/>
			<path class="st6" d="M48.4,20.2c0,0.2,0.2,0.4,0.4,0.4s0.4-0.2,0.4-0.4c0-0.2-0.2-0.4-0.4-0.4S48.4,20,48.4,20.2z"/>
			<ellipse class="st6" cx="49.5" cy="22.6" rx="0.4" ry="0.4"/>
			<ellipse class="st6" cx="48.8" cy="25.1" rx="0.5" ry="0.5"/>
			<path class="st6" d="M46.5,26.9c0,0.3,0.2,0.5,0.5,0.5s0.5-0.2,0.5-0.5s-0.2-0.5-0.5-0.5S46.5,26.6,46.5,26.9z"/>
			<path class="st6" d="M44,27.6c0,0.3,0.3,0.6,0.6,0.6s0.6-0.3,0.6-0.6c0-0.3-0.3-0.6-0.6-0.6S44,27.2,44,27.6z"/>
			<ellipse class="st6" cx="42.2" cy="26.9" rx="0.6" ry="0.6"/>
			<path class="st6" d="M39.8,25.1c0,0.4,0.3,0.7,0.7,0.7s0.7-0.3,0.7-0.7c0-0.4-0.3-0.7-0.7-0.7S39.8,24.7,39.8,25.1z"/>
			<path class="st6" d="M39.1,22.6c0,0.4,0.3,0.7,0.7,0.7s0.7-0.3,0.7-0.7c0-0.4-0.3-0.7-0.7-0.7C39.4,22,39.1,22.3,39.1,22.6z"/>
			<path class="st6" d="M39.7,20.2c0,0.4,0.3,0.8,0.8,0.8s0.8-0.3,0.8-0.8c0-0.4-0.3-0.8-0.8-0.8S39.7,19.8,39.7,20.2z"/>
			<path class="st6" d="M41.5,18.4c0,0.4,0.3,0.8,0.8,0.8s0.8-0.3,0.8-0.8c0-0.4-0.3-0.8-0.8-0.8S41.5,18,41.5,18.4z"/>
			<path class="st6" d="M43.8,17.8c0,0.5,0.4,0.8,0.8,0.8c0.5,0,0.8-0.4,0.8-0.8S45,17,44.6,17C44.2,16.9,43.8,17.3,43.8,17.8z"/>
		</g>
	</g>
	<g class="st3">
		<g>
			<path class="st1" d="M48.3,9.7h-9.4c-1.9,0-3.4,1.5-3.4,3.4v15c0,1.9,1.5,3.4,3.4,3.4h11.3c1.9,0,3.4-1.5,3.4-3.4V14.7L48.3,9.7z
				 M52.4,28c0,1.2-1,2.3-2.3,2.3H38.9c-1.2,0-2.3-1-2.3-2.3V13c0-1.2,1-2.3,2.3-2.3h8.2v5h5.3V28L52.4,28z"/>
		</g>
	</g>
</g>
<g id="equipment_x5F_tag" class="st2">
	<g id="Layer_2_1_" class="st3">
		<g id="Layer_1_2_">
			<g>
				<circle class="st1" cx="18" cy="18" r="16"/>
				<circle class="st4" cx="18" cy="18" r="14.9"/>
			</g>
		</g>
		<g>
			<g>
				<g>
					<path class="st1" d="M17.3,9.6l-9.2,9.2c-0.8,0.8-0.8,2.2,0,3l6.1,6.1c0.8,0.8,2.2,0.8,3,0l9.2-9.2c0.4-0.4,0.6-0.7,0.6-1.2
						v-4.9c0-0.6-0.2-1.1-0.6-1.5L25,9.6C24.6,9.2,24.1,9,23.5,9h-4.6C18.3,9,17.7,9.2,17.3,9.6z M24.7,12.3
						c0.2,0.9-0.6,1.7-1.5,1.5c-0.5-0.1-0.9-0.5-1-1c-0.2-0.9,0.6-1.7,1.5-1.5C24.2,11.4,24.6,11.8,24.7,12.3z"/>
				</g>
			</g>
			<path class="st4" d="M20,20.6L15.4,16c-0.3-0.3-0.7-0.3-0.9,0l0,0c-0.3,0.3-0.3,0.7,0,0.9l4.6,4.6c0.3,0.3,0.7,0.3,0.9,0l0,0
				C20.3,21.2,20.3,20.8,20,20.6z"/>
			<path class="st4" d="M18.2,22.4l-4.6-4.6c-0.3-0.3-0.7-0.3-0.9,0l0,0c-0.3,0.3-0.3,0.7,0,0.9l4.6,4.6c0.3,0.3,0.7,0.3,0.9,0l0,0
				C18.4,23.1,18.4,22.7,18.2,22.4z"/>
			<path class="st4" d="M16.3,24.3l-4.6-4.6c-0.3-0.3-0.7-0.3-0.9,0l0,0c-0.3,0.3-0.3,0.7,0,0.9l4.6,4.6c0.3,0.3,0.7,0.3,0.9,0l0,0
				C16.6,24.9,16.6,24.5,16.3,24.3z"/>
		</g>
	</g>
</g>
<g id="my_work_space_HS" class="st2">
	<g id="Layer_1_3_" class="st3">
		<g>
			<circle class="st1" cx="18" cy="18" r="16"/>
			<circle class="st7" cx="18" cy="18" r="14.9"/>
		</g>
	</g>
	<g class="st8">
		<g>
			<path d="M25.8,15.3h-4.2V19c0,1.3-1.1,2.4-2.4,2.4h-3.7v4.2c0,1.1,0.9,2,2,2h8.2c1.1,0,2-0.9,2-2v-8.2
				C27.8,16.2,26.9,15.3,25.8,15.3z"/>
			<g>
				<path d="M15.2,17.3c0-1.3,1.1-2.4,2.4-2.4h3.3v-4.2c0-0.9-0.7-1.6-1.7-1.6H11c-0.9,0-1.6,0.7-1.6,1.6V19c0,0.9,0.7,1.7,1.6,1.7
					h4.2V17.3z"/>
				<path d="M20.9,19v-3.3h-3.3c-0.9,0-1.6,0.7-1.6,1.6v3.3h3.3C20.1,20.6,20.9,19.9,20.9,19z"/>
			</g>
		</g>
	</g>
	<g class="st3">
		<path class="st1" d="M25.2,14.7H21v3.7c0,1.3-1.1,2.4-2.4,2.4H15V25c0,1.1,0.9,2,2,2h8.2c1.1,0,2-0.9,2-2v-8.2
			C27.2,15.6,26.3,14.7,25.2,14.7z"/>
		<g>
			<path class="st1" d="M14.6,16.7c0-1.3,1.1-2.3,2.4-2.3h3.3v-4.2c0-0.9-0.7-1.6-1.7-1.6h-8.2c-0.9,0-1.6,0.7-1.6,1.6v8.2
				c0,0.9,0.7,1.7,1.6,1.7h4.2C14.6,20.1,14.6,16.7,14.6,16.7z"/>
			<path class="st1" d="M20.3,18.4V15H17c-0.9,0-1.6,0.7-1.6,1.6V20h3.3C19.6,20,20.3,19.3,20.3,18.4z"/>
		</g>
	</g>
</g>
<g id="bulk_load-HS" class="st2">
	<g id="fave_icon_-_selected" class="st3">
	</g>
	<g id="Layer_1_4_" class="st3">
		<g>
			<circle class="st1" cx="18" cy="18" r="16"/>
			<circle class="st0" cx="18" cy="18" r="14.9"/>
		</g>
	</g>
	<g class="st3">
		<g>
			<g>
				<g>
					<path class="st1" d="M21.4,11.3h-6.9c-1.4,0-2.5,1.1-2.5,2.5v11c0,1.4,1.1,2.5,2.5,2.5h8.2c1.4,0,2.5-1.1,2.5-2.5V15L21.4,11.3
						z M24.4,24.8c0,0.9-0.7,1.7-1.7,1.7h-8.2c-0.9,0-1.7-0.7-1.7-1.7v-11c0-0.9,0.7-1.7,1.7-1.7h6v3.7h3.9V24.8L24.4,24.8z"/>
					<g>
						<path class="st1" d="M24.5,8.8h-6.9c-1.4,0-2.5,1.1-2.5,2.5v0.5h0.8v-0.5c0-0.9,0.7-1.7,1.7-1.7h6v3.7h3.9v9l0,0
							c0,0.9-0.7,1.7-1.7,1.7h-1.1v0.8h1.1c1.4,0,2.5-1.1,2.5-2.5v-9.8L24.5,8.8z"/>
					</g>
				</g>
			</g>
		</g>
		<g>
			<g>
				<path class="st1" d="M21,24.2H7.3c-0.6,0-1-0.5-1-1v-3.7c0-0.5,0.4-1,1-1H21c0.5,0,1,0.5,1,1v3.7C22,23.7,21.6,24.2,21,24.2z"/>
			</g>
			<g>
				<g>
					<path class="st0" d="M8.1,23.6c-0.3,0-0.5-0.2-0.5-0.5v-3.5c0-0.3,0.2-0.5,0.5-0.5s0.5,0.2,0.5,0.5v3.5
						C8.6,23.4,8.4,23.6,8.1,23.6z"/>
				</g>
				<g>
					<path class="st0" d="M9.8,23.6c-0.2,0-0.4-0.2-0.4-0.5v-3.5c0-0.3,0.2-0.5,0.4-0.5s0.4,0.2,0.4,0.5v3.5
						C10.3,23.4,10.1,23.6,9.8,23.6z"/>
				</g>
				<g>
					<path class="st0" d="M11.5,23.6c-0.2,0-0.4-0.2-0.4-0.4v-3.6c0-0.2,0.2-0.4,0.4-0.4s0.4,0.2,0.4,0.4v3.6
						C11.9,23.4,11.8,23.6,11.5,23.6z"/>
				</g>
				<g>
					<path class="st0" d="M13,23.6c-0.2,0-0.4-0.2-0.4-0.4v-3.7c0-0.2,0.2-0.4,0.4-0.4s0.4,0.2,0.4,0.4v3.7
						C13.4,23.4,13.2,23.6,13,23.6z"/>
				</g>
				<g>
					<path class="st0" d="M14.4,23.6c-0.2,0-0.3-0.1-0.3-0.3v-3.8c0-0.2,0.1-0.3,0.3-0.3s0.3,0.1,0.3,0.3v3.8
						C14.7,23.5,14.6,23.6,14.4,23.6z"/>
				</g>
				<g>
					<path class="st0" d="M15.6,23.6c-0.1,0-0.2-0.1-0.2-0.3v-3.9c0-0.2,0.1-0.3,0.2-0.3s0.2,0.1,0.2,0.3v3.9
						C15.8,23.5,15.7,23.6,15.6,23.6z"/>
				</g>
				<g>
					<path class="st0" d="M16.6,23.6c-0.1,0-0.2-0.1-0.2-0.2v-4c0-0.1,0.1-0.2,0.2-0.2s0.2,0.1,0.2,0.2v4
						C16.8,23.5,16.7,23.6,16.6,23.6z"/>
				</g>
				<g>
					<path class="st0" d="M17.6,23.6c-0.1,0-0.1-0.1-0.1-0.2v-4.1c0-0.1,0.1-0.2,0.1-0.2s0.1,0.1,0.1,0.2v4.1
						C17.8,23.5,17.7,23.6,17.6,23.6z"/>
				</g>
				<g>
					<path class="st0" d="M18.5,23.6c-0.1,0-0.1-0.1-0.1-0.1v-4.2c0-0.1,0-0.1,0.1-0.1s0.1,0.1,0.1,0.1v4.2
						C18.6,23.5,18.6,23.6,18.5,23.6z"/>
				</g>
				<g>
					<path class="st0" d="M19.3,23.6L19.3,23.6v-4.4v-0.1c0,0,0,0,0,0.1V23.6C19.4,23.6,19.4,23.6,19.3,23.6z"/>
				</g>
			</g>
		</g>
	</g>
</g>
<g id="bulk_load-MT" class="st2">
	<g id="Layer_7" class="st3">
	</g>
	<g id="Layer_7_1_" class="st3">
	</g>
	<g class="st3">
		<g id="Layer_5_1_">
			<g>
				<g>
					<g>
						<path class="st9" d="M16.4,27.8c-1.5,0-2.6-1.2-2.6-2.6V7.1c0-1.5,1.2-2.6,2.6-2.6h11.5l4.7,4.7v16c0,1.5-1.2,2.6-2.6,2.6
							C30,27.8,16.4,27.8,16.4,27.8z"/>
					</g>
				</g>
				<polygon class="st10" points="27.6,5 27.6,9.4 32,9.4 				"/>
			</g>
		</g>
		<g id="Layer_5">
			<g>
				<g>
					<g>
						<path class="st11" d="M12.6,31.7c-1.5,0-2.6-1.2-2.6-2.6V11c0-1.5,1.2-2.6,2.6-2.6h11.5l4.7,4.7v16c0,1.5-1.2,2.6-2.6,2.6
							L12.6,31.7L12.6,31.7z"/>
					</g>
				</g>
				<polygon class="st12" points="23.8,8.9 23.8,13.3 28.2,13.3 				"/>
			</g>
		</g>
		<path class="st12" d="M10.5,27.3H22c1.1,0,1.9-0.9,1.9-2v-4.8c0-1.1-0.9-2-1.9-2H10.5V27.3z"/>
		<g>
			<g>
				<g>
					<path class="st0" d="M4.4,26.2c-0.8,0-1.5-0.6-1.5-1.5v-4.8c0-0.8,0.7-1.5,1.5-1.5h16.9c0.8,0,1.5,0.6,1.5,1.5v4.8
						c0,0.8-0.6,1.5-1.5,1.5H4.4z"/>
					<path class="st1" d="M21.4,18.9c0.5,0,1,0.5,1,1v4.8c0,0.5-0.5,1-1,1h-17c-0.6,0-1-0.5-1-1v-4.8c0-0.5,0.5-1,1-1L21.4,18.9
						 M21.4,18h-17c-1,0-1.9,0.9-1.9,1.9v4.8c0,1,0.9,1.9,1.9,1.9h16.9c1,0,1.9-0.9,1.9-1.9v-4.8C23.3,18.9,22.4,18,21.4,18L21.4,18
						z"/>
				</g>
			</g>
			<g>
				<g>
					<path class="st1" d="M5.6,25.1c-0.3,0-0.6-0.3-0.6-0.6v-4.2c0-0.3,0.3-0.6,0.6-0.6s0.6,0.3,0.6,0.6v4.2
						C6.2,24.8,6,25.1,5.6,25.1z"/>
				</g>
				<g>
					<path class="st1" d="M7.7,25.1c-0.3,0-0.5-0.2-0.5-0.5v-4.3c0-0.3,0.2-0.5,0.5-0.5s0.5,0.2,0.5,0.5v4.3
						C8.2,24.8,8,25.1,7.7,25.1z"/>
				</g>
				<g>
					<path class="st1" d="M9.8,25.1c-0.3,0-0.5-0.2-0.5-0.5v-4.4c0-0.3,0.2-0.5,0.5-0.5s0.5,0.2,0.5,0.5v4.4
						C10.2,24.8,10,25.1,9.8,25.1z"/>
				</g>
				<g>
					<path class="st1" d="M11.5,25.1c-0.2,0-0.4-0.2-0.4-0.4v-4.4c0-0.2,0.2-0.4,0.4-0.4s0.4,0.2,0.4,0.4v4.4
						C12,24.9,11.8,25.1,11.5,25.1z"/>
				</g>
				<g>
					<path class="st1" d="M13.2,25.1c-0.2,0-0.4-0.2-0.4-0.4v-4.6c0-0.2,0.2-0.4,0.4-0.4s0.4,0.2,0.4,0.4v4.6
						C13.6,24.9,13.4,25.1,13.2,25.1z"/>
				</g>
				<g>
					<path class="st1" d="M14.6,25.1c-0.2,0-0.3-0.1-0.3-0.3V20c0-0.2,0.1-0.3,0.3-0.3s0.3,0.1,0.3,0.3v4.7
						C14.9,24.9,14.8,25.1,14.6,25.1z"/>
				</g>
				<g>
					<path class="st1" d="M15.9,25.1c-0.1,0-0.2-0.1-0.2-0.3V20c0-0.1,0.1-0.3,0.2-0.3s0.2,0.1,0.2,0.3v4.8
						C16.1,24.9,16,25.1,15.9,25.1z"/>
				</g>
				<g>
					<path class="st1" d="M17,25.1c-0.1,0-0.2-0.1-0.2-0.2V20c0-0.1,0.1-0.2,0.2-0.2s0.2,0.1,0.2,0.2v4.9C17.2,25,17.1,25.1,17,25.1
						z"/>
				</g>
				<g>
					<path class="st1" d="M18.1,25.1C18,25.1,18,25,18,25v-5.1c0-0.1,0.1-0.1,0.1-0.1c0.1,0,0.1,0.1,0.1,0.1V25
						C18.3,25,18.2,25.1,18.1,25.1z"/>
				</g>
				<g>
					<path class="st1" d="M19.1,25.1C19.1,25.1,19.1,25,19.1,25.1L19,19.8c0,0,0-0.1,0.1-0.1c0,0,0.1,0,0.1,0.1L19.1,25.1
						C19.2,25,19.2,25.1,19.1,25.1z"/>
				</g>
			</g>
		</g>
		<g id="Layer_7_2_">
		</g>
	</g>
</g>
<g id="work_package" class="st2">
	<g id="shortcut_overlay" class="st3">
		<g id="Shortcut">
		</g>
	</g>
	<g class="st3">
		<g>
			<g id="Layer_1_5_">
				<g id="Ppt">
				</g>
				<g id="Small_Folder">
				</g>
				<g id="fave_icon_-_selected_1_">
				</g>
				<g id="Shortcut_1_">
				</g>
				<g id="comment_icon_-_selected">
				</g>
				<g id="Comment_icon">
				</g>
				<g>
					<path class="st1" d="M18.1,33c-0.3,0-0.7-0.1-1-0.3l-12-6.9c-0.6-0.4-1-1-1-1.6V11.8c0-0.6,0.3-1.2,0.9-1.6l12.2-6.9
						c0.3-0.2,0.6-0.3,1-0.3c0.3,0,0.7,0.1,1,0.3l12,6.8c0.6,0.4,1,1,1,1.6v12.4c0,0.6-0.3,1.2-0.9,1.6l-12.3,7
						C18.7,32.9,18.4,33,18.1,33z"/>
					<path class="st1" d="M18.2,3.5c0.2,0,0.5,0.1,0.7,0.2l12,6.8c0.5,0.3,0.7,0.8,0.7,1.2v12.4c0,0.5-0.3,0.9-0.7,1.2l-12.2,6.9
						c-0.2,0.1-0.4,0.2-0.7,0.2c-0.2,0-0.5-0.1-0.7-0.2l-12-6.9c-0.5-0.3-0.7-0.8-0.7-1.2V11.8c0-0.4,0.3-0.9,0.7-1.2l12.2-6.9
						C17.7,3.6,17.9,3.5,18.2,3.5 M18.2,2.5c-0.4,0-0.8,0.1-1.2,0.4L4.8,9.7l0,0l0,0c-0.7,0.5-1.2,1.2-1.2,2V24c0,0.8,0.4,1.5,1.2,2
						l0,0l0,0l12,6.9c0.4,0.2,0.8,0.4,1.2,0.4c0.4,0,0.8-0.1,1.2-0.4l12.1-6.8l0,0l0,0c0.7-0.5,1.2-1.2,1.2-2V11.8
						c0-0.8-0.4-1.5-1.2-2l0,0l0,0L19.3,3C19,2.6,18.6,2.5,18.2,2.5L18.2,2.5z"/>
				</g>
			</g>
		</g>
		<g>
			<g id="Layer_1_6_">
				<g id="Ppt_1_">
				</g>
				<g id="Small_Folder_1_">
				</g>
				<g id="fave_icon_-_selected_2_">
				</g>
				<g id="Shortcut_2_">
				</g>
				<g id="comment_icon_-_selected_1_">
				</g>
				<g id="Comment_icon_1_">
				</g>
				<g>
					<g>
						<polygon class="st13" points="31.1,24.7 18.1,32 18.1,18.6 31.1,11.6 						"/>
						<polygon class="st7" points="5.1,24.7 18.1,32 18.1,18.6 5.1,11.6 						"/>
						<polygon class="st7" points="5.6,11.3 18.1,18.4 30.6,11.3 18.1,4.1 						"/>
					</g>
					<line class="st14" x1="11.4" y1="14.6" x2="24" y2="7.3"/>
					<g>
						<g>
							<line class="st15" x1="18.1" y1="31.4" x2="18.1" y2="18.6"/>
							<path class="st15" d="M30.9,11.4l-12.3,7c-0.3,0.2-0.6,0.2-0.9,0L5.6,11.6"/>
							<path class="st15" d="M31.1,24.2c0,0.3-0.2,0.6-0.5,0.8l-12.1,6.8c-0.3,0.2-0.6,0.2-0.9,0l-12-6.9c-0.3-0.2-0.5-0.5-0.5-0.8
								V11.8c0-0.3,0.2-0.6,0.5-0.8l12.1-6.8C18,4,18.3,4,18.6,4.2l12,6.8c0.3,0.2,0.5,0.5,0.5,0.8V24.2L31.1,24.2z"/>
						</g>
					</g>
				</g>
			</g>
			<g class="st16">
				<polygon points="15.2,28.9 16.2,29.5 16.2,23.7 15.2,23.2 				"/>
				<polygon points="12.3,27.3 14.3,28.4 14.3,22.6 12.3,21.5 				"/>
				<polygon points="10.4,26.1 11.4,26.7 11.4,20.9 10.4,20.4 				"/>
				<polygon points="8.5,25.1 9.4,25.7 9.4,19.9 8.5,19.3 				"/>
				<polygon points="6.5,23.9 7.5,24.5 7.5,18.7 6.5,18.1 				"/>
			</g>
		</g>
		<polygon class="st17" points="22.2,6.8 9.4,14.3 9.4,18.9 10.5,18.1 12.1,20.4 12.2,16 25,8.4 		"/>
	</g>
</g>
<g id="project" class="st2">
	<g class="st3">
		<path class="st18" d="M31,25c0,0.3-0.2,0.6-0.4,0.8l-3.5,2l-8.6,5c-0.3,0.2-0.6,0.2-0.9,0l-12.1-7C5.2,25.6,5,25.4,5,25V11
			c0-0.3,0.2-0.6,0.4-0.8l12.1-7c0.3-0.2,0.6-0.2,0.9,0l12.1,7c0.3,0.2,0.4,0.5,0.4,0.8v14H31z"/>
		<polygon class="st19" points="31,25 18,33 18,18 31,10 		"/>
		<polygon class="st20" points="5,10 18,18 31,10 18,3 		"/>
		<path class="st21" d="M31.1,9.3L19,2.3c-0.6-0.3-1.3-0.3-1.9,0L5,9.3c-0.6,0.4-1,1-1,1.7v14c0,0.7,0.4,1.3,0.9,1.6l12.1,7
			c0.3,0.2,0.6,0.3,0.9,0.3s0.7-0.1,0.9-0.3l12.1-7c0.6-0.3,0.9-1,0.9-1.6V11C32,10.3,31.6,9.7,31.1,9.3z M18,4.1l11.6,6.7
			l-11.4,6.6c-0.1,0.1-0.3,0.1-0.4,0L6.4,10.8L18,4.1z M6,25V11.7l11.3,6.6c0,0,0.1,0,0.1,0.1v13.3L6,25z M18.4,31.7V18.4
			c0.1,0,0.2-0.1,0.3-0.1L30,11.7V25L18.4,31.7z"/>
	</g>
	<g id="fave_icon_-_selected_3_" class="st3">
	</g>
</g>
<g id="transmittal_HS" class="st2">
	<g id="Layer_1_7_" class="st3">
		<g>
			<circle class="st1" cx="18" cy="18" r="16"/>
			<circle class="st22" cx="18" cy="18" r="14.9"/>
		</g>
	</g>
	<g class="st3">
		<g>
			<g>
				<path class="st1" d="M21.8,20.6c0.2-0.2,0.2-0.5,0-0.7L20,18.2h9.4c0.3,0,0.6-0.4,0.6-0.7c0-0.3-0.3-0.7-0.6-0.7H20l1.7-1.7
					c0.2-0.2,0.2-0.5,0-0.8c-0.2-0.2-0.6-0.2-0.8,0l-3.1,3.1l3.1,3.1C21.2,20.8,21.5,20.9,21.8,20.6"/>
			</g>
			<g>
				<path class="st1" d="M26.1,19c-0.2,0.2-0.2,0.5,0,0.7l1.8,1.7h-9.4c-0.3,0-0.6,0.4-0.6,0.7c0,0.3,0.3,0.7,0.6,0.7h9.4l-1.7,1.7
					c-0.2,0.2-0.2,0.5,0,0.8c0.2,0.2,0.6,0.2,0.8,0l3.1-3.1L27,19.1C26.7,18.8,26.3,18.8,26.1,19"/>
			</g>
			<path class="st1" d="M14.6,14.9h-3.4c-0.3,0-0.5-0.2-0.5-0.5l0,0c0-0.3,0.2-0.5,0.5-0.5h3.4c0.3,0,0.5,0.2,0.5,0.5l0,0
				C15.1,14.6,14.9,14.9,14.6,14.9z"/>
			<path class="st1" d="M16.7,18h-5.5c-0.3,0-0.5-0.2-0.5-0.5l0,0c0-0.3,0.2-0.5,0.5-0.5h5.5c0.3,0,0.5,0.2,0.5,0.5l0,0
				C17.2,17.8,17,18,16.7,18z"/>
			<path class="st1" d="M16.7,21.2h-5.5c-0.3,0-0.5-0.2-0.5-0.5l0,0c0-0.3,0.2-0.5,0.5-0.5h5.5c0.3,0,0.5,0.2,0.5,0.5l0,0
				C17.2,21,17,21.2,16.7,21.2z"/>
			<path class="st1" d="M16.7,24.4h-5.5c-0.3,0-0.5-0.2-0.5-0.5l0,0c0-0.3,0.2-0.5,0.5-0.5h5.5c0.3,0,0.5,0.2,0.5,0.5l0,0
				C17.2,24.2,17,24.4,16.7,24.4z"/>
		</g>
		<g>
			<path class="st1" d="M23.3,23.4v1.4l0,0c0,1.1-0.9,2-2,2H11.1c-1.1,0-2-0.9-2-2V11.2c0-1.1,0.9-2,2-2h7.5v4.5h2.8l0,0l0,0h1.9
				v2.6h1v-3.6l-4.7-4.5h-8.5c-1.7,0-3.1,1.3-3.1,3v13.6c0,1.7,1.4,3.1,3.1,3.1h10.2c1.7,0,3.1-1.4,3.1-3.1v-1.4
				C24.3,23.4,23.3,23.4,23.3,23.4z"/>
			<rect x="23.3" y="18.8" class="st1" width="1" height="2.1"/>
		</g>
	</g>
</g>
<g id="transmittal_MT" class="st2">
	<g class="st3">
		<path class="st9" d="M6.9,33.2c-1.9,0-3.4-1.5-3.4-3.4V6.3c0-1.9,1.5-3.4,3.4-3.4h14.9L27.9,9v20.7c0,1.9-1.5,3.4-3.4,3.4
			C24.5,33.2,6.9,33.2,6.9,33.2z"/>
		<polygon class="st10" points="21.5,3.5 21.5,9.3 27.3,9.2 		"/>
	</g>
	<g class="st3">
		<path class="st1" d="M16,21.2H8.4c-0.3,0-0.6-0.3-0.6-0.6v-0.2c0-0.3,0.3-0.6,0.6-0.6H16c0.3,0,0.6,0.3,0.6,0.6v0.2
			C16.7,20.9,16.4,21.2,16,21.2z"/>
		<path class="st1" d="M15.8,16.2H8.2c-0.3,0-0.6-0.3-0.6-0.6v-0.2c0-0.3,0.3-0.6,0.6-0.6h7.6c0.3,0,0.6,0.3,0.6,0.6v0.2
			C16.4,15.9,16.1,16.2,15.8,16.2z"/>
		<path class="st1" d="M16,26.1H8.4c-0.3,0-0.6-0.3-0.6-0.6v-0.2c0-0.3,0.3-0.6,0.6-0.6H16c0.3,0,0.6,0.3,0.6,0.6v0.2
			C16.7,25.8,16.4,26.1,16,26.1z"/>
	</g>
	<g class="st3">
		<g>
			<path class="st23" d="M23.4,19.8c-0.3,0-0.7-0.1-0.9-0.4l-4-4l4-4c0.2-0.2,0.6-0.4,0.9-0.4s0.7,0.1,0.9,0.4s0.4,0.6,0.4,0.9
				c0,0.3-0.1,0.7-0.4,0.9l-0.9,0.9H32c0.7,0,1.3,0.6,1.3,1.3s-0.6,1.3-1.3,1.3h-8.7l0.9,0.9c0.5,0.5,0.5,1.3,0,1.8
				C24,19.7,23.7,19.8,23.4,19.8z"/>
			<path class="st1" d="M23.4,11.6c0.2,0,0.4,0.1,0.5,0.2c0.3,0.3,0.3,0.8,0,1.1l-1.8,1.8H32c0.4,0,0.8,0.3,0.8,0.8
				c0,0.5-0.3,0.8-0.8,0.8h-9.9l1.8,1.8c0.3,0.3,0.3,0.8,0,1.1c-0.1,0.1-0.3,0.2-0.5,0.2s-0.4-0.1-0.5-0.2l-3.6-3.6l3.6-3.6
				C23,11.7,23.2,11.6,23.4,11.6 M23.4,10.6c-0.5,0-0.9,0.2-1.2,0.5l-3.6,3.6l-0.7,0.7l0.7,0.7l3.6,3.6c0.3,0.3,0.8,0.5,1.2,0.5
				c0.5,0,0.9-0.2,1.2-0.5c0.7-0.7,0.7-1.8,0-2.5l0,0H32c1,0,1.8-0.8,1.8-1.8S33,13.7,32,13.7h-7.5l0,0c0.7-0.7,0.7-1.8,0-2.5
				C24.3,10.8,23.8,10.6,23.4,10.6L23.4,10.6z"/>
		</g>
	</g>
	<g class="st3">
		<g>
			<path class="st7" d="M28.2,29.8c-0.3,0-0.7-0.1-0.9-0.4c-0.2-0.2-0.4-0.6-0.4-0.9s0.1-0.7,0.4-0.9l0.9-0.9h-8.7
				c-0.7,0-1.3-0.6-1.3-1.3s0.6-1.3,1.3-1.3h8.7l-0.9-0.9c-0.2-0.2-0.4-0.6-0.4-0.9s0.1-0.7,0.4-0.9s0.6-0.4,0.9-0.4
				s0.7,0.1,0.9,0.4l4,4l-4,4C28.9,29.7,28.6,29.8,28.2,29.8z"/>
			<path class="st1" d="M28.2,21.6c0.2,0,0.4,0.1,0.5,0.2l3.6,3.6L28.7,29c-0.1,0.1-0.3,0.2-0.5,0.2s-0.4-0.1-0.5-0.2
				c-0.3-0.3-0.3-0.8,0-1.1l1.8-1.8h-9.9c-0.4,0-0.8-0.3-0.8-0.8c0-0.4,0.3-0.8,0.8-0.8h9.9l-1.8-1.8c-0.3-0.3-0.3-0.8,0-1.1
				C27.8,21.7,28,21.6,28.2,21.6 M28.2,20.6c-0.5,0-0.9,0.2-1.2,0.5c-0.7,0.7-0.7,1.8,0,2.5l0,0h-7.5c-1,0-1.8,0.8-1.8,1.8
				s0.8,1.8,1.8,1.8H27l0,0c-0.7,0.7-0.7,1.8,0,2.5c0.3,0.3,0.8,0.5,1.2,0.5s0.9-0.2,1.2-0.5l3.6-3.6l0.7-0.7L33,24.7l-3.6-3.6
				C29.1,20.8,28.7,20.6,28.2,20.6L28.2,20.6z"/>
		</g>
	</g>
</g>
<g id="x-_ref_-MT" class="st2">
	<g class="st3">
		<g>
			<g>
				<g>
					<path class="st13" d="M9,33.5c-1.9,0-3.5-1.6-3.5-3.5V6c0-1.9,1.6-3.5,3.5-3.5h15.2l6.3,6.3V30c0,1.9-1.6,3.5-3.5,3.5H9z"/>
					<path class="st1" d="M24,3l6,6v21c0,1.7-1.3,3-3,3H9c-1.7,0-3-1.3-3-3V6c0-1.7,1.3-3,3-3H24 M24.4,2H24H9C6.8,2,5,3.8,5,6v24
						c0,2.2,1.8,4,4,4h18c2.2,0,4-1.8,4-4V9V8.6l-0.3-0.3l-6-6L24.4,2L24.4,2z"/>
				</g>
			</g>
			<polygon class="st24" points="24,3 24,9 30,9 			"/>
		</g>
	</g>
	<g id="Layer_7_3_" class="st3">
	</g>
	<g class="st3">
		<path class="st24" d="M22.1,20.6L22.1,20.6h4.1h0.1c0.6,0,1-0.5,1-1v-4.1c0-0.6-0.5-1.1-1-1.1h-4.1c-0.6,0-1.1,0.5-1.1,1.1v1.7
			h-5.9c-0.6,0-1,0.5-1,1v1.4h-1.7h-0.1c-0.6,0-1,0.4-1,1v4.2c0,0.6,0.5,1,1,1h0.1h1.7v1.4c0,0.6,0.5,1,1,1h6v1.7V30
			c0,0.6,0.4,1,1,1h4.1c0.6,0,1-0.5,1-1v-0.1v-4v-0.1c0-0.6-0.5-1-1-1h-4.1c-0.6,0-1,0.5-1,1v0.1v1.7h-6c-0.2,0-0.3-0.1-0.3-0.3
			v-1.4h1.7h0.1c0.6,0,1-0.5,1-1v-4.2c0.1-0.6-0.4-1-1-1h-0.1h-1.7v-1.4c0-0.2,0.1-0.3,0.3-0.3h5.9v1.7
			C21.1,20.1,21.6,20.6,22.1,20.6z"/>
		<g>
			<path class="st1" d="M21.4,27.8h-6.6c-0.6,0-1-0.5-1-1v-9c0-0.6,0.5-1,1-1h6.6v0.7h-6.6c-0.2,0-0.3,0.1-0.3,0.3v9
				c0,0.2,0.1,0.3,0.3,0.3h6.6V27.8z"/>
			<path class="st25" d="M16.2,25.4h-4.1c-0.6,0-1.1-0.5-1.1-1v-4.2c0-0.6,0.5-1,1-1h4.1c0.6,0,1,0.5,1,1v4.2
				C17.2,24.9,16.7,25.4,16.2,25.4z"/>
			<path class="st1" d="M16.2,19.8c0.2,0,0.3,0.1,0.3,0.3l0,0v4.2c0,0.2-0.1,0.3-0.3,0.3h-4.1c-0.2,0-0.4-0.1-0.4-0.3v-4.2
				c0-0.2,0.1-0.3,0.3-0.3l0,0H16.2 M16.2,19.1h-4.1c-0.6,0-1.1,0.5-1.1,1v4.2c0,0.6,0.5,1,1,1h4.1c0.6,0,1-0.5,1-1v-4.2
				C17.2,19.6,16.7,19.1,16.2,19.1L16.2,19.1L16.2,19.1z"/>
			<path class="st26" d="M25.9,20.2h-4.1c-0.6,0-1-0.5-1-1V15c-0.1-0.6,0.4-1.1,1-1.1h4.1c0.6,0,1,0.5,1,1.1v4.1
				C27,19.7,26.5,20.2,25.9,20.2z"/>
			<path class="st1" d="M25.9,14.6c0.2,0,0.3,0.2,0.3,0.4v4.1c0,0.2-0.1,0.3-0.3,0.3h-4.1c-0.2,0-0.3-0.1-0.3-0.3V15
				c-0.1-0.2,0.1-0.4,0.3-0.4H25.9 M25.9,13.9h-4.1c-0.6,0-1.1,0.5-1.1,1.1v4.1c0,0.6,0.5,1,1,1h4.1c0.6,0,1-0.5,1-1V15
				C27,14.4,26.5,13.9,25.9,13.9L25.9,13.9L25.9,13.9z"/>
			<path class="st27" d="M25.9,30.6h-4.1c-0.6,0-1-0.5-1-1v-4.1c0-0.6,0.5-1,1-1h4.1c0.6,0,1,0.5,1,1v4.1
				C27,30.1,26.5,30.6,25.9,30.6z"/>
			<path class="st1" d="M25.9,25c0.2,0,0.3,0.1,0.3,0.3v4.1c0,0.2-0.1,0.3-0.3,0.3h-4.1c-0.2,0-0.3-0.1-0.3-0.3l0,0v-4.1
				c0-0.2,0.1-0.3,0.3-0.3H25.9 M25.9,24.4h-4.1c-0.6,0-1,0.5-1,1v4.1c0,0.6,0.5,1,1,1h4.1c0.6,0,1-0.5,1-1v-4.1
				C27,24.8,26.5,24.4,25.9,24.4L25.9,24.4L25.9,24.4z"/>
		</g>
	</g>
	<g class="st28">
		<g>
			<path class="st1" d="M11,9.7L9.9,7.3h1c0.1,0,0.1,0,0.2,0s0.1,0.1,0.1,0.1L11.9,9c0,0,0,0,0-0.1c0,0,0,0,0-0.1l0.9-1.5
				c0-0.1,0.1-0.1,0.1-0.1H13h1.2l-1.7,2.3l1.2,2.8h-1c-0.1,0-0.1,0-0.2-0.1s-0.1-0.1-0.1-0.1l-0.8-1.9l0,0l0,0L10.5,12
				c0,0.1-0.1,0.1-0.2,0.1c-0.1,0-0.1,0-0.2,0h-1L11,9.7z"/>
		</g>
		<g>
			<polygon class="st1" points="9.2,13.9 9.2,14.9 18.4,14.9 18.4,14.9 18.4,13.9 			"/>
		</g>
	</g>
</g>
<g>
	<g>
		<g>
			<g>
				<g>
					<circle class="st29" cx="18" cy="20.3" r="4.6"/>
					<path class="st1" d="M18,25.4c-2.8,0-5.2-2.3-5.2-5.2S15.1,15,18,15s5.2,2.3,5.2,5.2C23.2,23.1,20.8,25.4,18,25.4z"/>
				</g>
			</g>
		</g>
		<g>
			<path class="st0" d="M19.9,21.6c-0.1,0-0.1,0-0.2,0l-2.1-0.8v-3.2c0-0.2,0.2-0.4,0.4-0.4s0.4,0.2,0.4,0.4v2.6l1.5,0.6
				c0.2,0.1,0.3,0.3,0.3,0.6C20.2,21.5,20.1,21.6,19.9,21.6z"/>
		</g>
	</g>
</g>
<path class="st1" d="M21.8,7h-9.5c-1.9,0-3.4,1.5-3.4,3.4v15.2c0,1.9,1.5,3.4,3.4,3.4h11.4c1.9,0,3.4-1.5,3.4-3.4V12.1L21.8,7z
	 M26,25.6c0,1.3-1,2.3-2.3,2.3H12.3c-1.3,0-2.3-1-2.3-2.3V10.4c0-1.3,1-2.3,2.3-2.3h8.3v5.1H26L26,25.6L26,25.6z"/>
</svg>
