<svg width="32" height="32" viewBox="0 0 32 32" fill="none" xmlns="http://www.w3.org/2000/svg">
<g clip-path="url(#clip0_317_29)">
<path d="M16 31.973C24.8216 31.973 31.973 24.8216 31.973 16C31.973 7.17834 24.8216 0.0269775 16 0.0269775C7.17837 0.0269775 0.0270081 7.17834 0.0270081 16C0.0270081 24.8216 7.17837 31.973 16 31.973Z" fill="#333333"/>
<path d="M16 30.939C24.2506 30.939 30.939 24.2506 30.939 16C30.939 7.74939 24.2506 1.06097 16 1.06097C7.74942 1.06097 1.061 7.74939 1.061 16C1.061 24.2506 7.74942 30.939 16 30.939Z" fill="#333333"/>
<path d="M21.242 14.616H16" stroke="white" stroke-miterlimit="10"/>
<path d="M14.04 13.643H11.986V15.588H14.04V13.643Z" stroke="white" stroke-width="0.9" stroke-miterlimit="10"/>
<path d="M21.242 18.939H16" stroke="white" stroke-miterlimit="10"/>
<path d="M14.04 17.966H11.986V19.911H14.04V17.966Z" stroke="white" stroke-width="0.9" stroke-miterlimit="10"/>
<path d="M20.873 20.369C17.941 20.369 16.142 22.769 16.142 23.434C16.142 24.099 17.942 26.499 20.873 26.499C23.804 26.499 25.603 24.099 25.603 23.434C25.603 22.769 23.8 20.369 20.873 20.369ZM20.873 25.662C20.1088 25.6565 19.3599 25.4471 18.7036 25.0555C18.0474 24.6638 17.5076 24.104 17.14 23.434C17.5035 22.7606 18.0423 22.198 18.6995 21.8059C19.3567 21.4138 20.1077 21.2068 20.873 21.2068C21.6383 21.2068 22.3893 21.4138 23.0465 21.8059C23.7037 22.198 24.2425 22.7606 24.606 23.434C24.24 24.1054 23.7006 24.6663 23.044 25.0582C22.3874 25.4501 21.6377 25.6586 20.873 25.662Z" fill="white"/>
<path d="M22.035 22.966C21.9953 23.0855 21.9234 23.1918 21.8273 23.2731C21.7311 23.3544 21.6144 23.4077 21.49 23.427C21.318 23.4555 21.1416 23.4182 20.9959 23.3226C20.8502 23.2269 20.7457 23.08 20.7034 22.9109C20.6611 22.7418 20.6839 22.563 20.7674 22.4099C20.8509 22.2569 20.9889 22.1409 21.154 22.085C21.0612 22.0474 20.9606 22.033 20.861 22.043C20.5274 22.043 20.2074 22.1755 19.9715 22.4115C19.7355 22.6474 19.603 22.9674 19.603 23.301C19.603 23.6346 19.7355 23.9546 19.9715 24.1905C20.2074 24.4265 20.5274 24.559 20.861 24.559C21.025 24.5614 21.1878 24.5301 21.3392 24.4671C21.4907 24.4041 21.6276 24.3108 21.7416 24.1928C21.8556 24.0748 21.9441 23.9347 22.0018 23.7811C22.0595 23.6276 22.0851 23.4638 22.077 23.3C22.077 23.217 22.035 23.092 22.035 22.966Z" fill="white"/>
<path d="M15.62 24.772H11.214C10.676 24.7717 10.16 24.5579 9.77957 24.1774C9.39912 23.797 9.18526 23.281 9.185 22.743V9.25603C9.18526 8.71799 9.39912 8.20206 9.77957 7.8216C10.16 7.44115 10.676 7.2273 11.214 7.22703H18.614V11.714H23.361V19.908C23.7089 20.0605 24.0434 20.2418 24.361 20.45V10.728L19.647 6.22803H11.214C10.411 6.22909 9.64116 6.54855 9.07334 7.11637C8.50552 7.68419 8.18606 8.45401 8.185 9.25703V22.744C8.18606 23.547 8.50552 24.3168 9.07334 24.8847C9.64116 25.4525 10.411 25.7719 11.214 25.773H16.492C16.1624 25.4754 15.8696 25.1393 15.62 24.772Z" fill="white"/>
</g>
<defs>
<clipPath id="clip0_317_29">
<rect width="32" height="32" fill="white"/>
</clipPath>
</defs>
</svg>
