<?xml version="1.0" encoding="utf-8"?>
<!-- Generator: Adobe Illustrator 19.1.0, SVG Export Plug-In . SVG Version: 6.00 Build 0)  -->
<!DOCTYPE svg PUBLIC "-//W3C//DTD SVG 1.1//EN" "http://www.w3.org/Graphics/SVG/1.1/DTD/svg11.dtd">
<svg version="1.1" id="Layer_1" xmlns="http://www.w3.org/2000/svg" xmlns:xlink="http://www.w3.org/1999/xlink" x="0px" y="0px"
	 viewBox="-707 439 24 24" enable-background="new -707 439 24 24" xml:space="preserve">
<g id="edit_icon">
	<g id="trash_icon">
		<g>
			<path fill="#333333" d="M-690.16,462h-9.68c-1.193,0-2.16-0.967-2.16-2.16V446h14v13.84C-688,461.033-688.967,462-690.16,462z"/>
		</g>
		<path fill="#333333" d="M-688.309,442H-692v-1c0-0.552-0.448-1-1-1h-4c-0.552,0-1,0.448-1,1v1h-3.691
			c-0.723,0-1.309,0.586-1.309,1.309V445h16v-1.691C-687,442.586-687.586,442-688.309,442z M-697,441h4v1h-4V441z"/>
	</g>
</g>
</svg>
