<svg width="24" height="24" viewBox="0 0 24 24" fill="none" xmlns="http://www.w3.org/2000/svg">
<path d="M12 19.65C4.18 19.65 0 13.25 0 12C0 10.75 4.18 4.34998 12 4.34998C19.82 4.34998 24 10.76 24 12C24 13.24 19.82 19.65 12 19.65ZM12 7.11998C11.0344 7.118 10.0899 7.40252 9.2861 7.93754C8.48227 8.47256 7.85523 9.23401 7.48434 10.1255C7.11345 11.0171 7.01539 11.9986 7.20255 12.9459C7.38972 13.8932 7.8537 14.7636 8.53578 15.4471C9.21786 16.1306 10.0874 16.5964 11.0343 16.7855C11.9812 16.9746 12.9629 16.8785 13.8552 16.5095C14.7475 16.1404 15.5102 15.5149 16.0469 14.7122C16.5835 13.9095 16.87 12.9656 16.87 12C16.8674 10.7083 16.3538 9.47005 15.4413 8.55573C14.5289 7.64141 13.2917 7.12526 12 7.11998ZM12 15C11.2044 15 10.4413 14.6839 9.87868 14.1213C9.31607 13.5587 9 12.7956 9 12C9 11.2043 9.31607 10.4413 9.87868 9.87865C10.4413 9.31605 11.2044 8.99998 12 8.99998C12.094 8.99724 12.1873 9.01663 12.2724 9.05658C12.3575 9.09653 12.4321 9.15593 12.49 9.22998C12.74 9.55998 12.61 10.04 12.49 10.66C12.3646 11.0092 12.3069 11.3791 12.32 11.75H12.4C12.7017 11.7236 12.9999 11.6666 13.29 11.58C13.6155 11.4824 13.9509 11.422 14.29 11.4C14.377 11.3872 14.4657 11.3931 14.5502 11.4172C14.6347 11.4413 14.7132 11.4831 14.7803 11.5398C14.8475 11.5966 14.9018 11.6669 14.9397 11.7463C14.9775 11.8256 14.9981 11.9121 15 12C15 12.7956 14.6839 13.5587 14.1213 14.1213C13.5587 14.6839 12.7956 15 12 15Z" fill="#333333"/>
</svg>
