<svg width="24" height="24" viewBox="0 0 24 24" fill="none" xmlns="http://www.w3.org/2000/svg">
<path d="M17.5 19C21.7383 19 24 15.6508 24 15C24 14.3492 21.7383 11 17.5 11C13.2617 11 11 14.3492 11 15C11 15.6508 13.2617 19 17.5 19ZM17.487 12.4493C18.9503 12.4493 20.1407 13.5936 20.1407 15C20.1407 16.4064 18.9501 17.5507 17.487 17.5507C16.0381 17.5507 14.8596 16.4064 14.8596 15C14.8596 13.5936 16.0381 12.4493 17.487 12.4493ZM17.4873 16.5836C18.3772 16.5836 19.1013 15.8733 19.1013 15C19.1013 14.1267 18.3772 13.4164 17.4873 13.4164C17.3779 13.4164 17.2838 13.459 17.2222 13.536C17.0865 13.7063 17.1566 13.9624 17.2457 14.2867C17.2895 14.4475 17.3805 14.7797 17.3352 14.8594C17.3299 14.8597 17.2931 14.8613 17.2931 14.8613C17.1744 14.8613 16.9905 14.8171 16.8124 14.7742C16.6152 14.7267 16.4286 14.682 16.2791 14.682C15.9977 14.682 15.8982 14.8531 15.8982 14.9997C15.8985 15.8733 16.6112 16.5836 17.4873 16.5836Z" fill="#5D5F60"/>
<path fill-rule="evenodd" clip-rule="evenodd" d="M18.9625 10.1293C18.5003 10.046 18.0127 10 17.5 10C12.6097 10 10 14.1865 10 15C10 15.3527 10.4907 16.3396 11.4451 17.3444H9.849L7.29468 19.8672C6.86423 20.2924 6.22052 20.4173 5.6623 20.184C5.10408 19.9508 4.74063 19.405 4.74063 18.8V17.1281C2.58597 16.4904 1 14.5141 1 12.15V9.19444C1 6.30813 3.36394 4 6.24063 4H13.7219C16.5986 4 18.9625 6.30813 18.9625 9.19444V10.1293Z" fill="#333333"/>
</svg>
